<svg width="90" height="90" viewBox="0 0 90 90" fill="none" xmlns="http://www.w3.org/2000/svg">
<path d="M73 58.3333C80.4055 61.1569 85 65.0911 85 69.4431C85 78.0351 67.0914 85 45 85C22.9084 85 5 78.0351 5 69.4431C5 65.0911 9.59467 61.1569 17 58.3333M45 31.6667L44.9556 31.6667M18.3333 31.6667C18.3333 49.7276 38.3333 58.3333 45 71.6667C51.6667 58.3333 71.6667 49.7276 71.6667 31.6667C71.6667 16.9391 59.7276 5 45 5C30.2724 5 18.3333 16.9391 18.3333 31.6667ZM40.5556 31.6667C40.5556 34.1212 42.5453 36.1111 45 36.1111C47.4547 36.1111 49.4444 34.1212 49.4444 31.6667C49.4444 29.2121 47.4547 27.2222 45 27.2222C42.5453 27.2222 40.5556 29.2121 40.5556 31.6667Z" stroke="#3787D4" stroke-width="8.1" stroke-linecap="round" stroke-linejoin="round"/>
</svg>
