<svg width="36" height="36" viewBox="0 0 36 36" fill="none" xmlns="http://www.w3.org/2000/svg">
<path d="M29.2 23.3333C32.1622 24.4628 34 26.0364 34 27.7772C34 31.214 26.8366 34 18 34C9.16338 34 2 31.214 2 27.7772C2 26.0364 3.83787 24.4628 6.8 23.3333M18 12.6667L17.9822 12.6667M7.33333 12.6667C7.33333 19.891 15.3333 23.3333 18 28.6667C20.6667 23.3333 28.6667 19.891 28.6667 12.6667C28.6667 6.77563 23.891 2 18 2C12.109 2 7.33333 6.77563 7.33333 12.6667ZM16.2222 12.6667C16.2222 13.6485 17.0181 14.4444 18 14.4444C18.9819 14.4444 19.7778 13.6485 19.7778 12.6667C19.7778 11.6848 18.9819 10.8889 18 10.8889C17.0181 10.8889 16.2222 11.6848 16.2222 12.6667Z" stroke="#3787D4" stroke-width="3" stroke-linecap="round" stroke-linejoin="round"/>
</svg>
