<svg width="28" height="28" viewBox="0 0 28 28" fill="none" xmlns="http://www.w3.org/2000/svg">
<g clip-path="url(#clip0_338_1426)">
<path d="M14.875 13.1262H27.125V27.1262H14.875V13.1262Z" stroke="black" stroke-width="1.5" stroke-linecap="round" stroke-linejoin="round"/>
<path d="M21 16.6262H23.625" stroke="black" stroke-width="1.5" stroke-linecap="round" stroke-linejoin="round"/>
<path d="M18.375 20.1262H23.625" stroke="black" stroke-width="1.5" stroke-linecap="round" stroke-linejoin="round"/>
<path d="M18.375 23.6262H23.625" stroke="black" stroke-width="1.5" stroke-linecap="round" stroke-linejoin="round"/>
<path d="M11.3798 23.5934C9.28587 23.4322 7.27745 22.6944 5.57705 21.4619C3.87666 20.2294 2.55067 18.5501 1.74601 16.6103C0.941345 14.6704 0.689421 12.5457 1.01815 10.4715C1.34687 8.39722 2.24341 6.45448 3.60844 4.85849C4.97347 3.26249 6.75369 2.07554 8.75186 1.42915C10.75 0.78276 12.8881 0.702164 14.9293 1.19629C16.9705 1.69042 18.835 2.73998 20.3163 4.22869C21.7976 5.71739 22.8379 7.58713 23.3218 9.63073" stroke="black" stroke-width="1.5" stroke-linecap="round" stroke-linejoin="round"/>
<path d="M7.87524 22.75V17.5C7.87524 17.5 9.05241 16.9633 9.35691 16.2773C9.45057 16.0668 9.49505 15.8378 9.48696 15.6075C9.47887 15.3773 9.41844 15.1519 9.31024 14.9485L7.84141 12.1893C7.682 11.8913 7.42759 11.655 7.11857 11.518C6.80955 11.3811 6.46364 11.3513 6.13574 11.4333L0.885742 12.7423" stroke="black" stroke-width="1.5" stroke-linecap="round" stroke-linejoin="round"/>
<path d="M6.125 2.66478V7.27545C6.12429 7.6143 6.23707 7.94362 6.44535 8.2109C6.65363 8.47818 6.94542 8.66801 7.27417 8.75011L9.49084 9.50845C9.71469 9.56435 9.94834 9.56845 10.174 9.52043C10.3997 9.47241 10.6114 9.37353 10.7931 9.23133C10.9748 9.08913 11.1217 8.90735 11.2225 8.69982C11.3233 8.4923 11.3755 8.26451 11.375 8.03378V6.43778L16.233 5.63745C16.587 5.57837 16.9086 5.39565 17.1406 5.1218C17.3726 4.84794 17.4999 4.50069 17.5 4.14178V2.15845" stroke="black" stroke-width="1.5" stroke-linecap="round" stroke-linejoin="round"/>
</g>
<defs>
<clipPath id="clip0_338_1426">
<rect width="28" height="28" fill="white"/>
</clipPath>
</defs>
</svg>
