<svg width="800" height="734" viewBox="0 0 800 734" fill="none" xmlns="http://www.w3.org/2000/svg">
<path d="M796.847 339.133C790.447 312.066 775.18 289.4 755.014 276.933C740.214 267.833 723.447 264.933 707.582 268.6C706.186 268.939 703.993 269.61 701.355 270.474C672.302 200.329 626.896 148.79 569.196 114.26C564.302 111.332 559.362 108.568 554.385 105.935L564.112 79.7636C570.526 62.5074 561.735 43.32 544.479 36.906C527.223 30.4919 508.036 39.2825 501.621 56.5387L492.581 80.8636C481.373 77.5668 470.092 74.8527 458.789 72.7043C449.719 70.9793 441.2 69.7027 433.334 68.7965V33.6685C433.334 15.2592 418.411 0.3358 400.002 0.3358C381.592 0.3358 366.669 15.2592 366.669 33.6685V69.9215C348.556 72.6465 328.717 77.3886 307.913 84.6948L298.986 57.6778C293.211 40.1981 274.358 30.7091 256.879 36.4857C239.399 42.2606 229.91 61.1137 235.687 78.5933L246.977 112.765C241.247 116.071 235.502 119.582 229.754 123.32C217.807 131.088 206.402 139.567 195.552 148.741L156.898 110.087C143.881 97.0698 122.775 97.0698 109.757 110.087C96.7403 123.104 96.7403 144.21 109.757 157.227L149.229 196.699C117.429 237.027 93.4106 286.485 78.7841 345.67C70.52 344.377 68.0716 344.375 66.6716 344.375C27.3999 344.377 0 381.109 0 433.676C0 486.209 27.3999 522.943 66.6669 522.943C69.1935 522.943 73.1169 522.554 77.7794 521.935C87.2856 557.099 102.832 590.318 124.281 619.899C179.691 696.252 265.411 733.666 400 733.666C528.765 733.666 615.965 687.936 675.71 605.612C709.894 558.465 729.124 502.099 732.716 443.32C734.542 443.375 736.146 443.401 737.549 443.401C744.216 443.401 746.516 442.834 748.916 442.268C787.347 433.1 808.38 387.8 796.847 339.133ZM359.938 139.745C362.374 139.185 364.73 138.673 367.008 138.202C369.225 154.462 383.13 167.001 399.997 167.001C417.756 167.001 432.23 153.101 433.233 135.593C444.689 137.11 456.858 139.565 469.436 143.131L468.751 144.973C462.337 162.229 471.128 181.416 488.384 187.83C505.34 194.132 524.153 185.749 530.887 169.084C532.245 169.865 533.603 170.655 534.96 171.468C568.331 191.437 596.543 218.602 618.496 254.133C550.882 223.155 476.884 227.086 421.917 267.002H378.078C338.614 238.344 289.344 228.233 239.657 236.277C249.321 224.972 250.213 208.755 242.304 196.555C249.912 190.355 257.841 184.574 266.09 179.212C266.869 178.704 267.658 178.219 268.441 177.721C274.318 195.032 293.064 204.399 310.455 198.652C327.935 192.877 337.424 174.024 331.647 156.545L329.021 148.598C339.277 145.062 349.606 142.118 359.938 139.745ZM599.554 319.038C597.782 352.139 590.491 365.753 573.759 367.95C501.909 377.397 473.345 355.742 467.734 316.471C504.045 294.224 553.274 294.607 599.554 319.038ZM202.299 245.732C199.252 246.791 196.215 247.94 193.185 249.136C194.573 247.179 195.984 245.25 197.412 243.344C198.988 244.275 200.618 245.082 202.299 245.732ZM332.263 316.471C326.652 355.742 298.089 377.397 226.244 367.95C209.507 365.753 202.215 352.139 200.443 319.038C246.722 294.607 295.952 294.224 332.263 316.471ZM621.744 566.466C574.387 631.722 507.12 666.999 399.998 666.999C285.475 666.999 220.138 638.48 178.243 580.754C157.338 551.923 143.562 518.368 137.268 482.7C137.223 481.312 137.123 479.915 136.899 478.509C132.232 449.176 132.467 419.409 137.567 390.142C137.689 389.439 137.749 388.742 137.826 388.042C137.867 387.816 137.901 387.591 137.943 387.364C138.96 381.866 140.074 376.483 141.256 371.183C151.749 406.761 174.22 428.358 217.562 434.048C326.064 448.315 383.445 402.264 396.883 333.666H403.117C416.555 402.264 473.937 448.315 582.445 434.048C628.26 428.034 650.763 404.251 660.436 364.952C661.002 367.672 661.547 370.387 662.049 373.1C664.016 383.733 665.282 395.267 666.016 409.367C666.083 410.753 666.263 412.105 666.494 413.44C668.48 469.212 653.144 523.159 621.744 566.466Z" fill="#6BBF59"/>
<path d="M509.69 510.167C508.34 511.526 505.206 514.428 500.515 518.353C492.446 525.106 483.243 531.896 473.16 538.212C426.556 567.407 380.678 575.588 339.217 553.146C332.973 549.766 326.786 545.679 320.655 540.837C306.206 529.429 285.246 531.893 273.836 546.341C262.428 560.79 264.892 581.751 279.341 593.16C288.452 600.354 297.839 606.555 307.483 611.776C373.992 647.775 443.678 635.347 508.552 594.708C530.593 580.901 547.165 567.032 556.973 557.165C569.951 544.109 569.887 523.003 556.83 510.024C543.773 497.046 522.668 497.11 509.69 510.167Z" fill="#6BBF59"/>
</svg>
