<svg width="26" height="26" viewBox="0 0 26 26" fill="none" xmlns="http://www.w3.org/2000/svg">
<path d="M22.75 10.8333C22.75 18.4166 13 24.9166 13 24.9166C13 24.9166 3.25 18.4166 3.25 10.8333C3.25 8.24739 4.27723 5.76744 6.10571 3.93896C7.93419 2.11048 10.4141 1.08325 13 1.08325C15.5859 1.08325 18.0658 2.11048 19.8943 3.93896C21.7228 5.76744 22.75 8.24739 22.75 10.8333Z" stroke="black" stroke-width="2" stroke-linecap="round" stroke-linejoin="round"/>
<path d="M13 14.0833C14.7949 14.0833 16.25 12.6282 16.25 10.8333C16.25 9.03833 14.7949 7.58325 13 7.58325C11.2051 7.58325 9.75 9.03833 9.75 10.8333C9.75 12.6282 11.2051 14.0833 13 14.0833Z" stroke="black" stroke-width="2" stroke-linecap="round" stroke-linejoin="round"/>
</svg>
