<svg width="30" height="26" viewBox="0 0 30 26" fill="none" xmlns="http://www.w3.org/2000/svg">
<path d="M0.333496 23.6667C0.333496 24.0203 0.473972 24.3594 0.72402 24.6095C0.974069 24.8595 1.31321 25 1.66683 25H12.3335C12.6871 25 13.0263 24.8595 13.2763 24.6095C13.5264 24.3594 13.6668 24.0203 13.6668 23.6667C13.6668 23.3131 13.5264 22.9739 13.2763 22.7239C13.0263 22.4738 12.6871 22.3333 12.3335 22.3333H3.09483C3.41837 20.1131 4.52968 18.0833 6.22583 16.6146C7.92198 15.1458 10.0898 14.3361 12.3335 14.3333C13.9035 14.347 15.4287 13.8109 16.6449 12.818C17.8611 11.8251 18.6916 10.438 18.9925 8.89706C19.2934 7.35613 19.0457 5.7585 18.2923 4.38104C17.5389 3.00359 16.3273 1.93313 14.8675 1.35518C13.4077 0.777233 11.7917 0.728225 10.2996 1.21665C8.80749 1.70508 7.53328 2.70015 6.69779 4.02942C5.86231 5.35869 5.51822 6.93837 5.72516 8.4947C5.9321 10.051 6.67702 11.4859 7.83083 12.5507C5.61777 13.4484 3.72252 14.9855 2.3871 16.9654C1.05169 18.9454 0.336718 21.2785 0.333496 23.6667ZM12.3335 3.66668C13.1246 3.66668 13.898 3.90128 14.5558 4.3408C15.2136 4.78033 15.7263 5.40504 16.029 6.13595C16.3318 6.86685 16.411 7.67112 16.2566 8.44704C16.1023 9.22297 15.7213 9.9357 15.1619 10.4951C14.6025 11.0545 13.8898 11.4355 13.1139 11.5898C12.3379 11.7442 11.5337 11.665 10.8028 11.3622C10.0719 11.0594 9.44714 10.5468 9.00762 9.88896C8.56809 9.23117 8.3335 8.45781 8.3335 7.66668C8.3335 6.60582 8.75492 5.5884 9.50507 4.83826C10.2552 4.08811 11.2726 3.66668 12.3335 3.66668ZM29.2762 16.6093L26.2188 19.6667L29.2762 22.724C29.4035 22.847 29.5051 22.9941 29.575 23.1568C29.6448 23.3195 29.6816 23.4944 29.6832 23.6715C29.6847 23.8485 29.651 24.0241 29.5839 24.188C29.5169 24.3518 29.4179 24.5007 29.2927 24.6259C29.1675 24.7511 29.0186 24.8501 28.8548 24.9171C28.6909 24.9842 28.5153 25.0179 28.3383 25.0163C28.1613 25.0148 27.9863 24.978 27.8236 24.9081C27.661 24.8383 27.5138 24.7367 27.3908 24.6093L24.3335 21.552L21.2762 24.6093C21.0247 24.8522 20.6879 24.9866 20.3383 24.9836C19.9887 24.9805 19.6543 24.8403 19.4071 24.5931C19.1599 24.3459 19.0196 24.0115 19.0166 23.6619C19.0136 23.3123 19.148 22.9755 19.3908 22.724L22.4482 19.6667L19.3908 16.6093C19.148 16.3579 19.0136 16.0211 19.0166 15.6715C19.0196 15.3219 19.1599 14.9875 19.4071 14.7403C19.6543 14.493 19.9887 14.3528 20.3383 14.3498C20.6879 14.3467 21.0247 14.4811 21.2762 14.724L24.3335 17.7813L27.3908 14.724C27.6423 14.4811 27.9791 14.3467 28.3287 14.3498C28.6783 14.3528 29.0127 14.493 29.2599 14.7403C29.5071 14.9875 29.6474 15.3219 29.6504 15.6715C29.6534 16.0211 29.519 16.3579 29.2762 16.6093Z" fill="black"/>
</svg>
