<svg width="48" height="48" viewBox="0 0 48 48" fill="none" xmlns="http://www.w3.org/2000/svg">
<path d="M21.9995 7.99976H7.99951C6.93865 7.99976 5.92123 8.42118 5.17108 9.17133C4.42094 9.92147 3.99951 10.9389 3.99951 11.9998V39.9998C3.99951 41.0606 4.42094 42.078 5.17108 42.8282C5.92123 43.5783 6.93865 43.9998 7.99951 43.9998H35.9995C37.0604 43.9998 38.0778 43.5783 38.8279 42.8282C39.5781 42.078 39.9995 41.0606 39.9995 39.9998V25.9998" stroke="black" stroke-width="4.17391" stroke-linecap="round" stroke-linejoin="round"/>
<path d="M36.9995 4.99972C37.7952 4.20407 38.8743 3.75708 39.9995 3.75708C41.1247 3.75708 42.2039 4.20407 42.9995 4.99972C43.7952 5.79537 44.2422 6.8745 44.2422 7.99972C44.2422 9.12494 43.7952 10.2041 42.9995 10.9997L23.9995 29.9997L15.9995 31.9997L17.9995 23.9997L36.9995 4.99972Z" stroke="black" stroke-width="4.17391" stroke-linecap="round" stroke-linejoin="round"/>
</svg>
