<svg width="66" height="72" viewBox="0 0 66 72" fill="none" xmlns="http://www.w3.org/2000/svg">
<path d="M65.5103 25.8622C64.7215 20.1595 62.2523 15.546 58.9247 12.7991C58.4391 12.3995 58.0496 11.6925 57.79 10.6799C57.7014 10.3366 57.6177 9.98335 57.5216 9.5525C57.4725 9.33303 57.3036 8.55844 57.2702 8.40792C56.2493 3.80821 54.6682 1.57297 50.3921 1.2847C48.076 1.12397 46.2429 1.50374 43.4185 2.56504C40.8035 -1.18887 34.7808 -0.571327 28.9994 2.79004L27.0044 1.66703C26.606 1.44274 25.9915 1.15901 25.1926 0.88762C22.1836 -0.134523 18.9273 -0.191978 15.8042 1.41933C14.9713 1.84904 14.1779 2.38984 13.4309 3.04327C11.7215 4.54137 10.5024 6.54509 9.82004 8.80941C7.57714 7.93764 4.93418 8.82203 3.89147 11.2421C-1.0771 22.7777 -1.71365 35.4698 6.1277 45.8198L6.12486 59.9124C6.1294 64.9214 10.1873 68.9737 15.1952 68.9737H29.6207C30.98 70.486 32.8424 71.5312 34.9415 71.8743C34.9636 71.878 34.9855 71.8824 35.0076 71.8858C35.1109 71.9019 35.2151 71.9148 35.3196 71.9275C35.3818 71.9351 35.4437 71.9442 35.5063 71.9506C35.5542 71.9554 35.6026 71.9581 35.6507 71.9622C35.916 71.9854 36.1832 72.0001 36.4529 72.0001C36.7198 72.0001 36.9838 71.9855 37.2457 71.9629C37.2967 71.9585 37.3484 71.9558 37.3992 71.9506C37.4588 71.9444 37.5176 71.9358 37.5769 71.9285C37.6836 71.9156 37.7902 71.9022 37.8956 71.8858C37.9156 71.8826 37.9351 71.8787 37.9551 71.8753C40.0455 71.5334 41.8827 70.4875 43.2178 68.9737H51.5369C56.5438 68.9737 60.6043 64.9189 60.6043 59.9124V45.9334C61.3003 45.0763 62.0865 43.9178 62.8574 42.4567C65.2819 37.8617 66.3991 32.2951 65.5103 25.8622ZM12.1821 35.7116C12.1852 36.4819 12.4802 37.2514 13.0679 37.8391L16.9809 41.7521L13.0679 45.665C12.4802 46.2528 12.1852 47.0222 12.1821 47.7926V35.7116ZM11.8079 10.2041C11.8175 10.2173 11.8508 10.2611 11.9211 10.3535C11.8351 10.2484 11.7464 10.1476 11.6554 10.0516C11.7083 10.0977 11.7593 10.1485 11.8079 10.2041ZM8.73959 15.3877C11.1732 16.56 14.5368 15.19 15.2206 12.1275C15.3127 11.7283 15.4208 11.2852 15.531 10.8562C15.8825 9.50412 16.5398 8.36707 17.4181 7.59745C17.7956 7.26718 18.1832 7.00303 18.5797 6.79846C19.3496 6.40123 20.1689 6.22291 21.0059 6.22376C20.8624 7.32776 20.9155 8.54937 21.0968 9.84914C21.5285 12.8102 25.1088 13.9031 27.1497 11.8422C29.8512 9.10009 33.0717 7.14106 35.8133 6.40733C37.7057 5.90087 38.4836 6.08501 38.51 6.15495C39.4208 8.55163 42.1342 9.57931 44.4154 8.67236C47.1949 7.55843 48.5026 7.22122 49.9791 7.32364C50.8092 7.37954 50.8566 7.44664 51.361 9.71962C51.391 9.85425 51.5611 10.6341 51.6141 10.872C51.7236 11.3621 51.8217 11.7762 51.9278 12.1877C52.4801 14.3417 53.4815 16.1586 55.0748 17.47C56.3855 18.552 57.5464 20.198 58.3808 22.2954L56.0671 23.6548C56.0596 23.6592 56.052 23.6628 56.0444 23.6671C52.08 25.9973 49.6964 25.7639 47.9485 24.1245C47.8921 24.0716 47.8365 24.0174 47.7815 23.9617C47.2366 23.4097 46.8989 22.8625 46.79 22.6103L46.1262 21.0733L44.4739 20.8192C44.4727 20.8191 44.4716 20.8188 44.4703 20.8185C37.1284 19.6894 32.0433 20.6543 28.9042 23.2133C28.3898 23.6327 27.9584 24.0664 27.6016 24.5005C25.0753 24.1471 22.8395 23.6064 20.8856 22.9289C18.7977 22.2049 17.5085 21.5203 16.9824 21.1398L14.7285 19.5095L12.9143 21.6185C12.5304 22.0648 12.1713 22.4759 11.8286 22.8625C10.5912 24.2566 9.59291 25.2904 8.63305 26.1501C8.19369 26.5432 7.76171 26.9011 7.3181 27.24L6.2873 28.0277C6.24857 23.8605 7.14573 19.5674 8.73959 15.3877ZM39.4198 62.9191C39.4198 63.411 39.3161 63.8628 39.1342 64.2613C39.0906 64.3263 39.0486 64.3927 39.0099 64.4615C38.6198 65.154 37.992 65.6415 37.2448 65.8434C37.2342 65.8463 37.2233 65.8487 37.2125 65.8514C37.1498 65.8675 37.0862 65.8817 37.0219 65.8938C36.9438 65.9078 36.8649 65.9199 36.7843 65.9281C36.7717 65.9295 36.7591 65.9307 36.7464 65.9318C36.6504 65.9405 36.5529 65.9457 36.4539 65.9457C36.3532 65.9457 36.2539 65.9403 36.1559 65.9315C36.1408 65.9301 36.1258 65.9287 36.1109 65.9271C36.0365 65.9195 35.9638 65.908 35.8913 65.8955C35.0084 65.7349 34.2398 65.202 33.7884 64.4258C33.7481 64.3565 33.7047 64.29 33.6596 64.2249C33.4735 63.8323 33.3669 63.392 33.3669 62.9193V59.911H39.4199V62.9191H39.4198ZM51.5371 62.9206H45.4726C45.4726 62.92 45.4726 62.9196 45.4726 62.919V59.9107C47.1441 59.9107 48.499 58.5558 48.499 56.8843C48.499 55.2128 47.1441 53.8579 45.4726 53.8579H42.4462H30.3404H21.2609C19.5895 53.8579 18.2345 55.2128 18.2345 56.8843C18.2345 58.5558 19.5895 59.9107 21.2609 59.9107H27.3139V62.919C27.3139 62.9196 27.3139 62.92 27.3139 62.9206H15.1953C13.5276 62.9206 12.1794 61.5742 12.178 59.9095V53.2784L12.1822 53.2836V47.8175C12.1854 48.5879 12.4803 49.3573 13.0681 49.9451C14.2499 51.127 16.1663 51.127 17.3481 49.9451L21.2611 46.0321L25.174 49.9451C26.3559 51.127 28.2722 51.127 29.4541 49.9451C30.636 48.7632 30.636 46.8469 29.4541 45.665L25.5412 41.7521L29.4541 37.8391C30.636 36.6572 30.636 34.7409 29.4541 33.559C28.2722 32.3771 26.3559 32.3771 25.174 33.559L21.2611 37.472L17.3481 33.559C16.1663 32.3771 14.2499 32.3771 13.0681 33.559C12.4803 34.1468 12.1854 34.9161 12.1822 35.6866V31.0897C12.3559 30.9413 12.5287 30.7895 12.7016 30.6343C13.7038 29.7359 14.7075 28.7132 15.8674 27.4276C16.7136 27.8258 17.7228 28.2408 18.8977 28.6481C21.6084 29.5878 24.7225 30.2931 28.2454 30.6797C28.4718 30.7047 28.6998 30.7284 28.9295 30.7506L31.5543 31.0049L32.1645 28.4439C32.1642 28.4476 32.1643 28.4507 32.167 28.4493C32.1872 28.4439 32.3368 28.225 32.7297 27.9047C34.2466 26.6678 37.2081 26.0254 42.1352 26.6079C42.4937 27.125 42.9369 27.67 43.4741 28.2141C43.6031 28.3447 43.735 28.4704 43.8682 28.5937C46.6233 31.1436 50.2704 32.1022 54.5517 30.8894V35.6863C54.5485 34.9161 54.2535 34.1468 53.6659 33.5592C52.484 32.3773 50.5677 32.3773 49.3858 33.5592L45.4729 37.4721L41.56 33.5592C40.3781 32.3773 38.4617 32.3773 37.2799 33.5592C36.098 34.7411 36.098 36.6574 37.2799 37.8393L41.1928 41.7522L37.2799 45.6651C36.098 46.847 36.098 48.7633 37.2799 49.9452C38.4617 51.1271 40.3781 51.1271 41.56 49.9452L45.4729 46.0323L49.3858 49.9452C50.5677 51.1271 52.484 51.1271 53.6659 49.9452C54.2535 49.3575 54.5485 48.5883 54.5517 47.8181V59.9126C54.5515 61.574 53.2029 62.9206 51.5371 62.9206ZM54.5514 35.7118V47.792C54.5482 47.0218 54.2533 46.2525 53.6656 45.6649L49.7527 41.7519L53.6656 37.839C54.2534 37.2514 54.5482 36.4822 54.5514 35.7118Z" fill="#6BBF59"/>
</svg>
