<svg width="20" height="20" viewBox="0 0 20 20" fill="none" xmlns="http://www.w3.org/2000/svg">
<g clip-path="url(#clip0_472_347)">
<path d="M14.8439 10C14.8447 11.1399 14.4431 12.2434 13.71 13.1163C12.9769 13.9891 11.9593 14.5753 10.8365 14.7714C9.7136 14.9675 8.55753 14.7611 7.57194 14.1885C6.58634 13.6159 5.83445 12.7138 5.44872 11.6412L2.67822 13.8576C3.53969 15.4952 4.92502 16.7969 6.61299 17.5549C8.30097 18.3129 10.1943 18.4835 11.9905 18.0394C13.7868 17.5953 15.3825 16.5621 16.5228 15.1049C17.6631 13.6477 18.2823 11.8504 18.2814 10" fill="#00AC47"/>
<path d="M14.8438 10C14.8431 10.7706 14.6584 11.5299 14.3049 12.2147C13.9514 12.8995 13.4394 13.4899 12.8115 13.9367L15.5505 16.1279C16.4094 15.3546 17.0963 14.4096 17.5667 13.3539C18.0371 12.2983 18.2805 11.1557 18.2813 10" fill="#4285F4"/>
<path d="M5.15625 10C5.15745 9.44011 5.25637 8.88472 5.44856 8.35883L2.67806 6.14246C2.04811 7.33069 1.71875 8.65512 1.71875 10C1.71875 11.3449 2.04811 12.6693 2.67806 13.8576L5.44856 11.6412C5.25637 11.1153 5.15745 10.5599 5.15625 10Z" fill="#FFBA00"/>
<path d="M10.0002 5.15626C11.0251 5.15654 12.0231 5.48407 12.8489 6.09113L15.3864 3.72282C14.4445 2.91067 13.3312 2.32173 12.1299 1.99996C10.9285 1.67818 9.66993 1.63188 8.44815 1.86451C7.22637 2.09714 6.07289 2.60268 5.07381 3.34342C4.07472 4.08416 3.25583 5.04097 2.67822 6.14244L5.44872 8.35882C5.78661 7.42218 6.40473 6.61231 7.21907 6.03931C8.0334 5.46631 9.00444 5.15799 10.0002 5.15626Z" fill="#EA4435"/>
<path d="M18.2813 9.375V10L16.875 12.1875H10.3125V8.75L17.6563 8.75C17.822 8.75 17.981 8.81585 18.0982 8.93306C18.2154 9.05027 18.2813 9.20924 18.2813 9.375Z" fill="#4285F4"/>
</g>
<defs>
<clipPath id="clip0_472_347">
<rect width="20" height="20" fill="white"/>
</clipPath>
</defs>
</svg>
