<svg width="43" height="45" viewBox="0 0 43 45" fill="none" xmlns="http://www.w3.org/2000/svg">
<path d="M16.7204 22.8288L26.1544 31.4402M26.1544 22.8288L16.7204 31.4402M35.5884 9.91169L33.6995 35.7737C33.5342 38.0387 33.4514 39.1713 32.9155 40.0301C32.4436 40.7862 31.7318 41.394 30.874 41.7735C29.8997 42.2045 28.6561 42.2045 26.169 42.2045H16.7057C14.2186 42.2045 12.9751 42.2045 12.0007 41.7735C11.1429 41.394 10.4312 40.7862 9.95929 40.0301C9.42332 39.1713 9.34061 38.0387 9.17518 35.7737L7.28635 9.91169M2.56934 9.91169H40.3054M30.8714 9.91169L30.2332 8.16372C29.6146 6.46981 29.3051 5.62286 28.7315 4.99668C28.2249 4.44372 27.5744 4.01571 26.8395 3.7519C26.0072 3.45313 25.0294 3.45312 23.0732 3.45312H19.8015C17.8454 3.45312 16.8675 3.45313 16.0352 3.7519C15.3004 4.01571 14.6498 4.44372 14.1432 4.99668C13.5695 5.62286 13.2603 6.46981 12.6417 8.16372L12.0034 9.91169" stroke="#DB3030" stroke-width="5" stroke-linecap="round" stroke-linejoin="round"/>
</svg>
