<svg width="34" height="34" viewBox="0 0 34 34" fill="none" xmlns="http://www.w3.org/2000/svg">
<path d="M27.5 22C30.2771 23.0588 32 24.5342 32 26.1662C32 29.3882 25.2843 32 17 32C8.71567 32 2 29.3882 2 26.1662C2 24.5342 3.723 23.0588 6.5 22M17 12L16.9833 12M7 12C7 18.7728 14.5 22 17 27C19.5 22 27 18.7728 27 12C27 6.47715 22.5228 2 17 2C11.4772 2 7 6.47715 7 12ZM15.3333 12C15.3333 12.9205 16.0795 13.6667 17 13.6667C17.9205 13.6667 18.6667 12.9205 18.6667 12C18.6667 11.0795 17.9205 10.3333 17 10.3333C16.0795 10.3333 15.3333 11.0795 15.3333 12Z" stroke="#3F463E" stroke-width="3" stroke-linecap="round" stroke-linejoin="round"/>
</svg>
