<svg width="38" height="38" viewBox="0 0 38 38" fill="none" xmlns="http://www.w3.org/2000/svg">
<path d="M6.27207 26.8817C3.01472 27.8589 1 29.2089 1 30.7001C1 33.6824 9.05887 36.1001 19 36.1001C28.9411 36.1001 37 33.6824 37 30.7001C37 29.2089 34.9853 27.8589 31.7279 26.8817" stroke="#0C150A" stroke-width="2" stroke-linecap="round" stroke-linejoin="round"/>
<path d="M18.9998 28.9C18.9998 28.9 30.6998 21.2536 30.6998 12.4136C30.6998 6.11006 25.4615 1 18.9998 1C12.5381 1 7.2998 6.11006 7.2998 12.4136C7.2998 21.2536 18.9998 28.9 18.9998 28.9Z" fill="#6BBF59" stroke="#0C150A" stroke-width="2" stroke-linejoin="round"/>
<path d="M19 17.2C21.4853 17.2 23.5 15.1852 23.5 12.7C23.5 10.2147 21.4853 8.19995 19 8.19995C16.5147 8.19995 14.5 10.2147 14.5 12.7C14.5 15.1852 16.5147 17.2 19 17.2Z" fill="#A6D89B" stroke="white" stroke-width="5" stroke-linejoin="round"/>
</svg>
