<svg width="76" height="76" viewBox="0 0 76 76" fill="none" xmlns="http://www.w3.org/2000/svg">
<rect x="75.1694" y="0.125488" width="75" height="75.1691" rx="37.5" transform="rotate(90 75.1694 0.125488)" fill="#F1F1F1"/>
<path d="M6.26436 37.6255C6.26436 54.8844 20.287 68.8755 37.5848 68.8755C54.8826 68.8755 68.9053 54.8844 68.9053 37.6255C68.9053 20.3666 54.8826 6.37549 37.5848 6.37549C20.287 6.37549 6.26436 20.3666 6.26436 37.6255Z" stroke="black" stroke-width="6.16327"/>
<path d="M34.0265 29.3675C35.6096 26.5208 36.4015 25.0974 37.585 25.0974C38.7684 25.0974 39.5603 26.5208 41.1434 29.3675L41.5531 30.104C42.0031 30.9129 42.2281 31.3174 42.5787 31.5842C42.9296 31.851 43.3665 31.9503 44.24 32.1483L45.0356 32.3287C48.1103 33.0259 49.6475 33.3745 50.0131 34.5534C50.379 35.7323 49.3309 36.9603 47.235 39.4171L46.6925 40.0526C46.0968 40.7508 45.799 41.0997 45.6653 41.5316C45.5312 41.9635 45.5762 42.4289 45.6662 43.3604L45.7481 44.2085C46.065 47.4859 46.2237 49.1249 45.2659 49.8534C44.3084 50.5819 42.869 49.9176 39.9903 48.5893L39.2456 48.2454C38.4275 47.868 38.0184 47.6791 37.585 47.6791C37.1515 47.6791 36.7425 47.868 35.9243 48.2454L35.1796 48.5893C32.3009 49.9176 30.8614 50.5819 29.9039 49.8534C28.9464 49.1249 29.1048 47.4859 29.4217 44.2085L29.5037 43.3604C29.5937 42.4289 29.6388 41.9635 29.5048 41.5316C29.3708 41.0997 29.073 40.7508 28.4774 40.0526L27.9351 39.4171C25.839 36.9603 24.791 35.7323 25.1567 34.5534C25.5225 33.3745 27.0598 33.0259 30.1344 32.3287L30.9298 32.1483C31.8034 31.9503 32.2403 31.851 32.5912 31.5842C32.9418 31.3174 33.1668 30.9129 33.6168 30.104L34.0265 29.3675Z" stroke="black" stroke-width="3.08163"/>
</svg>
