<svg width="76" height="75" viewBox="0 0 76 75" fill="none" xmlns="http://www.w3.org/2000/svg">
<rect x="75.1694" width="75" height="75.1691" rx="37.5" transform="rotate(90 75.1694 0)" fill="white"/>
<path d="M6.26436 37.5C6.26436 54.7589 20.287 68.75 37.5848 68.75C54.8826 68.75 68.9053 54.7589 68.9053 37.5C68.9053 20.2411 54.8826 6.25 37.5848 6.25C20.287 6.25 6.26436 20.2411 6.26436 37.5Z" fill="#A6D89B" stroke="black" stroke-width="6.16327"/>
<path d="M34.0265 29.242C35.6096 26.3953 36.4015 24.9719 37.585 24.9719C38.7684 24.9719 39.5603 26.3953 41.1434 29.242L41.5531 29.9785C42.0031 30.7874 42.2281 31.1919 42.5787 31.4587C42.9296 31.7256 43.3665 31.8248 44.24 32.0228L45.0356 32.2032C48.1103 32.9004 49.6475 33.249 50.0131 34.4279C50.379 35.6068 49.3309 36.8349 47.235 39.2916L46.6925 39.9271C46.0968 40.6253 45.799 40.9742 45.6653 41.4061C45.5312 41.838 45.5762 42.3034 45.6662 43.2349L45.7481 44.083C46.065 47.3604 46.2237 48.9994 45.2659 49.7279C44.3084 50.4564 42.869 49.7921 39.9903 48.4638L39.2456 48.1199C38.4275 47.7425 38.0184 47.5537 37.585 47.5537C37.1515 47.5537 36.7425 47.7425 35.9243 48.1199L35.1796 48.4638C32.3009 49.7921 30.8614 50.4564 29.9039 49.7279C28.9464 48.9994 29.1048 47.3604 29.4217 44.083L29.5037 43.2349C29.5937 42.3034 29.6388 41.838 29.5048 41.4061C29.3708 40.9742 29.073 40.6253 28.4774 39.9271L27.9351 39.2916C25.839 36.8349 24.791 35.6068 25.1567 34.4279C25.5225 33.249 27.0598 32.9004 30.1344 32.2032L30.9298 32.0228C31.8034 31.8248 32.2403 31.7256 32.5912 31.4587C32.9418 31.1919 33.1668 30.7874 33.6168 29.9785L34.0265 29.242Z" fill="#0C150A" stroke="black" stroke-width="3.08163"/>
</svg>
