<svg width="252" height="252" viewBox="0 0 252 252" fill="none" xmlns="http://www.w3.org/2000/svg">
<rect x="252" width="251.433" height="252" rx="125.716" transform="rotate(90 252 0)" fill="white"/>
<path d="M21.0003 125.716C21.0003 183.576 68.0103 230.48 126 230.48C183.99 230.48 231 183.576 231 125.716C231 67.8569 183.99 20.9526 126 20.9526C68.0103 20.9526 21.0003 67.8569 21.0003 125.716Z" fill="#A6D89B" stroke="black" stroke-width="20.662"/>
<path d="M114.071 98.032C119.379 88.4885 122.033 83.7168 126.001 83.7168C129.968 83.7168 132.623 88.4885 137.93 98.032L139.304 100.501C140.812 103.213 141.566 104.569 142.742 105.463C143.918 106.358 145.383 106.691 148.311 107.354L150.978 107.959C161.286 110.296 166.439 111.465 167.665 115.417C168.892 119.369 165.378 123.487 158.352 131.723L156.533 133.853C154.536 136.194 153.538 137.363 153.089 138.811C152.64 140.259 152.791 141.82 153.093 144.942L153.367 147.786C154.429 158.773 154.962 164.267 151.751 166.71C148.541 169.152 143.715 166.925 134.064 162.472L131.568 161.319C128.825 160.054 127.454 159.421 126.001 159.421C124.548 159.421 123.176 160.054 120.434 161.319L117.937 162.472C108.286 166.925 103.46 169.152 100.25 166.71C97.0403 164.267 97.5715 158.773 98.6339 147.786L98.9087 144.942C99.2106 141.82 99.3616 140.259 98.9124 138.811C98.4632 137.363 97.4648 136.194 95.468 133.853L93.6501 131.723C86.6231 123.487 83.1097 119.369 84.3358 115.417C85.562 111.465 90.7156 110.296 101.023 107.959L103.69 107.354C106.618 106.691 108.083 106.358 109.259 105.463C110.435 104.569 111.189 103.213 112.698 100.501L114.071 98.032Z" fill="#0C150A" stroke="black" stroke-width="10.331"/>
</svg>
