<svg width="76" height="75" viewBox="0 0 76 75" fill="none" xmlns="http://www.w3.org/2000/svg">
<rect x="75.1694" width="75" height="75" rx="37.5" transform="rotate(90 75.1694 0)" fill="white"/>
<path d="M6.41944 37.5C6.41944 54.7589 20.4105 68.75 37.6694 68.75C54.9283 68.75 68.9194 54.7589 68.9194 37.5C68.9194 20.2411 54.9283 6.25 37.6694 6.25C20.4105 6.25 6.41944 20.2411 6.41944 37.5Z" fill="#A6D89B" stroke="black" stroke-width="6.16327"/>
<path d="M34.1192 29.242C35.6988 26.3953 36.4889 24.9719 37.6696 24.9719C38.8504 24.9719 39.6405 26.3953 41.2201 29.242L41.6288 29.9785C42.0778 30.7874 42.3023 31.1919 42.6521 31.4587C43.0023 31.7256 43.4382 31.8248 44.3097 32.0228L45.1035 32.2032C48.1713 32.9004 49.705 33.249 50.0698 34.4279C50.4349 35.6068 49.3891 36.8349 47.2979 39.2916L46.7566 39.9271C46.1624 40.6253 45.8652 40.9742 45.7318 41.4061C45.598 41.838 45.6429 42.3034 45.7327 43.2349L45.8144 44.083C46.1306 47.3604 46.2889 48.9994 45.3333 49.7279C44.3779 50.4564 42.9418 49.7921 40.0695 48.4638L39.3265 48.1199C38.5102 47.7425 38.1021 47.5537 37.6696 47.5537C37.2372 47.5537 36.829 47.7425 36.0127 48.1199L35.2697 48.4638C32.3975 49.7921 30.9612 50.4564 30.0058 49.7279C29.0505 48.9994 29.2086 47.3604 29.5247 44.083L29.6065 43.2349C29.6964 42.3034 29.7413 41.838 29.6076 41.4061C29.474 40.9742 29.1768 40.6253 28.5825 39.9271L28.0415 39.2916C25.9501 36.8349 24.9044 35.6068 25.2694 34.4279C25.6343 33.249 27.1681 32.9004 30.2358 32.2032L31.0294 32.0228C31.9011 31.8248 32.337 31.7256 32.6871 31.4587C33.037 31.1919 33.2614 30.7874 33.7104 29.9785L34.1192 29.242Z" fill="#0C150A" stroke="black" stroke-width="3.08163"/>
</svg>
