<svg width="27" height="28" viewBox="0 0 27 28" fill="none" xmlns="http://www.w3.org/2000/svg">
<path d="M17.6625 26.4452H9.32504V13.9452C9.32504 12.5702 10.45 11.4452 11.825 11.4452H15.1625C16.55 11.4452 17.6625 12.5702 17.6625 13.9452V26.4452ZM17.6625 26.4452L17.6625 20.1952H23.5C24.875 20.1952 26 21.3202 26 22.6952V26.4452H17.6625ZM9.3375 16.4452H3.5C2.125 16.4452 1 17.5702 1 18.9452V26.4452H9.3375V16.4452ZM14.15 1.53284L14.8125 2.85782C14.9 3.04532 15.1375 3.22032 15.3375 3.24532L16.5375 3.44534C17.3 3.57034 17.4875 4.13281 16.9375 4.67031L16 5.60781C15.8375 5.77031 15.75 6.07032 15.8 6.28282L16.0625 7.43283C16.275 8.34533 15.7875 8.69534 14.9875 8.22034L13.8625 7.55783C13.6625 7.43283 13.325 7.43283 13.125 7.55783L12 8.22034C11.2 8.69534 10.7125 8.34533 10.925 7.43283L11.1875 6.28282C11.2375 6.07032 11.15 5.75781 10.9875 5.60781L10.0625 4.68282C9.51249 4.13282 9.68749 3.58281 10.4625 3.45781L11.6625 3.25783C11.8625 3.22033 12.1 3.04533 12.1875 2.87033L12.85 1.54531C13.2125 0.82031 13.7875 0.820335 14.15 1.53284Z" stroke="#292D32" stroke-width="2" stroke-linecap="round" stroke-linejoin="round"/>
</svg>
