<svg width="46" height="43" viewBox="0 0 46 43" fill="none" xmlns="http://www.w3.org/2000/svg">
<path d="M32.8151 16.7771L25.1373 4.42167C24.9278 4.08113 24.6254 3.79795 24.2604 3.60073C23.8955 3.4035 23.4811 3.2992 23.0589 3.29835C22.6367 3.29749 22.2218 3.40012 21.8559 3.59588C21.4901 3.79163 21.1863 4.07358 20.9752 4.41328L16.2524 12.2155M32.8151 16.7771L34.4418 11.1363M32.8151 16.7771L27.0772 15.8021M25.2808 36.0766L40.661 36.0514C41.0788 36.0535 41.4897 35.9533 41.8526 35.7609C42.2154 35.5685 42.5173 35.2907 42.7277 34.9554C42.9382 34.6201 43.0499 34.2392 43.0516 33.8511C43.0533 33.4629 42.9448 33.0812 42.7372 32.7444L38.2743 25.769M25.2808 36.0766L29.719 40.2044M25.2808 36.0766L29.0757 31.943M10.8569 20.5454L3.15435 32.9261C2.94403 33.265 2.83338 33.6493 2.8335 34.0405C2.83362 34.4317 2.94451 34.816 3.15503 35.1548C3.36556 35.4936 3.66831 35.775 4.0329 35.9706C4.39748 36.1663 4.81106 36.2695 5.23212 36.2697L14.8815 36.1478M10.8569 20.5454L4.7919 22.0584M10.8569 20.5454L12.819 25.6438" stroke="#399226" stroke-width="5" stroke-linecap="round" stroke-linejoin="round"/>
</svg>
