<svg width="259" height="159" viewBox="0 0 259 159" fill="none" xmlns="http://www.w3.org/2000/svg">
<path fill-rule="evenodd" clip-rule="evenodd" d="M124.416 129.619C124.174 141.614 114.539 151.163 102.841 150.999C91.144 150.834 81.7678 141.019 81.8467 129.02C81.9256 117.022 91.43 107.337 103.128 107.335C108.833 107.394 114.281 109.775 118.272 113.954C122.265 118.133 124.475 123.768 124.416 129.619Z" stroke="#DB3030" stroke-width="15.3753" stroke-linecap="round" stroke-linejoin="round"/>
<path fill-rule="evenodd" clip-rule="evenodd" d="M225.805 129.619C225.563 141.614 215.928 151.163 204.23 150.999C192.533 150.834 183.157 141.019 183.236 129.02C183.315 117.022 192.819 107.337 204.517 107.335C210.222 107.394 215.67 109.775 219.661 113.954C223.653 118.133 225.863 123.768 225.805 129.619Z" stroke="#DB3030" stroke-width="15.3753" stroke-linecap="round" stroke-linejoin="round"/>
<path d="M182.373 138.559C186.657 138.559 190.131 135.085 190.131 130.801C190.131 126.516 186.657 123.043 182.373 123.043V138.559ZM125.55 123.043C121.265 123.043 117.791 126.516 117.791 130.801C117.791 135.085 121.265 138.559 125.55 138.559V123.043ZM174.655 130.801C174.655 135.085 178.127 138.559 182.413 138.559C186.697 138.559 190.171 135.085 190.171 130.801H174.655ZM190.171 76.3177C190.171 72.0331 186.697 68.5595 182.413 68.5595C178.127 68.5595 174.655 72.0331 174.655 76.3177H190.171ZM182.413 123.043C178.127 123.043 174.655 126.516 174.655 130.801C174.655 135.085 178.127 138.559 182.413 138.559V123.043ZM184.944 138.559C189.229 138.559 192.702 135.085 192.702 130.801C192.702 126.516 189.229 123.043 184.944 123.043V138.559ZM227.74 123.045C223.457 123.138 220.06 126.685 220.153 130.969C220.245 135.253 223.793 138.65 228.077 138.557L227.74 123.045ZM250.612 106.585L258.369 106.448C258.361 106.048 258.323 105.65 258.255 105.256L250.612 106.585ZM252.991 74.9884C252.256 70.7669 248.239 67.9399 244.017 68.6743C239.796 69.4087 236.969 73.4254 237.703 77.6469L252.991 74.9884ZM182.372 20.1277C178.087 20.1277 174.613 23.6012 174.613 27.8859C174.613 32.1706 178.087 35.6441 182.372 35.6441V20.1277ZM218.388 27.8859V35.6443L218.438 35.6439L218.388 27.8859ZM241.131 52.1018L233.38 51.7711C233.356 52.3272 233.392 52.8841 233.488 53.4324L241.131 52.1018ZM237.703 77.6469C238.437 81.8684 242.456 84.6955 246.678 83.961C250.899 83.2256 253.726 79.2089 252.991 74.9884L237.703 77.6469ZM190.13 27.8859C190.13 23.6012 186.657 20.1277 182.372 20.1277C178.087 20.1277 174.613 23.6012 174.613 27.8859H190.13ZM174.613 76.3177C174.613 80.6023 178.087 84.0759 182.372 84.0759C186.657 84.0759 190.13 80.6023 190.13 76.3177H174.613ZM174.613 27.8859C174.613 32.1706 178.087 35.6441 182.372 35.6441C186.657 35.6441 190.13 32.1706 190.13 27.8859H174.613ZM182.372 19.6105L174.613 19.5608V19.6105H182.372ZM171.64 8.46972L171.685 0.711529H171.64V8.46972ZM74.97 8.46972V0.711426L74.9329 0.711633L74.97 8.46972ZM64.2288 19.5898H71.9871L71.9869 19.5544L64.2288 19.5898ZM64.2288 119.67L71.987 119.706V119.67H64.2288ZM74.97 130.791L74.9329 138.549H74.97V130.791ZM82.5443 138.549C86.829 138.549 90.3025 135.075 90.3025 130.791C90.3025 126.506 86.829 123.032 82.5443 123.032V138.549ZM182.392 68.5491C178.108 68.5491 174.634 72.0227 174.634 76.3073C174.634 80.5919 178.108 84.0655 182.392 84.0655V68.5491ZM245.367 84.0655C249.652 84.0655 253.125 80.5919 253.125 76.3073C253.125 72.0227 249.652 68.5491 245.367 68.5491V84.0655ZM8.55604 21.4C4.27131 21.4 0.797852 24.8735 0.797852 29.1582C0.797852 33.4429 4.27131 36.9164 8.55604 36.9164V21.4ZM40.1241 36.9164C44.4088 36.9164 47.8823 33.4429 47.8823 29.1582C47.8823 24.8735 44.4088 21.4 40.1241 21.4V36.9164ZM18.6417 52.4328C14.357 52.4328 10.8835 55.9063 10.8835 60.191C10.8835 64.4756 14.357 67.9492 18.6417 67.9492V52.4328ZM38.813 67.9492C43.0977 67.9492 46.5712 64.4756 46.5712 60.191C46.5712 55.9063 43.0977 52.4328 38.813 52.4328V67.9492ZM24.7939 83.4655C20.5092 83.4655 17.0357 86.9391 17.0357 91.2237C17.0357 95.5083 20.5092 98.9819 24.7939 98.9819V83.4655ZM38.813 98.9819C43.0977 98.9819 46.5712 95.5083 46.5712 91.2237C46.5712 86.9391 43.0977 83.4655 38.813 83.4655V98.9819ZM182.373 123.043H125.55V138.559H182.373V123.043ZM190.171 130.801V76.3177H174.655V130.801H190.171ZM182.413 138.559H184.944V123.043H182.413V138.559ZM228.077 138.557C245.311 138.184 258.671 123.644 258.369 106.448L242.854 106.721C243.014 115.744 236.066 122.864 227.74 123.045L228.077 138.557ZM258.255 105.256L252.991 74.9884L237.703 77.6469L242.968 107.914L258.255 105.256ZM182.372 35.6441L218.388 35.6443V20.1277H182.372V35.6441ZM218.438 35.6439C222.442 35.618 226.325 37.2754 229.168 40.3022L240.478 29.6798C234.724 23.5527 226.726 20.0736 218.337 20.1279L218.438 35.6439ZM229.168 40.3022C232.018 43.3366 233.563 47.48 233.38 51.7711L248.882 52.4325C249.241 44.0258 246.226 35.7992 240.478 29.6798L229.168 40.3022ZM233.488 53.4324L237.703 77.6469L252.991 74.9884L248.774 50.7712L233.488 53.4324ZM174.613 27.8859V76.3177H190.13V27.8859H174.613ZM190.13 27.8859V19.6105H174.613V27.8859H190.13ZM190.13 19.6601C190.162 14.7264 188.282 9.9447 184.845 6.37687L173.67 17.1412C174.259 17.7527 174.619 18.6198 174.613 19.5608L190.13 19.6601ZM184.845 6.37687C181.402 2.80231 176.673 0.740079 171.685 0.711529L171.597 16.2278C172.338 16.232 173.088 16.5366 173.67 17.1412L184.845 6.37687ZM171.64 0.711529L74.97 0.711426V16.2279H171.64V0.711529ZM74.9329 0.711633C69.949 0.735425 65.2198 2.79052 61.7738 6.35814L72.934 17.1381C73.5168 16.5348 74.2669 16.2313 75.0071 16.2278L74.9329 0.711633ZM61.7738 6.35814C58.3342 9.91895 56.4482 14.6946 56.4707 19.6253L71.9869 19.5544C71.9826 18.6139 72.3448 17.7481 72.934 17.1381L61.7738 6.35814ZM56.4706 19.5898V119.67H71.987L71.9871 19.5898H56.4706ZM56.4707 119.635C56.4482 124.565 58.3342 129.341 61.7738 132.902L72.934 122.122C72.3448 121.512 71.9827 120.646 71.987 119.706L56.4707 119.635ZM61.7738 132.902C65.2198 136.469 69.949 138.525 74.9329 138.549L75.0071 123.032C74.2669 123.029 73.5167 122.725 72.934 122.122L61.7738 132.902ZM74.97 138.549H82.5443V123.032H74.97V138.549ZM182.392 84.0655H245.367V68.5491H182.392V84.0655ZM8.55604 36.9164H40.1241V21.4H8.55604V36.9164ZM18.6417 67.9492H38.813V52.4328H18.6417V67.9492ZM24.7939 98.9819H38.813V83.4655H24.7939V98.9819Z" fill="#DB3030"/>
</svg>
