<svg width="57" height="36" viewBox="0 0 57 36" fill="none" xmlns="http://www.w3.org/2000/svg">
<path fill-rule="evenodd" clip-rule="evenodd" d="M27.4608 28.7657C27.4082 31.3764 25.3113 33.4543 22.7655 33.4186C20.2198 33.3827 18.1792 31.2468 18.1964 28.6354C18.2136 26.0243 20.282 23.9165 22.828 23.916C24.0694 23.929 25.2551 24.4472 26.1237 25.3566C26.9926 26.2661 27.4736 27.4924 27.4608 28.7657Z" stroke="#DB3030" stroke-width="3.34615" stroke-linecap="round" stroke-linejoin="round"/>
<path fill-rule="evenodd" clip-rule="evenodd" d="M49.5262 28.7657C49.4736 31.3764 47.3766 33.4543 44.8309 33.4186C42.2851 33.3827 40.2446 31.2468 40.2618 28.6354C40.279 26.0243 42.3474 23.9165 44.8933 23.916C46.1348 23.929 47.3204 24.4472 48.1891 25.3566C49.058 26.2661 49.5389 27.4924 49.5262 28.7657Z" stroke="#DB3030" stroke-width="3.34615" stroke-linecap="round" stroke-linejoin="round"/>
<path d="M40.074 30.7115C41.0065 30.7115 41.7624 29.9556 41.7624 29.0231C41.7624 28.0907 41.0065 27.3347 40.074 27.3347V30.7115ZM27.7075 27.3347C26.7751 27.3347 26.0191 28.0907 26.0191 29.0231C26.0191 29.9556 26.7751 30.7115 27.7075 30.7115V27.3347ZM38.3944 29.0231C38.3944 29.9556 39.1501 30.7115 40.0828 30.7115C41.0153 30.7115 41.7712 29.9556 41.7712 29.0231H38.3944ZM41.7712 17.1659C41.7712 16.2334 41.0153 15.4774 40.0828 15.4774C39.1501 15.4774 38.3944 16.2334 38.3944 17.1659H41.7712ZM40.0828 27.3347C39.1501 27.3347 38.3944 28.0907 38.3944 29.0231C38.3944 29.9556 39.1501 30.7115 40.0828 30.7115V27.3347ZM40.6337 30.7115C41.5661 30.7115 42.3221 29.9556 42.3221 29.0231C42.3221 28.0907 41.5661 27.3347 40.6337 27.3347V30.7115ZM49.9475 27.3351C49.0153 27.3554 48.276 28.1274 48.2962 29.0598C48.3162 29.9921 49.0884 30.7314 50.0207 30.7111L49.9475 27.3351ZM54.925 23.753L56.6132 23.7233C56.6116 23.6361 56.6033 23.5495 56.5884 23.4637L54.925 23.753ZM55.4428 16.8766C55.2829 15.9578 54.4085 15.3426 53.4898 15.5024C52.5711 15.6623 51.956 16.5364 52.1157 17.4551L55.4428 16.8766ZM40.0738 4.93714C39.1413 4.93714 38.3854 5.69308 38.3854 6.62557C38.3854 7.55805 39.1413 8.314 40.0738 8.314V4.93714ZM47.9122 6.62557V8.31404L47.923 8.31395L47.9122 6.62557ZM52.8617 11.8957L51.1749 11.8237C51.1697 11.9448 51.1776 12.066 51.1983 12.1853L52.8617 11.8957ZM52.1157 17.4551C52.2755 18.3739 53.1501 18.9891 54.0688 18.8293C54.9876 18.6692 55.6028 17.7951 55.4428 16.8766L52.1157 17.4551ZM41.7622 6.62557C41.7622 5.69308 41.0065 4.93714 40.0738 4.93714C39.1413 4.93714 38.3854 5.69308 38.3854 6.62557H41.7622ZM38.3854 17.1659C38.3854 18.0983 39.1413 18.8543 40.0738 18.8543C41.0065 18.8543 41.7622 18.0983 41.7622 17.1659H38.3854ZM38.3854 6.62557C38.3854 7.55805 39.1413 8.314 40.0738 8.314C41.0065 8.314 41.7622 7.55805 41.7622 6.62557H38.3854ZM40.0738 4.82458L38.3854 4.81377V4.82458H40.0738ZM37.7384 2.4L37.748 0.71157H37.7384V2.4ZM16.6998 2.4V0.711548L16.6918 0.711593L16.6998 2.4ZM14.3622 4.82008H16.0506L16.0506 4.81238L14.3622 4.82008ZM14.3622 26.6008L16.0506 26.6084V26.6008H14.3622ZM16.6998 29.0209L16.6918 30.7093H16.6998V29.0209ZM18.3482 30.7093C19.2807 30.7093 20.0367 29.9533 20.0367 29.0209C20.0367 28.0884 19.2807 27.3324 18.3482 27.3324V30.7093ZM40.0783 15.4752C39.1458 15.4752 38.3899 16.2311 38.3899 17.1636C38.3899 18.0961 39.1458 18.852 40.0783 18.852V15.4752ZM53.7836 18.852C54.7161 18.852 55.472 18.0961 55.472 17.1636C55.472 16.2311 54.7161 15.4752 53.7836 15.4752V18.852ZM2.24604 5.21404C1.31355 5.21404 0.557617 5.96999 0.557617 6.90247C0.557617 7.83496 1.31355 8.5909 2.24604 8.5909V5.21404ZM9.11626 8.5909C10.0487 8.5909 10.8047 7.83496 10.8047 6.90247C10.8047 5.96999 10.0487 5.21404 9.11626 5.21404V8.5909ZM4.441 11.9678C3.50852 11.9678 2.75257 12.7237 2.75257 13.6562C2.75257 14.5886 3.50852 15.3446 4.441 15.3446V11.9678ZM8.83091 15.3446C9.7634 15.3446 10.5193 14.5886 10.5193 13.6562C10.5193 12.7237 9.7634 11.9678 8.83091 11.9678V15.3446ZM5.77992 18.7215C4.84744 18.7215 4.0915 19.4774 4.0915 20.4099C4.0915 21.3424 4.84744 22.0983 5.77992 22.0983V18.7215ZM8.83091 22.0983C9.7634 22.0983 10.5193 21.3424 10.5193 20.4099C10.5193 19.4774 9.7634 18.7215 8.83091 18.7215V22.0983ZM40.074 27.3347H27.7075V30.7115H40.074V27.3347ZM41.7712 29.0231V17.1659H38.3944V29.0231H41.7712ZM40.0828 30.7115H40.6337V27.3347H40.0828V30.7115ZM50.0207 30.7111C53.7714 30.6298 56.6789 27.4655 56.6132 23.7233L53.2368 23.7827C53.2714 25.7462 51.7595 27.2957 49.9475 27.3351L50.0207 30.7111ZM56.5884 23.4637L55.4428 16.8766L52.1157 17.4551L53.2615 24.0423L56.5884 23.4637ZM40.0738 8.314L47.9122 8.31404V4.93714H40.0738V8.314ZM47.923 8.31395C48.7944 8.30832 49.6395 8.66902 50.2582 9.32775L52.7197 7.01598C51.4673 5.68253 49.7266 4.92537 47.9011 4.93719L47.923 8.31395ZM50.2582 9.32775C50.8784 9.98813 51.2147 10.8899 51.1749 11.8237L54.5486 11.9677C54.6267 10.1381 53.9705 8.34776 52.7197 7.01598L50.2582 9.32775ZM51.1983 12.1853L52.1157 17.4551L55.4428 16.8766L54.5252 11.6061L51.1983 12.1853ZM38.3854 6.62557V17.1659H41.7622V6.62557H38.3854ZM41.7622 6.62557V4.82458H38.3854V6.62557H41.7622ZM41.7622 4.83539C41.7692 3.76166 41.3602 2.721 40.6121 1.94453L38.1801 4.28719C38.3082 4.42026 38.3865 4.60898 38.3854 4.81377L41.7622 4.83539ZM40.6121 1.94453C39.8629 1.16659 38.8336 0.717784 37.748 0.71157L37.7289 4.0884C37.8901 4.08933 38.0533 4.1556 38.1801 4.28719L40.6121 1.94453ZM37.7384 0.71157L16.6998 0.711548V4.08843H37.7384V0.71157ZM16.6918 0.711593C15.6071 0.716771 14.5779 1.16402 13.8279 1.94045L16.2567 4.28651C16.3836 4.15522 16.5468 4.08917 16.7079 4.0884L16.6918 0.711593ZM13.8279 1.94045C13.0794 2.7154 12.6689 3.75472 12.6738 4.8278L16.0506 4.81238C16.0497 4.6077 16.1285 4.41927 16.2567 4.28651L13.8279 1.94045ZM12.6738 4.82008V26.6008H16.0506L16.0506 4.82008H12.6738ZM12.6738 26.5931C12.6689 27.6661 13.0794 28.7055 13.8279 29.4804L16.2567 27.1343C16.1285 27.0015 16.0497 26.8131 16.0506 26.6084L12.6738 26.5931ZM13.8279 29.4804C14.5779 30.2568 15.6071 30.7041 16.6918 30.7093L16.7079 27.3324C16.5468 27.3318 16.3835 27.2656 16.2567 27.1343L13.8279 29.4804ZM16.6998 30.7093H18.3482V27.3324H16.6998V30.7093ZM40.0783 18.852H53.7836V15.4752H40.0783V18.852ZM2.24604 8.5909H9.11626V5.21404H2.24604V8.5909ZM4.441 15.3446H8.83091V11.9678H4.441V15.3446ZM5.77992 22.0983H8.83091V18.7215H5.77992V22.0983Z" fill="#DB3030"/>
</svg>
