<svg width="49" height="29" viewBox="0 0 49 29" fill="none" xmlns="http://www.w3.org/2000/svg">
<path d="M34.5468 25.9583C35.3507 25.9583 36.0024 25.3066 36.0024 24.5027C36.0024 23.6989 35.3507 23.0472 34.5468 23.0472V25.9583ZM23.8861 23.0472C23.0822 23.0472 22.4305 23.6989 22.4305 24.5027C22.4305 25.3066 23.0822 25.9583 23.8861 25.9583V23.0472ZM33.0989 24.5027C33.0989 25.3066 33.7503 25.9583 34.5544 25.9583C35.3582 25.9583 36.0099 25.3066 36.0099 24.5027H33.0989ZM36.0099 14.2809C36.0099 13.4771 35.3582 12.8254 34.5544 12.8254C33.7503 12.8254 33.0989 13.4771 33.0989 14.2809H36.0099ZM34.5544 23.0472C33.7503 23.0472 33.0989 23.6989 33.0989 24.5027C33.0989 25.3066 33.7503 25.9583 34.5544 25.9583V23.0472ZM35.0293 25.9583C35.8331 25.9583 36.4848 25.3066 36.4848 24.5027C36.4848 23.6989 35.8331 23.0472 35.0293 23.0472V25.9583ZM43.0584 23.0476C42.2548 23.065 41.6174 23.7305 41.6349 24.5344C41.6522 25.338 42.3179 25.9753 43.1215 25.9579L43.0584 23.0476ZM47.3494 19.9595L48.8047 19.9339C48.8034 19.8588 48.7962 19.7841 48.7834 19.7101L47.3494 19.9595ZM47.7957 14.0316C47.6579 13.2396 46.9042 12.7092 46.1122 12.8469C45.3202 12.9847 44.7899 13.7383 44.9275 14.5303L47.7957 14.0316ZM34.5466 3.73894C33.7428 3.73894 33.0911 4.39062 33.0911 5.19449C33.0911 5.99835 33.7428 6.65003 34.5466 6.65003V3.73894ZM41.3038 5.19449V6.65006L41.3131 6.64999L41.3038 5.19449ZM45.5707 9.73771L44.1165 9.67567C44.1121 9.78 44.1188 9.88449 44.1367 9.98735L45.5707 9.73771ZM44.9275 14.5303C45.0653 15.3223 45.8193 15.8527 46.6113 15.7149C47.4033 15.577 47.9337 14.8234 47.7957 14.0316L44.9275 14.5303ZM36.0022 5.19449C36.0022 4.39062 35.3507 3.73894 34.5466 3.73894C33.7428 3.73894 33.0911 4.39062 33.0911 5.19449H36.0022ZM33.0911 14.2809C33.0911 15.0848 33.7428 15.7365 34.5466 15.7365C35.3507 15.7365 36.0022 15.0848 36.0022 14.2809H33.0911ZM33.0911 5.19449C33.0911 5.99835 33.7428 6.65003 34.5466 6.65003C35.3507 6.65003 36.0022 5.99835 36.0022 5.19449H33.0911ZM34.5466 3.64191L33.0911 3.63259V3.64191H34.5466ZM32.5333 1.55175L32.5417 0.0962108H32.5333V1.55175ZM14.3966 1.55175V0.0961914L14.3897 0.0962303L14.3966 1.55175ZM12.3815 3.63803H13.837L13.837 3.63139L12.3815 3.63803ZM12.3815 22.4145L13.837 22.4211V22.4145H12.3815ZM14.3966 24.5008L14.3897 25.9563H14.3966V24.5008ZM15.8177 25.9563C16.6216 25.9563 17.2732 25.3046 17.2732 24.5008C17.2732 23.6969 16.6216 23.0452 15.8177 23.0452V25.9563ZM34.5505 12.8235C33.7467 12.8235 33.095 13.4752 33.095 14.279C33.095 15.0828 33.7467 15.7345 34.5505 15.7345V12.8235ZM46.3654 15.7345C47.1693 15.7345 47.821 15.0828 47.821 14.279C47.821 13.4752 47.1693 12.8235 46.3654 12.8235V15.7345ZM1.9365 3.97765C1.13262 3.97765 0.480957 4.62933 0.480957 5.43319C0.480957 6.23706 1.13262 6.88874 1.9365 6.88874V3.97765ZM7.85909 6.88874C8.66296 6.88874 9.31463 6.23706 9.31463 5.43319C9.31463 4.62933 8.66296 3.97765 7.85909 3.97765V6.88874ZM3.8287 9.79982C3.02483 9.79982 2.37316 10.4515 2.37316 11.2554C2.37316 12.0592 3.02483 12.7109 3.8287 12.7109V9.79982ZM7.61311 12.7109C8.41697 12.7109 9.06865 12.0592 9.06865 11.2554C9.06865 10.4515 8.41697 9.79982 7.61311 9.79982V12.7109ZM4.98294 15.622C4.17908 15.622 3.5274 16.2737 3.5274 17.0775C3.5274 17.8814 4.17908 18.5331 4.98294 18.5331V15.622ZM7.61311 18.5331C8.41697 18.5331 9.06865 17.8814 9.06865 17.0775C9.06865 16.2737 8.41697 15.622 7.61311 15.622V18.5331ZM34.5468 23.0472H23.8861V25.9583H34.5468V23.0472ZM36.0099 24.5027V14.2809H33.0989V24.5027H36.0099ZM34.5544 25.9583H35.0293V23.0472H34.5544V25.9583ZM43.1215 25.9579C46.3549 25.8878 48.8614 23.1599 48.8047 19.9339L45.894 19.9851C45.9239 21.6778 44.6205 23.0136 43.0584 23.0476L43.1215 25.9579ZM48.7834 19.7101L47.7957 14.0316L44.9275 14.5303L45.9154 20.2089L48.7834 19.7101ZM34.5466 6.65003L41.3038 6.65006V3.73894H34.5466V6.65003ZM41.3131 6.64999C42.0644 6.64514 42.7929 6.95608 43.3263 7.52395L45.4482 5.53104C44.3686 4.38152 42.8681 3.72879 41.2943 3.73898L41.3131 6.64999ZM43.3263 7.52395C43.8609 8.09324 44.1509 8.8706 44.1165 9.67567L47.0249 9.79976C47.0922 8.22256 46.5265 6.67914 45.4482 5.53104L43.3263 7.52395ZM44.1367 9.98735L44.9275 14.5303L47.7957 14.0316L47.0047 9.48808L44.1367 9.98735ZM33.0911 5.19449V14.2809H36.0022V5.19449H33.0911ZM36.0022 5.19449V3.64191H33.0911V5.19449H36.0022ZM36.0022 3.65122C36.0082 2.7256 35.6556 1.82848 35.0107 1.1591L32.9141 3.17864C33.0245 3.29336 33.0921 3.45605 33.0911 3.63259L36.0022 3.65122ZM35.0107 1.1591C34.3648 0.488469 33.4775 0.101567 32.5417 0.0962108L32.5252 3.00727C32.6641 3.00807 32.8048 3.0652 32.9141 3.17864L35.0107 1.1591ZM32.5333 0.0962108L14.3966 0.0961914V3.00729H32.5333V0.0962108ZM14.3897 0.0962303C13.4546 0.100694 12.5674 0.486257 11.9209 1.15559L14.0147 3.17806C14.124 3.06487 14.2647 3.00793 14.4036 3.00727L14.3897 0.0962303ZM11.9209 1.15559C11.2756 1.82365 10.9217 2.71962 10.9259 3.64468L13.837 3.63139C13.8362 3.45494 13.9041 3.2925 14.0147 3.17806L11.9209 1.15559ZM10.9259 3.63803V22.4145H13.837L13.837 3.63803H10.9259ZM10.9259 22.4079C10.9217 23.3329 11.2756 24.2289 11.9209 24.8969L14.0147 22.8745C13.9041 22.76 13.8362 22.5975 13.837 22.4211L10.9259 22.4079ZM11.9209 24.8969C12.5674 25.5662 13.4546 25.9519 14.3897 25.9563L14.4036 23.0452C14.2647 23.0447 14.124 22.9876 14.0147 22.8745L11.9209 24.8969ZM14.3966 25.9563H15.8177V23.0452H14.3966V25.9563ZM34.5505 15.7345H46.3654V12.8235H34.5505V15.7345ZM1.9365 6.88874H7.85909V3.97765H1.9365V6.88874ZM3.8287 12.7109H7.61311V9.79982H3.8287V12.7109ZM4.98294 18.5331H7.61311V15.622H4.98294V18.5331Z" fill="#3F463E"/>
<path fill-rule="evenodd" clip-rule="evenodd" d="M23.6732 24.2809C23.6278 26.5314 21.8201 28.3228 19.6255 28.292C17.4309 28.2611 15.6718 26.4197 15.6866 24.1686C15.7014 21.9176 17.4846 20.1005 19.6794 20.1001C20.7496 20.1113 21.7717 20.558 22.5205 21.342C23.2696 22.1261 23.6842 23.1832 23.6732 24.2809Z" fill="#3F463E"/>
<path fill-rule="evenodd" clip-rule="evenodd" d="M42.6951 24.2809C42.6497 26.5314 40.842 28.3228 38.6474 28.292C36.4528 28.2611 34.6937 26.4197 34.7085 24.1686C34.7234 21.9176 36.5064 20.1005 38.7012 20.1001C39.7714 20.1113 40.7936 20.558 41.5424 21.342C42.2914 22.1261 42.7061 23.1832 42.6951 24.2809Z" fill="#3F463E"/>
</svg>
