<svg width="485" height="333" viewBox="0 0 485 333" fill="none" xmlns="http://www.w3.org/2000/svg">
<path d="M0 0.097168H485V288.403H0V0.097168Z" fill="#DB3030"/>
<path d="M172.021 108.722L165.727 97.2977H163.959V108.722H156.587V78.4582H168.96C171.345 78.4582 173.372 78.8749 175.039 79.7084C176.734 80.5419 177.999 81.6915 178.832 83.1573C179.666 84.5943 180.083 86.2038 180.083 87.9857C180.083 89.9976 179.508 91.7939 178.358 93.3746C177.237 94.9554 175.57 96.0762 173.357 96.7373L180.341 108.722H172.021ZM163.959 92.0813H168.529C169.88 92.0813 170.886 91.7508 171.547 91.0897C172.236 90.4287 172.581 89.4946 172.581 88.2875C172.581 87.1379 172.236 86.2325 171.547 85.5715C170.886 84.9105 169.88 84.5799 168.529 84.5799H163.959V92.0813ZM207.387 96.3062C207.387 96.9959 207.344 97.7145 207.257 98.4617H190.573C190.688 99.9562 191.163 101.106 191.996 101.911C192.858 102.687 193.907 103.075 195.143 103.075C196.983 103.075 198.262 102.299 198.98 100.747H206.826C206.424 102.327 205.691 103.75 204.628 105.015C203.593 106.279 202.285 107.271 200.705 107.989C199.124 108.708 197.356 109.067 195.402 109.067C193.045 109.067 190.947 108.564 189.108 107.558C187.268 106.552 185.831 105.115 184.797 103.247C183.762 101.379 183.245 99.1946 183.245 96.6942C183.245 94.1937 183.748 92.0094 184.753 90.1413C185.788 88.2731 187.225 86.8361 189.065 85.8302C190.904 84.8242 193.016 84.3213 195.402 84.3213C197.73 84.3213 199.799 84.8099 201.61 85.7871C203.421 86.7642 204.829 88.1582 205.835 89.9688C206.869 91.7795 207.387 93.8919 207.387 96.3062ZM199.842 94.3662C199.842 93.1016 199.411 92.0956 198.549 91.3484C197.687 90.6011 196.609 90.2275 195.316 90.2275C194.08 90.2275 193.031 90.5868 192.169 91.3053C191.335 92.0238 190.818 93.0441 190.617 94.3662H199.842ZM221.062 109.067C218.964 109.067 217.096 108.708 215.458 107.989C213.819 107.271 212.526 106.294 211.578 105.058C210.629 103.793 210.098 102.385 209.983 100.833H217.268C217.355 101.666 217.743 102.342 218.432 102.859C219.122 103.376 219.97 103.635 220.976 103.635C221.896 103.635 222.6 103.463 223.088 103.118C223.606 102.744 223.864 102.27 223.864 101.695C223.864 101.005 223.505 100.502 222.787 100.186C222.068 99.8413 220.904 99.4676 219.295 99.0653C217.57 98.6629 216.133 98.2462 214.983 97.8151C213.834 97.3552 212.842 96.6511 212.009 95.7026C211.175 94.7254 210.759 93.4177 210.759 91.7795C210.759 90.3999 211.132 89.1497 211.879 88.0288C212.655 86.8792 213.776 85.9739 215.242 85.3128C216.737 84.6518 218.504 84.3213 220.545 84.3213C223.563 84.3213 225.934 85.0685 227.658 86.5631C229.411 88.0576 230.417 90.0407 230.676 92.5124H223.864C223.749 91.6789 223.376 91.0179 222.743 90.5293C222.14 90.0407 221.335 89.7964 220.329 89.7964C219.467 89.7964 218.806 89.9688 218.346 90.3137C217.886 90.6299 217.656 91.0754 217.656 91.6502C217.656 92.3399 218.016 92.8573 218.734 93.2022C219.481 93.5471 220.631 93.8919 222.183 94.2368C223.965 94.6967 225.416 95.1565 226.537 95.6164C227.658 96.0475 228.635 96.766 229.469 97.7719C230.331 98.7491 230.777 100.071 230.805 101.738C230.805 103.146 230.403 104.411 229.598 105.532C228.822 106.624 227.687 107.486 226.192 108.119C224.727 108.751 223.017 109.067 221.062 109.067ZM243.248 84.6662V108.722H235.876V84.6662H243.248ZM244.584 78.6737L234.195 83.0279V77.9408L244.584 72.9399V78.6737ZM247.701 96.6511C247.701 94.1794 248.161 92.0094 249.08 90.1413C250.029 88.2731 251.308 86.8361 252.917 85.8302C254.527 84.8242 256.323 84.3213 258.306 84.3213C259.887 84.3213 261.324 84.6518 262.617 85.3128C263.939 85.9739 264.974 86.8648 265.721 87.9857V76.8199H273.093V108.722H265.721V105.273C265.031 106.423 264.04 107.343 262.747 108.032C261.482 108.722 260.002 109.067 258.306 109.067C256.323 109.067 254.527 108.564 252.917 107.558C251.308 106.524 250.029 105.072 249.08 103.204C248.161 101.307 247.701 99.1228 247.701 96.6511ZM265.721 96.6942C265.721 94.8548 265.204 93.4034 264.169 92.3399C263.163 91.2765 261.927 90.7448 260.462 90.7448C258.996 90.7448 257.746 91.2765 256.711 92.3399C255.705 93.3746 255.202 94.8116 255.202 96.6511C255.202 98.4905 255.705 99.9562 256.711 101.048C257.746 102.112 258.996 102.644 260.462 102.644C261.927 102.644 263.163 102.112 264.169 101.048C265.204 99.985 265.721 98.5336 265.721 96.6942ZM302.181 84.6662V108.722H294.809V105.446C294.061 106.509 293.041 107.371 291.748 108.032C290.483 108.665 289.075 108.981 287.523 108.981C285.684 108.981 284.06 108.578 282.651 107.774C281.243 106.94 280.151 105.748 279.375 104.196C278.599 102.644 278.211 100.818 278.211 98.7204V84.6662H285.54V97.7288C285.54 99.3383 285.957 100.589 286.79 101.48C287.624 102.37 288.744 102.816 290.153 102.816C291.59 102.816 292.725 102.37 293.559 101.48C294.392 100.589 294.809 99.3383 294.809 97.7288V84.6662H302.181ZM318.426 109.067C316.069 109.067 313.943 108.564 312.046 107.558C310.178 106.552 308.697 105.115 307.605 103.247C306.542 101.379 306.01 99.1946 306.01 96.6942C306.01 94.2225 306.556 92.0525 307.648 90.1844C308.741 88.2875 310.235 86.8361 312.132 85.8302C314.029 84.8242 316.156 84.3213 318.512 84.3213C320.869 84.3213 322.996 84.8242 324.893 85.8302C326.79 86.8361 328.284 88.2875 329.376 90.1844C330.469 92.0525 331.015 94.2225 331.015 96.6942C331.015 99.1659 330.454 101.35 329.333 103.247C328.241 105.115 326.732 106.552 324.807 107.558C322.91 108.564 320.783 109.067 318.426 109.067ZM318.426 102.687C319.835 102.687 321.027 102.169 322.004 101.135C323.01 100.1 323.513 98.6198 323.513 96.6942C323.513 94.7685 323.025 93.2884 322.048 92.2537C321.099 91.2191 319.921 90.7017 318.512 90.7017C317.075 90.7017 315.883 91.2191 314.934 92.2537C313.986 93.2596 313.512 94.7398 313.512 96.6942C313.512 98.6198 313.971 100.1 314.891 101.135C315.84 102.169 317.018 102.687 318.426 102.687Z" fill="white"/>
<path d="M101.775 142.338V151.521H116.584V160.057H101.775V170.016H118.524V178.875H90.7169V133.479H118.524V142.338H101.775ZM140.382 179.392C137.235 179.392 134.433 178.853 131.975 177.776C129.518 176.698 127.578 175.232 126.155 173.378C124.733 171.481 123.935 169.369 123.763 167.041H134.691C134.821 168.291 135.403 169.304 136.437 170.08C137.472 170.856 138.744 171.244 140.253 171.244C141.632 171.244 142.688 170.986 143.421 170.468C144.197 169.908 144.585 169.197 144.585 168.334C144.585 167.3 144.046 166.545 142.969 166.071C141.891 165.554 140.145 164.993 137.731 164.39C135.144 163.786 132.988 163.161 131.264 162.514C129.539 161.825 128.052 160.768 126.802 159.346C125.552 157.88 124.927 155.918 124.927 153.461C124.927 151.392 125.487 149.516 126.608 147.835C127.772 146.111 129.453 144.753 131.652 143.761C133.894 142.769 136.545 142.274 139.606 142.274C144.133 142.274 147.689 143.395 150.276 145.636C152.906 147.878 154.415 150.853 154.803 154.56H144.585C144.413 153.31 143.852 152.319 142.904 151.586C141.999 150.853 140.791 150.486 139.283 150.486C137.989 150.486 136.998 150.745 136.308 151.262C135.618 151.737 135.273 152.405 135.273 153.267C135.273 154.302 135.812 155.078 136.89 155.595C138.011 156.112 139.735 156.63 142.063 157.147C144.736 157.837 146.913 158.527 148.595 159.216C150.276 159.863 151.742 160.941 152.992 162.45C154.285 163.915 154.953 165.899 154.997 168.399C154.997 170.511 154.393 172.408 153.186 174.09C152.022 175.728 150.319 177.021 148.077 177.97C145.879 178.918 143.313 179.392 140.382 179.392ZM172.82 147.9C173.898 146.218 175.385 144.86 177.282 143.826C179.179 142.791 181.399 142.274 183.942 142.274C186.917 142.274 189.612 143.028 192.026 144.537C194.44 146.046 196.337 148.201 197.716 151.004C199.139 153.806 199.85 157.061 199.85 160.768C199.85 164.476 199.139 167.752 197.716 170.598C196.337 173.4 194.44 175.577 192.026 177.129C189.612 178.638 186.917 179.392 183.942 179.392C181.442 179.392 179.222 178.875 177.282 177.84C175.385 176.806 173.898 175.469 172.82 173.831V196.076H161.762V142.791H172.82V147.9ZM188.598 160.768C188.598 158.009 187.822 155.854 186.27 154.302C184.762 152.707 182.886 151.909 180.644 151.909C178.446 151.909 176.57 152.707 175.018 154.302C173.51 155.897 172.755 158.074 172.755 160.833C172.755 163.592 173.51 165.769 175.018 167.364C176.57 168.959 178.446 169.757 180.644 169.757C182.843 169.757 184.718 168.959 186.27 167.364C187.822 165.726 188.598 163.527 188.598 160.768ZM239.666 160.251C239.666 161.286 239.602 162.363 239.472 163.484H214.446C214.619 165.726 215.33 167.451 216.58 168.658C217.874 169.822 219.447 170.404 221.301 170.404C224.06 170.404 225.979 169.24 227.056 166.912H238.826C238.222 169.283 237.123 171.417 235.528 173.314C233.976 175.211 232.014 176.698 229.643 177.776C227.272 178.853 224.621 179.392 221.689 179.392C218.154 179.392 215.007 178.638 212.248 177.129C209.489 175.62 207.333 173.465 205.781 170.662C204.229 167.86 203.453 164.584 203.453 160.833C203.453 157.082 204.208 153.806 205.716 151.004C207.268 148.201 209.424 146.046 212.183 144.537C214.942 143.028 218.111 142.274 221.689 142.274C225.181 142.274 228.285 143.007 231.001 144.472C233.717 145.938 235.83 148.029 237.338 150.745C238.89 153.461 239.666 156.63 239.666 160.251ZM228.35 157.341C228.35 155.444 227.703 153.935 226.41 152.814C225.116 151.693 223.5 151.133 221.56 151.133C219.706 151.133 218.132 151.672 216.839 152.75C215.589 153.827 214.813 155.358 214.511 157.341H228.35ZM243.301 160.833C243.301 157.082 244.056 153.806 245.565 151.004C247.117 148.201 249.251 146.046 251.967 144.537C254.726 143.028 257.873 142.274 261.408 142.274C265.935 142.274 269.707 143.459 272.725 145.83C275.786 148.201 277.79 151.543 278.739 155.854H266.969C265.978 153.095 264.059 151.715 261.214 151.715C259.188 151.715 257.571 152.513 256.364 154.108C255.157 155.66 254.553 157.901 254.553 160.833C254.553 163.765 255.157 166.028 256.364 167.623C257.571 169.175 259.188 169.951 261.214 169.951C264.059 169.951 265.978 168.571 266.969 165.812H278.739C277.79 170.037 275.786 173.357 272.725 175.771C269.664 178.185 265.892 179.392 261.408 179.392C257.873 179.392 254.726 178.638 251.967 177.129C249.251 175.62 247.117 173.465 245.565 170.662C244.056 167.86 243.301 164.584 243.301 160.833ZM290.215 139.04C288.275 139.04 286.68 138.48 285.43 137.359C284.223 136.195 283.619 134.772 283.619 133.091C283.619 131.367 284.223 129.944 285.43 128.823C286.68 127.659 288.275 127.077 290.215 127.077C292.112 127.077 293.664 127.659 294.871 128.823C296.121 129.944 296.746 131.367 296.746 133.091C296.746 134.772 296.121 136.195 294.871 137.359C293.664 138.48 292.112 139.04 290.215 139.04ZM295.712 142.791V178.875H284.654V142.791H295.712ZM301.527 160.768C301.527 157.061 302.216 153.806 303.596 151.004C305.019 148.201 306.937 146.046 309.351 144.537C311.766 143.028 314.46 142.274 317.435 142.274C319.978 142.274 322.198 142.791 324.095 143.826C326.035 144.86 327.523 146.218 328.557 147.9V142.791H339.615V178.875H328.557V173.766C327.48 175.448 325.971 176.806 324.031 177.84C322.134 178.875 319.914 179.392 317.37 179.392C314.438 179.392 311.766 178.638 309.351 177.129C306.937 175.577 305.019 173.4 303.596 170.598C302.216 167.752 301.527 164.476 301.527 160.768ZM328.557 160.833C328.557 158.074 327.781 155.897 326.229 154.302C324.72 152.707 322.867 151.909 320.668 151.909C318.469 151.909 316.594 152.707 315.042 154.302C313.533 155.854 312.779 158.009 312.779 160.768C312.779 163.527 313.533 165.726 315.042 167.364C316.594 168.959 318.469 169.757 320.668 169.757C322.867 169.757 324.72 168.959 326.229 167.364C327.781 165.769 328.557 163.592 328.557 160.833ZM353.177 139.04C351.237 139.04 349.642 138.48 348.391 137.359C347.184 136.195 346.581 134.772 346.581 133.091C346.581 131.367 347.184 129.944 348.391 128.823C349.642 127.659 351.237 127.077 353.177 127.077C355.074 127.077 356.626 127.659 357.833 128.823C359.083 129.944 359.708 131.367 359.708 133.091C359.708 134.772 359.083 136.195 357.833 137.359C356.626 138.48 355.074 139.04 353.177 139.04ZM358.673 142.791V178.875H347.615V142.791H358.673ZM381.366 179.392C378.219 179.392 375.417 178.853 372.96 177.776C370.502 176.698 368.562 175.232 367.14 173.378C365.717 171.481 364.919 169.369 364.747 167.041H375.676C375.805 168.291 376.387 169.304 377.422 170.08C378.456 170.856 379.728 171.244 381.237 171.244C382.616 171.244 383.673 170.986 384.406 170.468C385.182 169.908 385.57 169.197 385.57 168.334C385.57 167.3 385.031 166.545 383.953 166.071C382.875 165.554 381.129 164.993 378.715 164.39C376.128 163.786 373.973 163.161 372.248 162.514C370.524 161.825 369.036 160.768 367.786 159.346C366.536 157.88 365.911 155.918 365.911 153.461C365.911 151.392 366.471 149.516 367.592 147.835C368.756 146.111 370.438 144.753 372.636 143.761C374.878 142.769 377.529 142.274 380.59 142.274C385.117 142.274 388.674 143.395 391.26 145.636C393.89 147.878 395.399 150.853 395.787 154.56H385.57C385.397 153.31 384.837 152.319 383.888 151.586C382.983 150.853 381.776 150.486 380.267 150.486C378.974 150.486 377.982 150.745 377.292 151.262C376.602 151.737 376.258 152.405 376.258 153.267C376.258 154.302 376.796 155.078 377.874 155.595C378.995 156.112 380.72 156.63 383.048 157.147C385.72 157.837 387.898 158.527 389.579 159.216C391.26 159.863 392.726 160.941 393.976 162.45C395.27 163.915 395.938 165.899 395.981 168.399C395.981 170.511 395.377 172.408 394.17 174.09C393.006 175.728 391.303 177.021 389.062 177.97C386.863 178.918 384.298 179.392 381.366 179.392Z" fill="white"/>
<g filter="url(#filter0_d_1461_20)">
<circle cx="242.5" cy="260.111" r="53.8889" fill="#F1F1F1"/>
</g>
<path d="M234.719 259.438L250.189 273.509M250.189 259.438L234.719 273.509M265.659 238.331L262.561 280.589C262.29 284.29 262.155 286.141 261.276 287.544C260.502 288.78 259.335 289.773 257.928 290.393C256.331 291.097 254.291 291.097 250.213 291.097H234.695C230.616 291.097 228.577 291.097 226.979 290.393C225.573 289.773 224.406 288.78 223.632 287.544C222.753 286.141 222.617 284.29 222.346 280.589L219.249 238.331M211.514 238.331H273.394M257.924 238.331L256.877 235.475C255.863 232.707 255.356 231.323 254.415 230.3C253.584 229.396 252.518 228.697 251.312 228.266C249.948 227.778 248.344 227.778 245.136 227.778H239.771C236.564 227.778 234.96 227.778 233.595 228.266C232.39 228.697 231.323 229.396 230.493 230.3C229.552 231.323 229.045 232.707 228.03 235.475L226.984 238.331" stroke="#DB3030" stroke-width="6.73611" stroke-linecap="round" stroke-linejoin="round"/>
<defs>
<filter id="filter0_d_1461_20" x="175.139" y="198.139" width="134.722" height="134.722" filterUnits="userSpaceOnUse" color-interpolation-filters="sRGB">
<feFlood flood-opacity="0" result="BackgroundImageFix"/>
<feColorMatrix in="SourceAlpha" type="matrix" values="0 0 0 0 0 0 0 0 0 0 0 0 0 0 0 0 0 0 127 0" result="hardAlpha"/>
<feOffset dy="5.38889"/>
<feGaussianBlur stdDeviation="6.73611"/>
<feComposite in2="hardAlpha" operator="out"/>
<feColorMatrix type="matrix" values="0 0 0 0 0 0 0 0 0 0 0 0 0 0 0 0 0 0 0.25 0"/>
<feBlend mode="normal" in2="BackgroundImageFix" result="effect1_dropShadow_1461_20"/>
<feBlend mode="normal" in="SourceGraphic" in2="effect1_dropShadow_1461_20" result="shape"/>
</filter>
</defs>
</svg>
