<svg width="878" height="603" viewBox="0 0 878 603" fill="none" xmlns="http://www.w3.org/2000/svg">
<path d="M0 0H878V521.922H0V0Z" fill="url(#paint0_linear_1463_28)"/>
<path d="M310.888 195.75L299.493 175.068H296.294V195.75H282.948V140.963H305.347C309.665 140.963 313.333 141.717 316.351 143.226C319.421 144.735 321.71 146.816 323.219 149.47C324.728 152.071 325.482 154.985 325.482 158.211C325.482 161.853 324.442 165.105 322.36 167.966C320.331 170.828 317.314 172.857 313.307 174.054L325.95 195.75H310.888ZM296.294 165.625H304.566C307.012 165.625 308.833 165.027 310.029 163.83C311.278 162.633 311.902 160.942 311.902 158.757C311.902 156.676 311.278 155.037 310.029 153.84C308.833 152.643 307.012 152.045 304.566 152.045H296.294V165.625ZM374.911 173.273C374.911 174.522 374.833 175.823 374.677 177.175H344.474C344.682 179.881 345.54 181.962 347.049 183.419C348.61 184.824 350.509 185.526 352.747 185.526C356.076 185.526 358.392 184.121 359.693 181.312H373.897C373.168 184.173 371.841 186.749 369.916 189.038C368.043 191.327 365.676 193.123 362.814 194.423C359.953 195.724 356.753 196.374 353.215 196.374C348.948 196.374 345.15 195.464 341.82 193.643C338.49 191.822 335.889 189.22 334.016 185.838C332.143 182.456 331.206 178.502 331.206 173.976C331.206 169.449 332.117 165.495 333.938 162.113C335.811 158.731 338.412 156.129 341.742 154.308C345.072 152.487 348.896 151.577 353.215 151.577C357.429 151.577 361.175 152.461 364.453 154.23C367.731 155.999 370.281 158.523 372.102 161.801C373.975 165.079 374.911 168.903 374.911 173.273ZM361.253 169.761C361.253 167.472 360.473 165.651 358.912 164.298C357.351 162.945 355.4 162.269 353.059 162.269C350.821 162.269 348.922 162.919 347.361 164.22C345.853 165.521 344.916 167.368 344.552 169.761H361.253ZM399.668 196.374C395.87 196.374 392.488 195.724 389.522 194.423C386.556 193.123 384.215 191.353 382.498 189.116C380.781 186.827 379.818 184.277 379.61 181.468H392.8C392.956 182.977 393.658 184.199 394.907 185.136C396.156 186.072 397.691 186.541 399.512 186.541C401.177 186.541 402.451 186.229 403.336 185.604C404.272 184.928 404.741 184.069 404.741 183.029C404.741 181.78 404.09 180.87 402.79 180.297C401.489 179.673 399.382 178.996 396.468 178.268C393.346 177.54 390.745 176.785 388.663 176.005C386.582 175.172 384.787 173.898 383.278 172.181C381.77 170.412 381.015 168.044 381.015 165.079C381.015 162.581 381.691 160.318 383.044 158.289C384.449 156.207 386.478 154.569 389.132 153.372C391.837 152.175 395.037 151.577 398.731 151.577C404.194 151.577 408.487 152.93 411.609 155.635C414.782 158.341 416.603 161.931 417.072 166.405H404.741C404.533 164.896 403.856 163.7 402.711 162.815C401.619 161.931 400.162 161.488 398.341 161.488C396.78 161.488 395.583 161.801 394.751 162.425C393.918 162.997 393.502 163.804 393.502 164.844C393.502 166.093 394.153 167.03 395.453 167.654C396.806 168.278 398.887 168.903 401.697 169.527C404.923 170.36 407.55 171.192 409.579 172.024C411.609 172.805 413.378 174.106 414.886 175.927C416.447 177.696 417.254 180.089 417.306 183.107C417.306 185.656 416.577 187.946 415.121 189.975C413.716 191.952 411.661 193.513 408.955 194.657C406.302 195.802 403.206 196.374 399.668 196.374ZM439.831 152.201V195.75H426.485V152.201H439.831ZM442.25 141.353L423.441 149.236V140.026L442.25 130.973V141.353ZM447.892 173.898C447.892 169.423 448.724 165.495 450.389 162.113C452.106 158.731 454.422 156.129 457.335 154.308C460.249 152.487 463.501 151.577 467.091 151.577C469.952 151.577 472.554 152.175 474.895 153.372C477.289 154.569 479.162 156.181 480.514 158.211V137.997H493.86V195.75H480.514V189.506C479.266 191.588 477.471 193.253 475.129 194.501C472.84 195.75 470.161 196.374 467.091 196.374C463.501 196.374 460.249 195.464 457.335 193.643C454.422 191.77 452.106 189.142 450.389 185.76C448.724 182.326 447.892 178.372 447.892 173.898ZM480.514 173.976C480.514 170.646 479.578 168.018 477.705 166.093C475.884 164.168 473.647 163.205 470.993 163.205C468.34 163.205 466.076 164.168 464.203 166.093C462.382 167.966 461.472 170.568 461.472 173.898C461.472 177.227 462.382 179.881 464.203 181.858C466.076 183.783 468.34 184.746 470.993 184.746C473.647 184.746 475.884 183.783 477.705 181.858C479.578 179.933 480.514 177.305 480.514 173.976ZM546.518 152.201V195.75H533.172V189.819C531.819 191.744 529.972 193.305 527.631 194.501C525.341 195.646 522.792 196.218 519.982 196.218C516.652 196.218 513.713 195.49 511.163 194.033C508.614 192.524 506.637 190.365 505.232 187.555C503.827 184.746 503.125 181.442 503.125 177.644V152.201H516.392V175.849C516.392 178.762 517.147 181.026 518.656 182.639C520.164 184.251 522.194 185.058 524.743 185.058C527.345 185.058 529.4 184.251 530.909 182.639C532.417 181.026 533.172 178.762 533.172 175.849V152.201H546.518ZM575.927 196.374C571.66 196.374 567.81 195.464 564.376 193.643C560.994 191.822 558.315 189.22 556.338 185.838C554.413 182.456 553.45 178.502 553.45 173.976C553.45 169.501 554.439 165.573 556.416 162.191C558.393 158.757 561.098 156.129 564.532 154.308C567.966 152.487 571.817 151.577 576.083 151.577C580.349 151.577 584.2 152.487 587.634 154.308C591.068 156.129 593.773 158.757 595.75 162.191C597.727 165.573 598.716 169.501 598.716 173.976C598.716 178.45 597.701 182.404 595.672 185.838C593.695 189.22 590.963 191.822 587.477 193.643C584.044 195.464 580.193 196.374 575.927 196.374ZM575.927 184.824C578.476 184.824 580.636 183.887 582.405 182.014C584.226 180.141 585.136 177.462 585.136 173.976C585.136 170.49 584.252 167.81 582.483 165.937C580.766 164.064 578.632 163.127 576.083 163.127C573.481 163.127 571.322 164.064 569.605 165.937C567.888 167.758 567.03 170.438 567.03 173.976C567.03 177.462 567.862 180.141 569.527 182.014C571.244 183.887 573.377 184.824 575.927 184.824Z" fill="white"/>
<path d="M178.571 324.111L161.48 293.088H156.68V324.111H136.662V241.93H170.26C176.737 241.93 182.24 243.062 186.766 245.325C191.371 247.588 194.805 250.71 197.068 254.691C199.331 258.593 200.463 262.963 200.463 267.802C200.463 273.265 198.902 278.143 195.78 282.435C192.736 286.728 188.21 289.772 182.2 291.567L201.165 324.111H178.571ZM156.68 278.923H169.089C172.757 278.923 175.489 278.026 177.284 276.231C179.157 274.436 180.093 271.899 180.093 268.621C180.093 265.5 179.157 263.041 177.284 261.246C175.489 259.451 172.757 258.554 169.089 258.554H156.68V278.923ZM274.606 290.396C274.606 292.269 274.489 294.22 274.255 296.249H228.95C229.263 300.308 230.55 303.429 232.814 305.615C235.155 307.722 238.003 308.775 241.359 308.775C246.354 308.775 249.827 306.668 251.778 302.454H273.084C271.992 306.746 270.002 310.609 267.114 314.043C264.304 317.477 260.753 320.17 256.461 322.121C252.169 324.072 247.369 325.048 242.062 325.048C235.662 325.048 229.965 323.682 224.97 320.95C219.975 318.219 216.073 314.317 213.263 309.244C210.454 304.171 209.049 298.239 209.049 291.449C209.049 284.66 210.415 278.728 213.146 273.655C215.956 268.582 219.858 264.68 224.853 261.949C229.848 259.217 235.584 257.851 242.062 257.851C248.383 257.851 254.003 259.178 258.919 261.832C263.836 264.485 267.66 268.27 270.392 273.187C273.202 278.104 274.606 283.84 274.606 290.396ZM254.12 285.128C254.12 281.694 252.949 278.962 250.608 276.933C248.266 274.904 245.34 273.889 241.828 273.889C238.472 273.889 235.623 274.865 233.282 276.816C231.019 278.767 229.614 281.538 229.067 285.128H254.12ZM281.187 291.449C281.187 284.66 282.553 278.728 285.284 273.655C288.094 268.582 291.957 264.68 296.874 261.949C301.869 259.217 307.566 257.851 313.965 257.851C322.16 257.851 328.989 259.998 334.452 264.29C339.993 268.582 343.622 274.631 345.339 282.435H324.033C322.238 277.441 318.765 274.943 313.614 274.943C309.946 274.943 307.019 276.387 304.834 279.275C302.649 282.084 301.556 286.142 301.556 291.449C301.556 296.757 302.649 300.854 304.834 303.741C307.019 306.551 309.946 307.956 313.614 307.956C318.765 307.956 322.238 305.458 324.033 300.464H345.339C343.622 308.112 339.993 314.121 334.452 318.492C328.911 322.862 322.082 325.048 313.965 325.048C307.566 325.048 301.869 323.682 296.874 320.95C291.957 318.219 288.094 314.317 285.284 309.244C282.553 304.171 281.187 298.239 281.187 291.449ZM366.115 251.998C362.603 251.998 359.715 250.983 357.452 248.954C355.267 246.847 354.174 244.272 354.174 241.228C354.174 238.106 355.267 235.531 357.452 233.501C359.715 231.394 362.603 230.341 366.115 230.341C369.549 230.341 372.359 231.394 374.544 233.501C376.807 235.531 377.939 238.106 377.939 241.228C377.939 244.272 376.807 246.847 374.544 248.954C372.359 250.983 369.549 251.998 366.115 251.998ZM376.066 258.788V324.111H356.047V258.788H376.066ZM386.592 291.449C386.592 284.66 387.958 278.728 390.69 273.655C393.499 268.582 397.363 264.68 402.279 261.949C407.274 259.217 412.972 257.851 419.371 257.851C427.566 257.851 434.395 259.998 439.858 264.29C445.399 268.582 449.028 274.631 450.745 282.435H429.439C427.644 277.441 424.171 274.943 419.02 274.943C415.352 274.943 412.425 276.387 410.24 279.275C408.055 282.084 406.962 286.142 406.962 291.449C406.962 296.757 408.055 300.854 410.24 303.741C412.425 306.551 415.352 307.956 419.02 307.956C424.171 307.956 427.644 305.458 429.439 300.464H450.745C449.028 308.112 445.399 314.121 439.858 318.492C434.317 322.862 427.488 325.048 419.371 325.048C412.972 325.048 407.274 323.682 402.279 320.95C397.363 318.219 393.499 314.317 390.69 309.244C387.958 304.171 386.592 298.239 386.592 291.449ZM481.471 237.482V324.111H461.453V237.482H481.471ZM491.998 291.332C491.998 284.621 493.247 278.728 495.744 273.655C498.32 268.582 501.793 264.68 506.163 261.949C510.534 259.217 515.412 257.851 520.797 257.851C525.401 257.851 529.421 258.788 532.855 260.661C536.367 262.534 539.059 264.992 540.932 268.036V258.788H560.951V324.111H540.932V314.863C538.981 317.907 536.249 320.365 532.737 322.238C529.303 324.111 525.284 325.048 520.68 325.048C515.373 325.048 510.534 323.682 506.163 320.95C501.793 318.141 498.32 314.199 495.744 309.127C493.247 303.976 491.998 298.044 491.998 291.332ZM540.932 291.449C540.932 286.455 539.527 282.513 536.718 279.626C533.986 276.738 530.63 275.294 526.65 275.294C522.67 275.294 519.275 276.738 516.465 279.626C513.734 282.435 512.368 286.338 512.368 291.332C512.368 296.327 513.734 300.308 516.465 303.273C519.275 306.161 522.67 307.605 526.65 307.605C530.63 307.605 533.986 306.161 536.718 303.273C539.527 300.386 540.932 296.444 540.932 291.449ZM542.454 242.516L514.241 254.339V240.525L542.454 226.946V242.516ZM604.817 305.38L618.982 258.788H640.288L617.109 324.111H592.408L569.228 258.788H590.652L604.817 305.38ZM710.291 290.396C710.291 292.269 710.174 294.22 709.94 296.249H664.635C664.947 300.308 666.235 303.429 668.498 305.615C670.84 307.722 673.688 308.775 677.044 308.775C682.039 308.775 685.512 306.668 687.463 302.454H708.769C707.677 306.746 705.686 310.609 702.799 314.043C699.989 317.477 696.438 320.17 692.146 322.121C687.853 324.072 683.054 325.048 677.746 325.048C671.347 325.048 665.65 323.682 660.655 320.95C655.66 318.219 651.758 314.317 648.948 309.244C646.138 304.171 644.734 298.239 644.734 291.449C644.734 284.66 646.099 278.728 648.831 273.655C651.641 268.582 655.543 264.68 660.538 261.949C665.533 259.217 671.269 257.851 677.746 257.851C684.068 257.851 689.687 259.178 694.604 261.832C699.521 264.485 703.345 268.27 706.077 273.187C708.886 278.104 710.291 283.84 710.291 290.396ZM689.804 285.128C689.804 281.694 688.634 278.962 686.292 276.933C683.951 274.904 681.024 273.889 677.512 273.889C674.156 273.889 671.308 274.865 668.966 276.816C666.703 278.767 665.298 281.538 664.752 285.128H689.804ZM740.87 237.482V324.111H720.852V237.482H740.87Z" fill="white"/>
<g filter="url(#filter0_d_1463_28)">
<circle cx="439" cy="470.705" r="97.5556" fill="#F1F1F1"/>
</g>
<path d="M467.737 455.351L445.389 420.242C444.779 419.274 443.898 418.47 442.836 417.909C441.774 417.349 440.568 417.052 439.339 417.05C438.11 417.048 436.902 417.339 435.837 417.896C434.772 418.452 433.888 419.253 433.274 420.218L419.527 442.389M467.737 455.351L472.472 439.322M467.737 455.351L451.035 452.581M445.806 510.193L490.575 510.121C491.791 510.127 492.987 509.842 494.043 509.296C495.099 508.749 495.978 507.959 496.591 507.007C497.203 506.054 497.529 504.972 497.533 503.869C497.538 502.766 497.223 501.681 496.618 500.724L483.628 480.902M445.806 510.193L458.725 521.922M445.806 510.193L456.853 498.447M403.821 466.059L381.401 501.24C380.789 502.203 380.466 503.295 380.467 504.407C380.467 505.519 380.79 506.611 381.403 507.573C382.016 508.536 382.897 509.336 383.958 509.892C385.019 510.448 386.223 510.741 387.449 510.741L415.536 510.395M403.821 466.059L386.167 470.359M403.821 466.059L409.533 480.547" stroke="#399226" stroke-width="12.1944" stroke-linecap="round" stroke-linejoin="round"/>
<defs>
<filter id="filter0_d_1463_28" x="317.055" y="358.517" width="243.889" height="243.889" filterUnits="userSpaceOnUse" color-interpolation-filters="sRGB">
<feFlood flood-opacity="0" result="BackgroundImageFix"/>
<feColorMatrix in="SourceAlpha" type="matrix" values="0 0 0 0 0 0 0 0 0 0 0 0 0 0 0 0 0 0 127 0" result="hardAlpha"/>
<feOffset dy="9.75556"/>
<feGaussianBlur stdDeviation="12.1944"/>
<feComposite in2="hardAlpha" operator="out"/>
<feColorMatrix type="matrix" values="0 0 0 0 0 0 0 0 0 0 0 0 0 0 0 0 0 0 0.25 0"/>
<feBlend mode="normal" in2="BackgroundImageFix" result="effect1_dropShadow_1463_28"/>
<feBlend mode="normal" in="SourceGraphic" in2="effect1_dropShadow_1463_28" result="shape"/>
</filter>
<linearGradient id="paint0_linear_1463_28" x1="487.778" y1="524.361" x2="483.858" y2="20.7326" gradientUnits="userSpaceOnUse">
<stop offset="0.706667" stop-color="#6BBF59"/>
</linearGradient>
</defs>
</svg>
