<svg width="524" height="202" viewBox="0 0 524 202" fill="none" xmlns="http://www.w3.org/2000/svg">
<path d="M47.4883 19.0683V28.9326H31.2515V80H19.0302V28.9326H2.79343V19.0683H47.4883ZM68.6266 39.1461C70.1979 36.5854 72.2348 34.5777 74.7372 33.1228C77.2979 31.6678 80.2077 30.9404 83.4667 30.9404V43.7727H80.2368C76.3958 43.7727 73.486 44.6747 71.5073 46.4788C69.5868 48.2829 68.6266 51.4255 68.6266 55.9067V80H56.4053V31.6387H68.6266V39.1461ZM97.8962 25.8773C95.7429 25.8773 93.9389 25.208 92.4839 23.8695C91.0872 22.4728 90.3889 20.756 90.3889 18.7191C90.3889 16.6823 91.0872 14.9946 92.4839 13.656C93.9389 12.2593 95.7429 11.561 97.8962 11.561C100.049 11.561 101.824 12.2593 103.221 13.656C104.676 14.9946 105.404 16.6823 105.404 18.7191C105.404 20.756 104.676 22.4728 103.221 23.8695C101.824 25.208 100.049 25.8773 97.8962 25.8773ZM103.92 31.6387V80H91.6983V31.6387H103.92ZM128.215 15.4019V80H115.994V15.4019H128.215ZM167.526 30.9404C171.192 30.9404 174.451 31.7551 177.303 33.3846C180.155 34.9559 182.366 37.3129 183.937 40.4555C185.567 43.5399 186.382 47.2645 186.382 51.6292V80H174.16V53.2878C174.16 49.4469 173.2 46.5079 171.28 44.4711C169.359 42.376 166.74 41.3285 163.423 41.3285C160.048 41.3285 157.371 42.376 155.392 44.4711C153.472 46.5079 152.511 49.4469 152.511 53.2878V80H140.29V15.4019H152.511V37.6621C154.083 35.567 156.178 33.9375 158.797 32.7736C161.415 31.5514 164.325 30.9404 167.526 30.9404ZM194.861 55.6448C194.861 50.7563 195.821 46.4206 197.742 42.6379C199.72 38.8551 202.368 35.9453 205.685 33.9084C209.061 31.8715 212.814 30.8531 216.946 30.8531C220.555 30.8531 223.697 31.5805 226.374 33.0355C229.109 34.4904 231.292 36.3236 232.921 38.535V31.6387H245.23V80H232.921V72.9291C231.35 75.1988 229.168 77.0902 226.374 78.6033C223.639 80.0582 220.467 80.7857 216.859 80.7857C212.785 80.7857 209.061 79.7381 205.685 77.643C202.368 75.548 199.72 72.609 197.742 68.8263C195.821 64.9853 194.861 60.5915 194.861 55.6448ZM232.921 55.8194C232.921 52.8514 232.339 50.3198 231.175 48.2247C230.011 46.0715 228.44 44.442 226.462 43.3362C224.483 42.1723 222.359 41.5903 220.089 41.5903C217.819 41.5903 215.724 42.1432 213.804 43.2489C211.883 44.3547 210.312 45.9842 209.09 48.1374C207.926 50.2325 207.344 52.735 207.344 55.6448C207.344 58.5546 207.926 61.1152 209.09 63.3267C210.312 65.48 211.883 67.1386 213.804 68.3025C215.782 69.4664 217.878 70.0484 220.089 70.0484C222.359 70.0484 224.483 69.4955 226.462 68.3898C228.44 67.2259 230.011 65.5964 231.175 63.5013C232.339 61.348 232.921 58.7874 232.921 55.8194ZM274.824 55.6448C274.824 50.7563 275.784 46.4206 277.705 42.6379C279.684 38.8551 282.361 35.9453 285.736 33.9084C289.111 31.8715 292.865 30.8531 296.997 30.8531C300.14 30.8531 303.137 31.5514 305.988 32.9482C308.84 34.2867 311.11 36.0908 312.797 38.3604V15.4019H325.193V80H312.797V72.8418C311.284 75.2279 309.16 77.1484 306.425 78.6033C303.69 80.0582 300.518 80.7857 296.91 80.7857C292.836 80.7857 289.111 79.7381 285.736 77.643C282.361 75.548 279.684 72.609 277.705 68.8263C275.784 64.9853 274.824 60.5915 274.824 55.6448ZM312.885 55.8194C312.885 52.8514 312.303 50.3198 311.139 48.2247C309.975 46.0715 308.404 44.442 306.425 43.3362C304.446 42.1723 302.322 41.5903 300.052 41.5903C297.783 41.5903 295.688 42.1432 293.767 43.2489C291.847 44.3547 290.275 45.9842 289.053 48.1374C287.889 50.2325 287.307 52.735 287.307 55.6448C287.307 58.5546 287.889 61.1152 289.053 63.3267C290.275 65.48 291.847 67.1386 293.767 68.3025C295.746 69.4664 297.841 70.0484 300.052 70.0484C302.322 70.0484 304.446 69.4955 306.425 68.3898C308.404 67.2259 309.975 65.5964 311.139 63.5013C312.303 61.348 312.885 58.7874 312.885 55.8194ZM382.086 54.7718C382.086 56.5177 381.97 58.089 381.737 59.4857H346.383C346.674 62.9775 347.896 65.7128 350.049 67.6914C352.202 69.6701 354.85 70.6595 357.993 70.6595C362.532 70.6595 365.762 68.7099 367.682 64.8107H380.864C379.467 69.4664 376.79 73.3074 372.833 76.3336C368.876 79.3016 364.016 80.7857 358.255 80.7857C353.599 80.7857 349.409 79.7672 345.684 77.7303C342.018 75.6353 339.137 72.6963 337.042 68.9136C335.005 65.1308 333.987 60.7661 333.987 55.8194C333.987 50.8145 335.005 46.4206 337.042 42.6379C339.079 38.8551 341.931 35.9453 345.597 33.9084C349.263 31.8715 353.483 30.8531 358.255 30.8531C362.852 30.8531 366.955 31.8424 370.563 33.8211C374.23 35.7998 377.052 38.6223 379.031 42.2887C381.068 45.8969 382.086 50.0579 382.086 54.7718ZM369.428 51.28C369.37 48.1374 368.235 45.635 366.024 43.7727C363.812 41.8522 361.106 40.892 357.905 40.892C354.879 40.892 352.319 41.8231 350.224 43.6854C348.187 45.4895 346.935 48.021 346.47 51.28H369.428Z" fill="#6BBF59"/>
<path d="M138.31 178.611C132.607 178.611 127.369 177.273 122.597 174.596C117.825 171.918 114.042 168.223 111.249 163.509C108.455 158.737 107.059 153.354 107.059 147.36C107.059 141.424 108.455 136.099 111.249 131.385C114.042 126.613 117.825 122.888 122.597 120.211C127.369 117.534 132.607 116.195 138.31 116.195C144.072 116.195 149.309 117.534 154.023 120.211C158.795 122.888 162.549 126.613 165.284 131.385C168.078 136.099 169.474 141.424 169.474 147.36C169.474 153.354 168.078 158.737 165.284 163.509C162.549 168.223 158.795 171.918 154.023 174.596C149.251 177.273 144.013 178.611 138.31 178.611ZM138.31 167.699C141.977 167.699 145.207 166.884 148 165.255C150.793 163.567 152.976 161.181 154.547 158.097C156.118 155.012 156.904 151.433 156.904 147.36C156.904 143.286 156.118 139.736 154.547 136.71C152.976 133.625 150.793 131.268 148 129.639C145.207 128.009 141.977 127.194 138.31 127.194C134.644 127.194 131.385 128.009 128.533 129.639C125.74 131.268 123.557 133.625 121.986 136.71C120.415 139.736 119.629 143.286 119.629 147.36C119.629 151.433 120.415 155.012 121.986 158.097C123.557 161.181 125.74 163.567 128.533 165.255C131.385 166.884 134.644 167.699 138.31 167.699ZM190.788 136.71C192.359 134.382 194.513 132.49 197.248 131.035C200.041 129.581 203.213 128.853 206.763 128.853C210.895 128.853 214.619 129.872 217.937 131.908C221.312 133.945 223.96 136.855 225.88 140.638C227.859 144.362 228.848 148.698 228.848 153.645C228.848 158.591 227.859 162.985 225.88 166.826C223.96 170.609 221.312 173.548 217.937 175.643C214.619 177.738 210.895 178.786 206.763 178.786C203.155 178.786 199.983 178.087 197.248 176.691C194.571 175.236 192.417 173.373 190.788 171.104V178H178.567V113.402H190.788V136.71ZM216.365 153.645C216.365 150.735 215.754 148.233 214.532 146.137C213.368 143.984 211.797 142.355 209.818 141.249C207.898 140.143 205.803 139.59 203.533 139.59C201.322 139.59 199.226 140.172 197.248 141.336C195.327 142.442 193.756 144.071 192.534 146.225C191.37 148.378 190.788 150.91 190.788 153.819C190.788 156.729 191.37 159.261 192.534 161.414C193.756 163.567 195.327 165.226 197.248 166.39C199.226 167.496 201.322 168.048 203.533 168.048C205.803 168.048 207.898 167.466 209.818 166.303C211.797 165.139 213.368 163.48 214.532 161.327C215.754 159.173 216.365 156.613 216.365 153.645ZM243.927 123.877C241.716 123.877 239.883 123.208 238.428 121.87C237.031 120.473 236.333 118.756 236.333 116.719C236.333 114.682 237.031 112.995 238.428 111.656C239.883 110.259 241.716 109.561 243.927 109.561C246.081 109.561 247.856 110.259 249.252 111.656C250.649 112.995 251.347 114.682 251.347 116.719C251.347 118.756 250.649 120.473 249.252 121.87C247.856 123.208 246.081 123.877 243.927 123.877ZM249.951 185.944C249.951 191.298 248.612 195.139 245.935 197.467C243.316 199.853 239.533 201.046 234.587 201.046H229.174V190.658H232.666C234.529 190.658 235.838 190.279 236.595 189.523C237.351 188.825 237.729 187.661 237.729 186.031V129.639H249.951V185.944ZM306.982 152.772C306.982 154.518 306.866 156.089 306.633 157.486H271.278C271.569 160.978 272.792 163.713 274.945 165.691C277.098 167.67 279.746 168.659 282.889 168.659C287.428 168.659 290.658 166.71 292.578 162.811H305.76C304.363 167.466 301.686 171.307 297.729 174.334C293.771 177.302 288.912 178.786 283.151 178.786C278.495 178.786 274.305 177.767 270.58 175.73C266.914 173.635 264.033 170.696 261.938 166.914C259.901 163.131 258.883 158.766 258.883 153.819C258.883 148.814 259.901 144.421 261.938 140.638C263.975 136.855 266.826 133.945 270.493 131.908C274.159 129.872 278.378 128.853 283.151 128.853C287.748 128.853 291.851 129.842 295.459 131.821C299.125 133.8 301.948 136.622 303.927 140.289C305.964 143.897 306.982 148.058 306.982 152.772ZM294.324 149.28C294.266 146.137 293.131 143.635 290.92 141.773C288.708 139.852 286.002 138.892 282.801 138.892C279.775 138.892 277.215 139.823 275.119 141.685C273.083 143.489 271.831 146.021 271.366 149.28H294.324ZM330.131 139.678V163.073C330.131 164.702 330.51 165.895 331.266 166.652C332.081 167.35 333.42 167.699 335.282 167.699H340.956V178H333.274C322.973 178 317.823 172.995 317.823 162.985V139.678H312.061V129.639H317.823V117.679H330.131V129.639H340.956V139.678H330.131ZM355.944 123.877C353.791 123.877 351.987 123.208 350.532 121.87C349.135 120.473 348.437 118.756 348.437 116.719C348.437 114.682 349.135 112.995 350.532 111.656C351.987 110.259 353.791 109.561 355.944 109.561C358.097 109.561 359.872 110.259 361.269 111.656C362.724 112.995 363.451 114.682 363.451 116.719C363.451 118.756 362.724 120.473 361.269 121.87C359.872 123.208 358.097 123.877 355.944 123.877ZM361.967 129.639V178H349.746V129.639H361.967ZM394.207 166.739L406.428 129.639H419.435L401.54 178H386.7L368.892 129.639H381.986L394.207 166.739ZM447.774 178.786C443.118 178.786 438.928 177.767 435.204 175.73C431.479 173.635 428.54 170.696 426.387 166.914C424.292 163.131 423.244 158.766 423.244 153.819C423.244 148.873 424.321 144.508 426.474 140.725C428.686 136.942 431.683 134.033 435.465 131.996C439.248 129.901 443.467 128.853 448.123 128.853C452.779 128.853 456.998 129.901 460.781 131.996C464.564 134.033 467.532 136.942 469.685 140.725C471.896 144.508 473.002 148.873 473.002 153.819C473.002 158.766 471.867 163.131 469.598 166.914C467.386 170.696 464.36 173.635 460.519 175.73C456.736 177.767 452.488 178.786 447.774 178.786ZM447.774 168.136C449.985 168.136 452.051 167.612 453.972 166.564C455.951 165.459 457.522 163.829 458.686 161.676C459.85 159.523 460.432 156.904 460.432 153.819C460.432 149.222 459.21 145.701 456.765 143.257C454.379 140.754 451.44 139.503 447.949 139.503C444.457 139.503 441.518 140.754 439.132 143.257C436.804 145.701 435.64 149.222 435.64 153.819C435.64 158.417 436.775 161.967 439.045 164.469C441.372 166.914 444.282 168.136 447.774 168.136ZM500.473 178.786C496.516 178.786 492.966 178.087 489.823 176.691C486.681 175.236 484.178 173.286 482.316 170.842C480.512 168.398 479.523 165.691 479.348 162.723H491.657C491.889 164.586 492.791 166.128 494.363 167.35C495.992 168.572 498 169.183 500.386 169.183C502.714 169.183 504.518 168.718 505.798 167.787C507.137 166.855 507.806 165.662 507.806 164.207C507.806 162.636 506.991 161.472 505.362 160.716C503.791 159.901 501.259 159.028 497.767 158.097C494.159 157.224 491.191 156.322 488.863 155.391C486.594 154.46 484.615 153.034 482.927 151.113C481.298 149.193 480.483 146.603 480.483 143.344C480.483 140.667 481.239 138.223 482.753 136.011C484.324 133.8 486.535 132.054 489.387 130.774C492.297 129.493 495.701 128.853 499.6 128.853C505.362 128.853 509.959 130.308 513.393 133.218C516.827 136.069 518.718 139.94 519.067 144.828H507.37C507.195 142.908 506.38 141.394 504.925 140.289C503.529 139.125 501.637 138.543 499.251 138.543C497.04 138.543 495.323 138.95 494.101 139.765C492.937 140.58 492.355 141.715 492.355 143.169C492.355 144.799 493.17 146.05 494.799 146.923C496.429 147.738 498.96 148.582 502.394 149.455C505.886 150.328 508.766 151.23 511.036 152.161C513.306 153.092 515.255 154.547 516.885 156.526C518.572 158.446 519.445 161.007 519.504 164.207C519.504 167.001 518.718 169.503 517.147 171.715C515.634 173.926 513.422 175.672 510.512 176.952C507.661 178.175 504.314 178.786 500.473 178.786Z" fill="#3F463E"/>
<path d="M30.7513 164.223L8.18359 177.317V124.941L30.7513 111.846M30.7513 164.223L56.5429 177.317M30.7513 164.223V111.846M56.5429 177.317L79.1105 164.223V111.846L56.5429 124.941M56.5429 177.317V124.941M56.5429 124.941L30.7513 111.846" stroke="#3F463E" stroke-width="10.9118" stroke-linecap="round" stroke-linejoin="round"/>
<path d="M403.738 56.1635C423.525 36.6589 443.732 63.2238 466.481 68.199" stroke="#6BBF59" stroke-width="10.9118" stroke-linecap="round" stroke-linejoin="round" stroke-dasharray="19.1 19.1"/>
<path d="M492.396 69.563L511.492 49.1033M492.396 49.1033L511.492 69.563" stroke="#6BBF59" stroke-width="10.9118" stroke-linecap="round" stroke-linejoin="round"/>
</svg>
