<svg width="192" height="60" viewBox="0 0 192 60" fill="none" xmlns="http://www.w3.org/2000/svg">
<rect y="44" width="192" height="16" fill="#E2F2DF"/>
<path d="M105.075 36.4312H96.6377V23.0437C96.6377 22.7951 96.5389 22.5566 96.3631 22.3808C96.1873 22.205 95.9488 22.1062 95.7002 22.1062C95.4516 22.1062 95.2131 22.205 95.0373 22.3808C94.8615 22.5566 94.7627 22.7951 94.7627 23.0437V37.3687C94.7627 37.6174 94.8615 37.8558 95.0373 38.0317C95.2131 38.2075 95.4516 38.3062 95.7002 38.3062H105.075C105.324 38.3062 105.562 38.2075 105.738 38.0317C105.914 37.8558 106.013 37.6174 106.013 37.3687C106.013 37.1201 105.914 36.8816 105.738 36.7058C105.562 36.53 105.324 36.4312 105.075 36.4312Z" fill="black"/>
<path d="M111.694 23.4375C112.118 23.7981 112.656 23.9973 113.212 24H113.419C113.728 23.9753 114.03 23.8897 114.307 23.7482C114.584 23.6066 114.83 23.4118 115.031 23.175L115.444 22.6875C115.846 22.2062 116.042 21.5858 115.989 20.9609C115.936 20.3361 115.639 19.7572 115.162 19.35L110.512 15.4125C110.038 15.031 109.436 14.8456 108.829 14.8944C108.222 14.9432 107.657 15.2225 107.25 15.675L106.837 16.1625C106.435 16.6438 106.239 17.2642 106.292 17.8891C106.345 18.5139 106.642 19.0928 107.119 19.5L108.469 20.625L107.644 21.675C104.473 19.2375 100.632 17.8306 96.6373 17.6438V11.9625C97.74 11.7306 98.7177 11.0984 99.3815 10.1879C100.045 9.27741 100.348 8.15322 100.232 7.03247C100.115 5.91171 99.5874 4.8739 98.7504 4.11947C97.9135 3.36503 96.8266 2.94749 95.6998 2.94749C94.573 2.94749 93.4862 3.36503 92.6492 4.11947C91.8123 4.8739 91.2846 5.91171 91.168 7.03247C91.0515 8.15322 91.3544 9.27741 92.0182 10.1879C92.682 11.0984 93.6596 11.7306 94.7623 11.9625V17.7375C90.2181 17.9603 85.8909 19.7486 82.5152 22.799C79.1396 25.8493 76.9234 29.9737 76.2428 34.4722C75.5622 38.9707 76.4591 43.5662 78.7814 47.4786C81.1036 51.391 84.7081 54.3793 88.9831 55.9364C93.2581 57.4935 97.9401 57.5233 102.235 56.0209C106.529 54.5186 110.171 51.5765 112.543 47.694C114.915 43.8116 115.871 39.228 115.248 34.7211C114.625 30.2143 112.461 26.0619 109.125 22.9688L109.95 21.9188L111.694 23.4375ZM93.0186 7.5C93.0186 6.9697 93.1758 6.45131 93.4705 6.01038C93.7651 5.56945 94.1838 5.22579 94.6738 5.02285C95.1637 4.81991 95.7028 4.76681 96.2229 4.87027C96.743 4.97373 97.2208 5.22909 97.5958 5.60407C97.9707 5.97905 98.2261 6.4568 98.3296 6.97691C98.433 7.49703 98.3799 8.03614 98.177 8.52607C97.9741 9.016 97.6304 9.43476 97.1895 9.72938C96.7485 10.024 96.2301 10.1813 95.6998 10.1813C94.9887 10.1813 94.3067 9.89876 93.8039 9.39593C93.3011 8.8931 93.0186 8.21111 93.0186 7.5ZM113.512 37.3688C113.512 40.8917 112.468 44.3356 110.51 47.2648C108.553 50.1941 105.771 52.4772 102.516 53.8254C99.2616 55.1735 95.6801 55.5263 92.2248 54.839C88.7695 54.1517 85.5956 52.4552 83.1045 49.9641C80.6134 47.473 78.9169 44.2991 78.2296 40.8438C77.5423 37.3885 77.895 33.807 79.2432 30.5522C80.5914 27.2974 82.8745 24.5155 85.8037 22.5582C88.733 20.6009 92.1769 19.5563 95.6998 19.5563C100.422 19.5612 104.95 21.4395 108.29 24.7789C111.629 28.1183 113.507 32.6461 113.512 37.3688ZM108.187 17.3625L108.6 16.875C108.642 16.8259 108.694 16.7856 108.752 16.7566C108.81 16.7277 108.873 16.7105 108.937 16.7063C109.054 16.7045 109.167 16.7444 109.256 16.8188L113.906 20.7563C113.994 20.8501 114.044 20.9742 114.044 21.1031C114.044 21.232 113.994 21.3561 113.906 21.45L113.494 21.9375C113.4 22.0258 113.276 22.075 113.147 22.075C113.018 22.075 112.894 22.0258 112.8 21.9375L108.15 18C108.082 17.9056 108.049 17.7907 108.055 17.6746C108.062 17.5585 108.109 17.4483 108.187 17.3625Z" fill="black"/>
</svg>
