<svg width="575" height="197" viewBox="0 0 575 197" fill="none" xmlns="http://www.w3.org/2000/svg">
<rect y="163.194" width="575" height="33.0935" fill="#E2F2DF"/>
<path d="M78.1336 173.554L67.9407 155.551H63.5724V173.554H54.3062V127.355H71.6472C75.2213 127.355 78.2659 127.995 80.781 129.275C83.2961 130.51 85.1714 132.209 86.4069 134.371C87.6866 136.489 88.3264 138.872 88.3264 141.519C88.3264 144.564 87.4439 147.322 85.6789 149.793C83.9139 152.22 81.2885 153.896 77.8026 154.823L88.8559 173.554H78.1336ZM63.5724 148.601H71.3163C73.8314 148.601 75.7067 148.006 76.9422 146.814C78.1777 145.579 78.7954 143.88 78.7954 141.718C78.7954 139.6 78.1777 137.967 76.9422 136.82C75.7067 135.629 73.8314 135.033 71.3163 135.033H63.5724V148.601ZM130.794 154.426C130.794 155.75 130.705 156.941 130.529 158H103.723C103.944 160.647 104.87 162.721 106.503 164.222C108.136 165.722 110.143 166.472 112.526 166.472C115.968 166.472 118.417 164.994 119.873 162.037H129.867C128.808 165.567 126.778 168.48 123.778 170.774C120.777 173.024 117.093 174.15 112.725 174.15C109.195 174.15 106.018 173.377 103.194 171.833C100.414 170.245 98.2296 168.016 96.6411 165.148C95.0967 162.28 94.3246 158.971 94.3246 155.22C94.3246 151.425 95.0967 148.094 96.6411 145.226C98.1855 142.358 100.348 140.152 103.127 138.607C105.907 137.063 109.106 136.291 112.725 136.291C116.21 136.291 119.321 137.041 122.057 138.541C124.837 140.041 126.977 142.181 128.477 144.961C130.021 147.697 130.794 150.852 130.794 154.426ZM121.197 151.778C121.152 149.396 120.292 147.498 118.615 146.086C116.938 144.63 114.887 143.902 112.46 143.902C110.165 143.902 108.224 144.608 106.635 146.02C105.091 147.388 104.142 149.307 103.789 151.778H121.197ZM135.174 155.22C135.174 151.425 135.947 148.116 137.491 145.292C139.035 142.424 141.175 140.218 143.911 138.673C146.647 137.085 149.78 136.291 153.31 136.291C157.854 136.291 161.605 137.438 164.561 139.732C167.562 141.983 169.57 145.16 170.584 149.263H160.59C160.061 147.675 159.156 146.439 157.877 145.557C156.641 144.63 155.097 144.167 153.243 144.167C150.596 144.167 148.5 145.138 146.956 147.079C145.411 148.976 144.639 151.69 144.639 155.22C144.639 158.706 145.411 161.42 146.956 163.361C148.5 165.259 150.596 166.207 153.243 166.207C156.994 166.207 159.443 164.53 160.59 161.177H170.584C169.57 165.148 167.562 168.303 164.561 170.642C161.561 172.98 157.81 174.15 153.31 174.15C149.78 174.15 146.647 173.377 143.911 171.833C141.175 170.245 139.035 168.038 137.491 165.214C135.947 162.346 135.174 159.015 135.174 155.22ZM182.072 132.518C180.439 132.518 179.072 132.011 177.968 130.996C176.909 129.937 176.38 128.635 176.38 127.091C176.38 125.546 176.909 124.267 177.968 123.252C179.072 122.193 180.439 121.663 182.072 121.663C183.705 121.663 185.05 122.193 186.109 123.252C187.213 124.267 187.764 125.546 187.764 127.091C187.764 128.635 187.213 129.937 186.109 130.996C185.05 132.011 183.705 132.518 182.072 132.518ZM186.639 136.886V173.554H177.373V136.886H186.639ZM193.411 155.22C193.411 151.425 194.183 148.116 195.728 145.292C197.272 142.424 199.412 140.218 202.148 138.673C204.884 137.085 208.017 136.291 211.546 136.291C216.091 136.291 219.842 137.438 222.798 139.732C225.799 141.983 227.806 145.16 228.821 149.263H218.827C218.298 147.675 217.393 146.439 216.113 145.557C214.878 144.63 213.334 144.167 211.48 144.167C208.833 144.167 206.737 145.138 205.193 147.079C203.648 148.976 202.876 151.69 202.876 155.22C202.876 158.706 203.648 161.42 205.193 163.361C206.737 165.259 208.833 166.207 211.48 166.207C215.231 166.207 217.68 164.53 218.827 161.177H228.821C227.806 165.148 225.799 168.303 222.798 170.642C219.798 172.98 216.047 174.15 211.546 174.15C208.017 174.15 204.884 173.377 202.148 171.833C199.412 170.245 197.272 168.038 195.728 165.214C194.183 162.346 193.411 159.015 193.411 155.22ZM244.876 124.576V173.554H235.61V124.576H244.876ZM288.117 154.426C288.117 155.75 288.029 156.941 287.852 158H261.047C261.267 160.647 262.194 162.721 263.827 164.222C265.459 165.722 267.467 166.472 269.85 166.472C273.291 166.472 275.74 164.994 277.196 162.037H287.191C286.132 165.567 284.102 168.48 281.101 170.774C278.101 173.024 274.416 174.15 270.048 174.15C266.518 174.15 263.341 173.377 260.517 171.833C257.737 170.245 255.553 168.016 253.965 165.148C252.42 162.28 251.648 158.971 251.648 155.22C251.648 151.425 252.42 148.094 253.965 145.226C255.509 142.358 257.671 140.152 260.451 138.607C263.231 137.063 266.43 136.291 270.048 136.291C273.534 136.291 276.645 137.041 279.38 138.541C282.16 140.041 284.3 142.181 285.801 144.961C287.345 147.697 288.117 150.852 288.117 154.426ZM278.52 151.778C278.476 149.396 277.615 147.498 275.939 146.086C274.262 144.63 272.21 143.902 269.783 143.902C267.489 143.902 265.547 144.608 263.959 146.02C262.415 147.388 261.466 149.307 261.113 151.778H278.52Z" fill="#6BBF59"/>
<path d="M338.98 164.751H320.58L317.535 173.554H307.806L324.419 127.289H335.207L351.82 173.554H342.024L338.98 164.751ZM336.465 157.338L329.78 138.012L323.095 157.338H336.465ZM372.392 136.291C375.128 136.291 377.533 136.842 379.607 137.945C381.681 139.004 383.313 140.394 384.505 142.115V136.886H393.837V173.819C393.837 177.216 393.153 180.239 391.785 182.886C390.417 185.578 388.366 187.696 385.63 189.24C382.894 190.829 379.585 191.623 375.702 191.623C370.495 191.623 366.215 190.41 362.861 187.983C359.552 185.556 357.677 182.247 357.236 178.055H366.436C366.921 179.731 367.958 181.055 369.546 182.026C371.179 183.041 373.143 183.548 375.437 183.548C378.129 183.548 380.313 182.732 381.99 181.099C383.666 179.511 384.505 177.084 384.505 173.819V168.127C383.313 169.847 381.659 171.282 379.541 172.429C377.467 173.576 375.084 174.15 372.392 174.15C369.304 174.15 366.48 173.355 363.92 171.767C361.361 170.178 359.331 167.95 357.831 165.082C356.375 162.17 355.647 158.838 355.647 155.088C355.647 151.381 356.375 148.094 357.831 145.226C359.331 142.358 361.339 140.152 363.854 138.607C366.413 137.063 369.26 136.291 372.392 136.291ZM384.505 155.22C384.505 152.97 384.063 151.05 383.181 149.462C382.298 147.829 381.107 146.594 379.607 145.755C378.107 144.873 376.496 144.432 374.775 144.432C373.054 144.432 371.466 144.851 370.01 145.689C368.554 146.528 367.362 147.763 366.436 149.396C365.553 150.984 365.112 152.882 365.112 155.088C365.112 157.294 365.553 159.235 366.436 160.912C367.362 162.545 368.554 163.802 370.01 164.685C371.51 165.567 373.098 166.009 374.775 166.009C376.496 166.009 378.107 165.589 379.607 164.751C381.107 163.869 382.298 162.633 383.181 161.045C384.063 159.412 384.505 157.47 384.505 155.22ZM419.169 174.15C415.639 174.15 412.462 173.377 409.638 171.833C406.814 170.245 404.586 168.016 402.953 165.148C401.365 162.28 400.57 158.971 400.57 155.22C400.57 151.47 401.387 148.16 403.019 145.292C404.696 142.424 406.969 140.218 409.837 138.673C412.705 137.085 415.904 136.291 419.434 136.291C422.964 136.291 426.163 137.085 429.031 138.673C431.899 140.218 434.149 142.424 435.782 145.292C437.459 148.16 438.297 151.47 438.297 155.22C438.297 158.971 437.437 162.28 435.716 165.148C434.039 168.016 431.745 170.245 428.832 171.833C425.964 173.377 422.743 174.15 419.169 174.15ZM419.169 166.075C420.846 166.075 422.412 165.678 423.868 164.883C425.369 164.045 426.56 162.81 427.442 161.177C428.325 159.544 428.766 157.559 428.766 155.22C428.766 151.734 427.84 149.065 425.986 147.212C424.177 145.314 421.949 144.365 419.301 144.365C416.654 144.365 414.426 145.314 412.617 147.212C410.852 149.065 409.969 151.734 409.969 155.22C409.969 158.706 410.829 161.398 412.55 163.295C414.315 165.148 416.522 166.075 419.169 166.075ZM454.36 142.578C455.552 140.637 457.096 139.115 458.994 138.012C460.935 136.908 463.141 136.357 465.612 136.357V146.086H463.163C460.251 146.086 458.045 146.77 456.545 148.138C455.088 149.506 454.36 151.889 454.36 155.286V173.554H445.094V136.886H454.36V142.578ZM469.471 155.088C469.471 151.381 470.199 148.094 471.655 145.226C473.155 142.358 475.163 140.152 477.678 138.607C480.237 137.063 483.083 136.291 486.216 136.291C488.952 136.291 491.335 136.842 493.364 137.945C495.438 139.048 497.093 140.438 498.328 142.115V136.886H507.661V173.554H498.328V168.193C497.137 169.914 495.482 171.348 493.364 172.495C491.29 173.598 488.886 174.15 486.15 174.15C483.061 174.15 480.237 173.355 477.678 171.767C475.163 170.178 473.155 167.95 471.655 165.082C470.199 162.17 469.471 158.838 469.471 155.088ZM498.328 155.22C498.328 152.97 497.887 151.05 497.005 149.462C496.122 147.829 494.931 146.594 493.43 145.755C491.93 144.873 490.32 144.432 488.599 144.432C486.878 144.432 485.289 144.851 483.833 145.689C482.377 146.528 481.186 147.763 480.259 149.396C479.377 150.984 478.935 152.882 478.935 155.088C478.935 157.294 479.377 159.235 480.259 160.912C481.186 162.545 482.377 163.802 483.833 164.685C485.334 165.567 486.922 166.009 488.599 166.009C490.32 166.009 491.93 165.589 493.43 164.751C494.931 163.869 496.122 162.633 497.005 161.045C497.887 159.412 498.328 157.47 498.328 155.22ZM528.691 126.561L527.632 158.529H519.821L518.696 126.561H528.691ZM523.925 174.017C522.248 174.017 520.858 173.51 519.755 172.495C518.696 171.436 518.167 170.134 518.167 168.59C518.167 167.046 518.696 165.766 519.755 164.751C520.858 163.692 522.248 163.163 523.925 163.163C525.558 163.163 526.904 163.692 527.963 164.751C529.021 165.766 529.551 167.046 529.551 168.59C529.551 170.134 529.021 171.436 527.963 172.495C526.904 173.51 525.558 174.017 523.925 174.017Z" fill="#3F463E"/>
<path d="M316.007 38.482L297.054 8.70708C296.537 7.88642 295.79 7.204 294.89 6.72871C293.989 6.25342 292.966 6.00206 291.924 6.00001C290.881 5.99796 289.857 6.24529 288.954 6.71703C288.051 7.18877 287.301 7.86824 286.78 8.68686L275.121 27.4891M316.007 38.482L320.023 24.8885M316.007 38.482L301.843 36.1324M297.408 84.9915L335.375 84.9307C336.407 84.9358 337.421 84.6943 338.317 84.2306C339.212 83.7669 339.958 83.0973 340.477 82.2893C340.997 81.4814 341.273 80.5635 341.277 79.6281C341.281 78.6927 341.013 77.7728 340.501 76.9611L329.484 60.1513M297.408 84.9915L308.364 94.9388M297.408 84.9915L306.776 75.0299M261.802 47.5632L242.788 77.3989C242.269 78.2157 241.996 79.1419 241.996 80.0846C241.996 81.0274 242.27 81.9535 242.79 82.7699C243.31 83.5863 244.057 84.2644 244.957 84.736C245.857 85.2076 246.878 85.4562 247.917 85.4567L271.737 85.163M261.802 47.5632L246.831 51.2093M261.802 47.5632L266.646 59.8496" stroke="#399226" stroke-width="10.3417" stroke-linecap="round" stroke-linejoin="round"/>
</svg>
