<svg width="278" height="95" viewBox="0 0 278 95" fill="none" xmlns="http://www.w3.org/2000/svg">
<rect y="79" width="278" height="16" fill="#E2F2DF"/>
<path d="M37.7905 84L32.8625 75.296H30.7505V84H26.2705V61.664H34.6545C36.3825 61.664 37.8545 61.9733 39.0705 62.592C40.2865 63.1893 41.1932 64.0107 41.7905 65.056C42.4092 66.08 42.7185 67.232 42.7185 68.512C42.7185 69.984 42.2918 71.3173 41.4385 72.512C40.5852 73.6853 39.3158 74.496 37.6305 74.944L42.9745 84H37.7905ZM30.7505 71.936H34.4945C35.7105 71.936 36.6172 71.648 37.2145 71.072C37.8118 70.4747 38.1105 69.6533 38.1105 68.608C38.1105 67.584 37.8118 66.7947 37.2145 66.24C36.6172 65.664 35.7105 65.376 34.4945 65.376H30.7505V71.936ZM63.2505 74.752C63.2505 75.392 63.2078 75.968 63.1225 76.48H50.1625C50.2692 77.76 50.7172 78.7627 51.5065 79.488C52.2958 80.2133 53.2665 80.576 54.4185 80.576C56.0825 80.576 57.2665 79.8613 57.9705 78.432H62.8025C62.2905 80.1387 61.3092 81.5467 59.8585 82.656C58.4078 83.744 56.6265 84.288 54.5145 84.288C52.8078 84.288 51.2718 83.9147 49.9065 83.168C48.5625 82.4 47.5065 81.3227 46.7385 79.936C45.9918 78.5493 45.6185 76.9493 45.6185 75.136C45.6185 73.3013 45.9918 71.6907 46.7385 70.304C47.4852 68.9173 48.5305 67.8507 49.8745 67.104C51.2185 66.3573 52.7652 65.984 54.5145 65.984C56.1998 65.984 57.7038 66.3467 59.0265 67.072C60.3705 67.7973 61.4052 68.832 62.1305 70.176C62.8772 71.4987 63.2505 73.024 63.2505 74.752ZM58.6105 73.472C58.5892 72.32 58.1732 71.4027 57.3625 70.72C56.5518 70.016 55.5598 69.664 54.3865 69.664C53.2772 69.664 52.3385 70.0053 51.5705 70.688C50.8238 71.3493 50.3652 72.2773 50.1945 73.472H58.6105ZM65.3685 75.136C65.3685 73.3013 65.7418 71.7013 66.4885 70.336C67.2352 68.9493 68.2698 67.8827 69.5925 67.136C70.9152 66.368 72.4298 65.984 74.1365 65.984C76.3338 65.984 78.1472 66.5387 79.5765 67.648C81.0272 68.736 81.9978 70.272 82.4885 72.256H77.6565C77.4005 71.488 76.9632 70.8907 76.3445 70.464C75.7472 70.016 75.0005 69.792 74.1045 69.792C72.8245 69.792 71.8112 70.2613 71.0645 71.2C70.3178 72.1173 69.9445 73.4293 69.9445 75.136C69.9445 76.8213 70.3178 78.1333 71.0645 79.072C71.8112 79.9893 72.8245 80.448 74.1045 80.448C75.9178 80.448 77.1018 79.6373 77.6565 78.016H82.4885C81.9978 79.936 81.0272 81.4613 79.5765 82.592C78.1258 83.7227 76.3125 84.288 74.1365 84.288C72.4298 84.288 70.9152 83.9147 69.5925 83.168C68.2698 82.4 67.2352 81.3333 66.4885 79.968C65.7418 78.5813 65.3685 76.9707 65.3685 75.136ZM88.0425 64.16C87.2532 64.16 86.5918 63.9147 86.0585 63.424C85.5465 62.912 85.2905 62.2827 85.2905 61.536C85.2905 60.7893 85.5465 60.1707 86.0585 59.68C86.5918 59.168 87.2532 58.912 88.0425 58.912C88.8318 58.912 89.4825 59.168 89.9945 59.68C90.5278 60.1707 90.7945 60.7893 90.7945 61.536C90.7945 62.2827 90.5278 62.912 89.9945 63.424C89.4825 63.9147 88.8318 64.16 88.0425 64.16ZM90.2505 66.272V84H85.7705V66.272H90.2505ZM93.5247 75.136C93.5247 73.3013 93.8981 71.7013 94.6448 70.336C95.3914 68.9493 96.4261 67.8827 97.7488 67.136C99.0714 66.368 100.586 65.984 102.293 65.984C104.49 65.984 106.303 66.5387 107.733 67.648C109.183 68.736 110.154 70.272 110.645 72.256H105.813C105.557 71.488 105.119 70.8907 104.501 70.464C103.903 70.016 103.157 69.792 102.261 69.792C100.981 69.792 99.9674 70.2613 99.2208 71.2C98.4741 72.1173 98.1008 73.4293 98.1008 75.136C98.1008 76.8213 98.4741 78.1333 99.2208 79.072C99.9674 79.9893 100.981 80.448 102.261 80.448C104.074 80.448 105.258 79.6373 105.813 78.016H110.645C110.154 79.936 109.183 81.4613 107.733 82.592C106.282 83.7227 104.469 84.288 102.293 84.288C100.586 84.288 99.0714 83.9147 97.7488 83.168C96.4261 82.4 95.3914 81.3333 94.6448 79.968C93.8981 78.5813 93.5247 76.9707 93.5247 75.136ZM118.407 60.32V84H113.927V60.32H118.407ZM139.313 74.752C139.313 75.392 139.27 75.968 139.185 76.48H126.225C126.332 77.76 126.78 78.7627 127.569 79.488C128.358 80.2133 129.329 80.576 130.481 80.576C132.145 80.576 133.329 79.8613 134.033 78.432H138.865C138.353 80.1387 137.372 81.5467 135.921 82.656C134.47 83.744 132.689 84.288 130.577 84.288C128.87 84.288 127.334 83.9147 125.969 83.168C124.625 82.4 123.569 81.3227 122.801 79.936C122.054 78.5493 121.681 76.9493 121.681 75.136C121.681 73.3013 122.054 71.6907 122.801 70.304C123.548 68.9173 124.593 67.8507 125.937 67.104C127.281 66.3573 128.828 65.984 130.577 65.984C132.262 65.984 133.766 66.3467 135.089 67.072C136.433 67.7973 137.468 68.832 138.193 70.176C138.94 71.4987 139.313 73.024 139.313 74.752ZM134.673 73.472C134.652 72.32 134.236 71.4027 133.425 70.72C132.614 70.016 131.622 69.664 130.449 69.664C129.34 69.664 128.401 70.0053 127.633 70.688C126.886 71.3493 126.428 72.2773 126.257 73.472H134.673Z" fill="#6BBF59"/>
<path d="M163.904 79.744H155.008L153.536 84H148.832L156.864 61.632H162.08L170.112 84H165.376L163.904 79.744ZM162.688 76.16L159.456 66.816L156.224 76.16H162.688ZM180.058 65.984C181.381 65.984 182.544 66.2507 183.546 66.784C184.549 67.296 185.338 67.968 185.914 68.8V66.272H190.426V84.128C190.426 85.7707 190.096 87.232 189.434 88.512C188.773 89.8133 187.781 90.8373 186.458 91.584C185.136 92.352 183.536 92.736 181.658 92.736C179.141 92.736 177.072 92.1493 175.45 90.976C173.85 89.8027 172.944 88.2027 172.73 86.176H177.178C177.413 86.9867 177.914 87.6267 178.682 88.096C179.472 88.5867 180.421 88.832 181.53 88.832C182.832 88.832 183.888 88.4373 184.698 87.648C185.509 86.88 185.914 85.7067 185.914 84.128V81.376C185.338 82.208 184.538 82.9013 183.514 83.456C182.512 84.0107 181.36 84.288 180.058 84.288C178.565 84.288 177.2 83.904 175.962 83.136C174.725 82.368 173.744 81.2907 173.018 79.904C172.314 78.496 171.962 76.8853 171.962 75.072C171.962 73.28 172.314 71.6907 173.018 70.304C173.744 68.9173 174.714 67.8507 175.93 67.104C177.168 66.3573 178.544 65.984 180.058 65.984ZM185.914 75.136C185.914 74.048 185.701 73.12 185.274 72.352C184.848 71.5627 184.272 70.9653 183.546 70.56C182.821 70.1333 182.042 69.92 181.21 69.92C180.378 69.92 179.61 70.1227 178.906 70.528C178.202 70.9333 177.626 71.5307 177.178 72.32C176.752 73.088 176.538 74.0053 176.538 75.072C176.538 76.1387 176.752 77.0773 177.178 77.888C177.626 78.6773 178.202 79.2853 178.906 79.712C179.632 80.1387 180.4 80.352 181.21 80.352C182.042 80.352 182.821 80.1493 183.546 79.744C184.272 79.3173 184.848 78.72 185.274 77.952C185.701 77.1627 185.914 76.224 185.914 75.136ZM202.674 84.288C200.967 84.288 199.431 83.9147 198.066 83.168C196.7 82.4 195.623 81.3227 194.834 79.936C194.066 78.5493 193.682 76.9493 193.682 75.136C193.682 73.3227 194.076 71.7227 194.866 70.336C195.676 68.9493 196.775 67.8827 198.162 67.136C199.548 66.368 201.095 65.984 202.802 65.984C204.508 65.984 206.055 66.368 207.442 67.136C208.828 67.8827 209.916 68.9493 210.706 70.336C211.516 71.7227 211.922 73.3227 211.922 75.136C211.922 76.9493 211.506 78.5493 210.674 79.936C209.863 81.3227 208.754 82.4 207.346 83.168C205.959 83.9147 204.402 84.288 202.674 84.288ZM202.674 80.384C203.484 80.384 204.242 80.192 204.946 79.808C205.671 79.4027 206.247 78.8053 206.674 78.016C207.1 77.2267 207.314 76.2667 207.314 75.136C207.314 73.4507 206.866 72.16 205.97 71.264C205.095 70.3467 204.018 69.888 202.738 69.888C201.458 69.888 200.38 70.3467 199.506 71.264C198.652 72.16 198.226 73.4507 198.226 75.136C198.226 76.8213 198.642 78.1227 199.474 79.04C200.327 79.936 201.394 80.384 202.674 80.384ZM219.688 69.024C220.264 68.0853 221.011 67.3493 221.928 66.816C222.867 66.2827 223.933 66.016 225.128 66.016V70.72H223.944C222.536 70.72 221.469 71.0507 220.744 71.712C220.04 72.3733 219.688 73.5253 219.688 75.168V84H215.208V66.272H219.688V69.024ZM226.993 75.072C226.993 73.28 227.345 71.6907 228.049 70.304C228.775 68.9173 229.746 67.8507 230.962 67.104C232.199 66.3573 233.575 65.984 235.09 65.984C236.412 65.984 237.564 66.2507 238.546 66.784C239.548 67.3173 240.348 67.9893 240.946 68.8V66.272H245.458V84H240.946V81.408C240.37 82.24 239.57 82.9333 238.546 83.488C237.543 84.0213 236.38 84.288 235.058 84.288C233.564 84.288 232.199 83.904 230.962 83.136C229.746 82.368 228.775 81.2907 228.049 79.904C227.345 78.496 226.993 76.8853 226.993 75.072ZM240.946 75.136C240.946 74.048 240.732 73.12 240.306 72.352C239.879 71.5627 239.303 70.9653 238.578 70.56C237.852 70.1333 237.074 69.92 236.242 69.92C235.41 69.92 234.642 70.1227 233.938 70.528C233.234 70.9333 232.658 71.5307 232.21 72.32C231.783 73.088 231.57 74.0053 231.57 75.072C231.57 76.1387 231.783 77.0773 232.21 77.888C232.658 78.6773 233.234 79.2853 233.938 79.712C234.663 80.1387 235.431 80.352 236.242 80.352C237.074 80.352 237.852 80.1493 238.578 79.744C239.303 79.3173 239.879 78.72 240.306 77.952C240.732 77.1627 240.946 76.224 240.946 75.136ZM255.625 61.28L255.113 76.736H251.337L250.793 61.28H255.625ZM253.321 84.224C252.51 84.224 251.838 83.9787 251.305 83.488C250.793 82.976 250.537 82.3467 250.537 81.6C250.537 80.8533 250.793 80.2347 251.305 79.744C251.838 79.232 252.51 78.976 253.321 78.976C254.11 78.976 254.761 79.232 255.273 79.744C255.785 80.2347 256.041 80.8533 256.041 81.6C256.041 82.3467 255.785 82.976 255.273 83.488C254.761 83.9787 254.11 84.224 253.321 84.224Z" fill="#3F463E"/>
<path d="M152.783 18.7044L143.619 4.30881C143.369 3.91204 143.008 3.58211 142.573 3.35232C142.137 3.12252 141.643 3.001 141.139 3.00001C140.635 2.99901 140.14 3.11859 139.703 3.34667C139.267 3.57475 138.904 3.90325 138.652 4.29904L133.015 13.3895M152.783 18.7044L154.724 12.1322M152.783 18.7044L145.935 17.5683M143.791 41.1907L162.147 41.1613C162.645 41.1637 163.136 41.047 163.569 40.8228C164.002 40.5986 164.362 40.2749 164.613 39.8842C164.865 39.4936 164.998 39.0498 165 38.5976C165.002 38.1453 164.873 37.7006 164.625 37.3082L159.298 29.181M143.791 41.1907L149.088 46M143.791 41.1907L148.32 36.3744M126.576 23.0949L117.383 37.5198C117.132 37.9147 117 38.3625 117 38.8183C117 39.2741 117.132 39.7218 117.384 40.1166C117.635 40.5113 117.996 40.8391 118.431 41.0672C118.867 41.2952 119.36 41.4153 119.863 41.4156L131.379 41.2736M126.576 23.0949L119.337 24.8577M126.576 23.0949L128.918 29.0351" stroke="#399226" stroke-width="5" stroke-linecap="round" stroke-linejoin="round"/>
</svg>
