<svg width="299" height="61" viewBox="0 0 299 61" fill="none" xmlns="http://www.w3.org/2000/svg">
<rect width="299" height="61" fill="#CDCACA"/>
<path d="M-521 -1140C-521 -1141.1 -520.105 -1142 -519 -1142H2823C2824.1 -1142 2825 -1141.1 2825 -1140V878C2825 879.104 2824.1 880 2823 880H-519C-520.105 880 -521 879.105 -521 878V-1140Z" fill="#3F463E" fill-opacity="0.2"/>
<path d="M-519 -1141H2823V-1143H-519V-1141ZM2824 -1140V878H2826V-1140H2824ZM2823 879H-519V881H2823V879ZM-520 878V-1140H-522V878H-520ZM-519 879C-519.552 879 -520 878.552 -520 878H-522C-522 879.657 -520.657 881 -519 881V879ZM2824 878C2824 878.552 2823.55 879 2823 879V881C2824.66 881 2826 879.657 2826 878H2824ZM2823 -1141C2823.55 -1141 2824 -1140.55 2824 -1140H2826C2826 -1141.66 2824.66 -1143 2823 -1143V-1141ZM-519 -1143C-520.657 -1143 -522 -1141.66 -522 -1140H-520C-520 -1140.55 -519.552 -1141 -519 -1141V-1143Z" fill="black" fill-opacity="0.1"/>
<rect width="360" height="800" transform="translate(-31 -97)" fill="#F1F1F1"/>
<path d="M64.3955 32.2507C64.5044 33.6325 64.7342 34.8653 65.085 35.9493C65.4358 37.0333 65.8592 37.9207 66.3551 38.6116C66.8631 39.3025 67.4498 39.8743 68.1151 40.3269C68.7804 40.7677 69.4638 41.0833 70.1654 41.2739C70.867 41.4526 71.6169 41.5419 72.4153 41.5419C74.9676 41.5419 76.9574 41.0595 78.3847 40.0946C79.8242 39.1179 80.9733 37.617 81.8321 35.592L86.6585 37.2358C86.223 38.3913 85.6666 39.4812 84.9892 40.5056C84.3239 41.5181 83.5195 42.4533 82.576 43.3109C81.6325 44.1686 80.5802 44.9071 79.4189 45.5265C78.2698 46.134 76.9695 46.6105 75.5179 46.9559C74.0664 47.3014 72.5362 47.4741 70.9274 47.4741C68.5445 47.4741 66.2886 47.0632 64.1597 46.2412C62.0428 45.4193 60.1982 44.2757 58.6257 42.8106C57.0653 41.3335 55.8254 39.5169 54.9061 37.3609C53.9989 35.2048 53.5453 32.8582 53.5453 30.321C53.5453 27.7837 53.9989 25.4252 54.9061 23.2453C55.8254 21.0654 57.0653 19.231 58.6257 17.742C60.1982 16.2411 62.0428 15.0678 64.1597 14.2221C66.2886 13.3763 68.5445 12.9535 70.9274 12.9535C73.3104 12.9535 75.5603 13.3763 77.6771 14.2221C79.806 15.0678 81.6507 16.2411 83.2111 17.742C84.7836 19.231 86.0234 21.0654 86.9306 23.2453C87.8499 25.4252 88.3096 27.7837 88.3096 30.321L87.856 32.2507H64.3955ZM64.5225 26.533H77.3324C77.0179 23.7933 76.3223 21.798 75.2458 20.5473C74.1692 19.2965 72.7419 18.6712 70.9637 18.6712C70.0807 18.6712 69.2884 18.8141 68.5868 19.1C67.8853 19.374 67.2563 19.8207 66.6998 20.4401C66.1434 21.0476 65.6777 21.8635 65.3027 22.8879C64.9399 23.9005 64.6798 25.1155 64.5225 26.533Z" fill="#6BBF59"/>
<path d="M115.381 19.9398C114.002 19.094 112.248 18.6712 110.119 18.6712C109.26 18.6712 108.462 18.7903 107.724 19.0285C106.986 19.2549 106.278 19.6479 105.601 20.2078C104.936 20.7676 104.367 21.4764 103.895 22.334C103.424 23.1917 103.049 24.2816 102.771 25.6039C102.492 26.9261 102.353 28.427 102.353 30.1065C102.353 31.7861 102.504 33.2811 102.807 34.5914C103.109 35.9017 103.508 36.9737 104.004 37.8076C104.512 38.6414 105.117 39.3263 105.819 39.8624C106.532 40.3984 107.264 40.7796 108.014 41.0059C108.764 41.2203 109.575 41.3275 110.446 41.3275C112.998 41.3275 114.988 40.8451 116.415 39.8802C117.854 38.9035 119.004 37.4026 119.862 35.3775L124.689 37.0214C124.253 38.1768 123.697 39.2668 123.019 40.2912C122.354 41.3037 121.55 42.2388 120.606 43.0965C119.663 43.9541 118.61 44.6927 117.449 45.3121C116.3 45.9196 115 46.3961 113.548 46.7415C112.097 47.087 110.566 47.2597 108.958 47.2597C106.575 47.2597 104.319 46.8487 102.19 46.0268C100.073 45.2049 98.2284 44.0613 96.6559 42.5961C95.0955 41.1191 93.8557 39.3025 92.9364 37.1465C92.0292 34.9904 91.5756 32.6438 91.5756 30.1065C91.5756 28.0696 91.8659 26.1518 92.4465 24.3531C93.0271 22.5544 93.8436 20.9642 94.8959 19.5824C95.9604 18.2006 97.2063 17.0095 98.6336 16.0089C100.061 15.0083 101.646 14.2519 103.387 13.7397C105.129 13.2155 106.956 12.9535 108.867 12.9535C110.379 12.9535 111.8 13.0964 113.131 13.3823C114.461 13.6563 115.647 14.0374 116.687 14.5258C117.74 15.0023 118.719 15.5979 119.626 16.3126C120.534 17.0273 121.326 17.7897 122.003 18.5997C122.693 19.3978 123.334 20.2971 123.927 21.2977C124.544 22.2387 124.852 23.2691 124.852 24.3888C124.852 25.9731 124.284 27.3251 123.146 28.4448C122.022 29.5526 120.655 30.1065 119.046 30.1065C117.437 30.1065 116.064 29.5526 114.927 28.4448C113.802 27.3251 113.24 25.9731 113.24 24.3888C113.24 23.5074 113.427 22.6795 113.802 21.9052C114.189 21.1309 114.715 20.4758 115.381 19.9398Z" fill="#6BBF59"/>
<path d="M139.132 14.2936C141.26 13.4716 143.516 13.0607 145.899 13.0607C148.282 13.0607 150.532 13.4716 152.649 14.2936C154.778 15.1155 156.629 16.265 158.201 17.742C159.774 19.2072 161.013 21.0178 161.921 23.1738C162.84 25.3299 163.3 27.6765 163.3 30.2138C163.3 32.751 162.84 35.0976 161.921 37.2537C161.013 39.4097 159.774 41.2263 158.201 42.7034C156.629 44.1685 154.778 45.3121 152.649 46.134C150.532 46.9559 148.282 47.3669 145.899 47.3669C143.516 47.3669 141.26 46.9559 139.132 46.134C137.015 45.3121 135.17 44.1685 133.598 42.7034C132.037 41.2263 130.797 39.4097 129.878 37.2537C128.971 35.0976 128.517 32.751 128.517 30.2138C128.517 27.6765 128.971 25.3299 129.878 23.1738C130.797 21.0178 132.037 19.2072 133.598 17.742C135.17 16.265 137.015 15.1155 139.132 14.2936ZM145.899 18.7784C145.053 18.7784 144.297 18.8975 143.631 19.1357C142.966 19.374 142.355 19.767 141.799 20.315C141.242 20.8629 140.783 21.5717 140.42 22.4413C140.069 23.3108 139.791 24.3948 139.585 25.6932C139.392 26.9916 139.295 28.4984 139.295 30.2138C139.295 31.9291 139.392 33.4359 139.585 34.7343C139.791 36.0327 140.069 37.1167 140.42 37.9862C140.783 38.8558 141.242 39.5646 141.799 40.1125C142.355 40.6605 142.966 41.0535 143.631 41.2918C144.297 41.53 145.053 41.6491 145.899 41.6491C146.964 41.6491 147.889 41.4526 148.675 41.0595C149.462 40.6545 150.145 40.0113 150.726 39.1298C151.318 38.2483 151.76 37.0631 152.05 35.5741C152.353 34.0851 152.504 32.2983 152.504 30.2138C152.504 28.1292 152.353 26.3424 152.05 24.8534C151.76 23.3644 151.318 22.1792 150.726 21.2977C150.145 20.4162 149.462 19.779 148.675 19.3859C147.889 18.9809 146.964 18.7784 145.899 18.7784Z" fill="#6BBF59"/>
<path d="M195.734 8.54556C195.734 6.96128 196.211 8.84749 196.084 7.85506C198.471 7.16456 196.691 7.25813 196.084 7.85506C196.733 7.61097 195.879 9.58107 196.63 9.58107C197.235 9.58107 196.906 10.7831 197.487 10.9618C198.237 11.1881 197.357 8.6912 197.487 9.7535C194.717 16.6458 196.28 9.97682 196.63 10.4176C196.981 10.8583 197.269 9.16982 197.487 9.7535C197.705 10.3253 198.539 9.58108 201.257 7.16431C201.342 7.73608 201.384 8.37337 201.384 9.07617C201.384 9.80279 201.239 10.5651 200.949 11.3632C200.659 12.1613 200.271 12.9177 199.788 13.6324C199.316 14.3352 198.796 14.9964 198.227 15.6158C197.671 16.2233 197.096 16.7593 196.503 17.2239C198.306 18.9749 199.207 21.125 199.207 23.6741C199.207 25.58 198.784 27.2775 197.937 28.7665C197.102 30.2435 195.947 31.4407 194.471 32.3579C192.996 33.2632 191.308 33.9481 189.409 34.4127C187.522 34.8773 185.466 35.1095 183.24 35.1095C181.401 35.1095 179.641 34.907 177.96 34.502C176.859 34.6688 176.013 34.9606 175.42 35.3775C174.827 35.7945 174.531 36.1816 174.531 36.539C174.531 36.8963 174.682 37.2239 174.984 37.5217C175.287 37.8195 175.62 37.9684 175.982 37.9684H186.143C191.26 37.9684 194.955 38.689 197.229 40.1304C199.515 41.5717 200.659 43.9482 200.659 47.2597C200.659 48.8559 200.459 50.3032 200.06 51.6016C199.661 52.9119 199.116 54.0256 198.427 54.9429C197.749 55.872 196.909 56.6879 195.905 57.3907C194.901 58.1055 193.848 58.6772 192.748 59.106C191.647 59.5349 190.419 59.8803 189.064 60.1424C187.71 60.4045 186.397 60.5831 185.127 60.6784C183.857 60.7856 182.502 60.8392 181.063 60.8392C178.765 60.8392 176.684 60.5891 174.821 60.0888C172.97 59.6004 171.446 58.9274 170.249 58.0697C169.063 57.2121 168.15 56.2234 167.509 55.1037C166.868 53.9959 166.547 52.8106 166.547 51.548C166.547 48.9631 168.053 46.944 171.065 45.4908C169.892 44.9071 168.967 44.109 168.289 43.0965C167.612 42.072 167.273 40.8391 167.273 39.3978C167.273 37.7897 167.745 36.3305 168.688 35.0202C169.632 33.7099 170.902 32.7569 172.499 32.1613C171.083 31.1727 169.977 29.9696 169.178 28.552C168.392 27.1345 167.999 25.5086 167.999 23.6741C167.999 22.1494 168.271 20.7796 168.815 19.5646C169.372 18.3495 170.116 17.343 171.047 16.5449C171.991 15.7349 173.116 15.0678 174.422 14.5437C175.74 14.0077 177.125 13.6265 178.577 13.4002C180.029 13.1738 181.583 13.0607 183.24 13.0607C187.062 13.0607 190.322 13.6801 193.02 14.9189C193.637 14.2161 194.115 13.555 194.453 12.9356C194.872 12.1697 195.558 11.1342 194.775 10.3686C195.827 8.81545 195.734 10.0584 195.734 8.54556ZM183.603 18.6712C181.897 18.6712 180.561 19.1536 179.593 20.1185C178.637 21.0833 178.16 22.477 178.16 24.2995C178.16 26.1339 178.644 27.5634 179.611 28.5878C180.579 29.6003 181.91 30.1065 183.603 30.1065C185.284 30.1065 186.609 29.5943 187.577 28.5699C188.556 27.5336 189.046 26.1101 189.046 24.2995C189.046 22.5008 188.562 21.1131 187.595 20.1363C186.627 19.1596 185.296 18.6712 183.603 18.6712ZM178.069 46.545C176.678 47.5218 175.982 48.7129 175.982 50.1185C175.982 51.5361 176.43 52.4831 177.325 52.9595C178.22 53.4479 179.95 53.6921 182.514 53.6921C188.32 53.6921 191.224 52.2627 191.224 49.4038C191.224 48.6891 190.921 48.034 190.316 47.4384C189.712 46.8428 189.046 46.545 188.32 46.545H178.069Z" fill="#6BBF59"/>
<path d="M202.473 13.6682H216.263V33.6801C216.263 35.5622 216.432 37.0273 216.771 38.0756C217.121 39.1238 217.617 39.8445 218.258 40.2376C218.912 40.6307 219.795 40.8272 220.907 40.8272C221.924 40.8272 222.964 40.4043 224.028 39.5586C225.105 38.7129 226.121 37.5336 227.076 36.0208L227.149 19.3859H223.52V13.6682H237.31V40.8272H240.939V46.545H229.671L227.131 41.6849C225.087 45.4014 221.706 47.2597 216.988 47.2597C215.295 47.2597 213.813 47.0334 212.543 46.5807C211.273 46.1281 210.233 45.5087 209.422 44.7225C208.612 43.9244 207.952 42.9178 207.444 41.7027C206.949 40.4758 206.598 39.1655 206.392 37.7718C206.199 36.3662 206.102 34.7641 206.102 32.9654V19.3859H202.473V13.6682Z" fill="#6BBF59"/>
<path d="M248.432 9.86234C247.307 8.74262 246.745 7.39064 246.745 5.80636C246.745 4.22209 247.307 2.87604 248.432 1.76824C249.034 1.17579 249.701 0.740083 250.435 0.461103C251.088 0.21281 251.793 0.0886644 252.551 0.0886644C254.16 0.0886644 255.527 0.648521 256.652 1.76824C257.789 2.87604 258.357 4.22209 258.357 5.80636C258.357 7.39064 257.789 8.74262 256.652 9.86234C255.527 10.9701 254.16 11.524 252.551 11.524C250.942 11.524 249.569 10.9701 248.432 9.86234ZM243.842 13.6682H257.631V40.8272H261.26V46.545H243.842V40.8272H247.471V19.3859H243.842V13.6682Z" fill="#6BBF59"/>
<path d="M295.371 25.0142V40.8272H299V46.545H287.696L286.081 42.8284C284.848 44.5676 283.414 45.7588 281.781 46.402C280.16 47.0453 277.892 47.3669 274.977 47.3669C273.465 47.3669 272.056 47.1048 270.75 46.5807C269.455 46.0685 268.348 45.3657 267.429 44.4723C266.522 43.5789 265.808 42.5068 265.288 41.256C264.78 40.0053 264.526 38.6652 264.526 37.2358C264.526 34.77 265.506 32.7272 267.465 31.1071C269.425 29.4752 271.929 28.6593 274.977 28.6593C277.433 28.6593 279.465 28.8915 281.074 29.3561C282.682 29.8088 284.061 30.5354 285.211 31.536V23.96C285.211 22.8879 285.059 21.9946 284.757 21.2798C284.467 20.5532 284.025 19.9993 283.432 19.6182C282.84 19.2251 282.174 18.9511 281.437 18.7962C280.699 18.6414 279.816 18.564 278.787 18.564C277.965 18.564 277.221 18.7367 276.556 19.0821C276.931 19.8564 277.118 20.6723 277.118 21.53C277.118 23.1143 276.55 24.4663 275.413 25.586C274.288 26.6938 272.921 27.2477 271.312 27.2477C269.703 27.2477 268.33 26.6938 267.193 25.586C266.068 24.4663 265.506 23.1143 265.506 21.53C265.506 20.72 265.663 19.9576 265.978 19.2429C266.304 18.5282 266.752 17.9029 267.32 17.3668C267.804 16.8665 268.306 16.4198 268.826 16.0267C269.346 15.6217 270 15.2227 270.786 14.8296C271.584 14.4246 272.449 14.0911 273.381 13.829C274.312 13.5669 275.425 13.3585 276.719 13.2036C278.025 13.0369 279.453 12.9535 281.001 12.9535C283.009 12.9535 284.896 13.2453 286.662 13.829C288.428 14.4127 289.952 15.2227 291.234 16.259C292.517 17.2953 293.527 18.5699 294.264 20.0827C295.002 21.5955 295.371 23.2394 295.371 25.0142ZM285.211 38.6116V36.1459C284.461 35.4431 283.614 34.8534 282.67 34.377C281.739 33.8886 280.874 33.6444 280.076 33.6444C278.358 33.6444 277.148 33.9303 276.447 34.502C275.745 35.0619 274.977 35.9731 274.977 37.2358C274.977 38.7486 275.697 39.8624 276.302 40.5771C276.907 41.2918 278.031 41.6491 279.677 41.6491C280.608 41.6491 281.576 41.3573 282.58 40.7736C283.596 40.178 284.473 39.4574 285.211 38.6116Z" fill="#6BBF59"/>
<path d="M200.949 11.3632C202.806 6.25796 198.683 -1.07586 185.619 0.132236C187.318 3.54039 191.351 11.9971 200.949 11.3632Z" fill="#6BBF59"/>
<path d="M40.3903 43.8885C43.4555 23.1443 34.0896 7.02902 13.1442 1.64232e-09C7.92936 14.9874 15.5282 46.6315 40.3903 43.8885Z" fill="#6BBF59"/>
<path d="M41.3255 45.1115C31.1024 26.0118 19.602 31.9504 0.192871 31.9504C5.08129 47.6042 21.2752 53.3671 41.3255 45.1115Z" fill="#A6D89B"/>
<path d="M64.3956 32.2507C64.5045 33.6325 64.7343 34.8653 65.0851 35.9493C65.4359 37.0333 65.8593 37.9207 66.3552 38.6116C66.8633 39.3025 67.4499 39.8743 68.1152 40.3269C68.7805 40.7677 69.4639 41.0833 70.1655 41.2739C70.8671 41.4526 71.617 41.5419 72.4154 41.5419C74.9677 41.5419 76.9575 41.0595 78.3848 40.0946C79.8243 39.1179 80.9734 37.617 81.8322 35.592L86.6586 37.2358C86.2231 38.3913 85.6667 39.4812 84.9893 40.5056C84.324 41.5181 83.5196 42.4533 82.5761 43.3109C81.6326 44.1686 80.5803 44.9071 79.4191 45.5265C78.2699 46.134 76.9696 46.6105 75.518 46.9559C74.0665 47.3014 72.5363 47.4741 70.9276 47.4741C68.5446 47.4741 66.2887 47.0632 64.1598 46.2412C62.0429 45.4193 60.1983 44.2757 58.6258 42.8106C57.0654 41.3335 55.8255 39.5169 54.9062 37.3609C53.999 35.2048 53.5454 32.8582 53.5454 30.321C53.5454 27.7837 53.999 25.4252 54.9062 23.2453C55.8255 21.0654 57.0654 19.231 58.6258 17.742C60.1983 16.2411 62.0429 15.0678 64.1598 14.2221C66.2887 13.3763 68.5446 12.9535 70.9276 12.9535C73.3105 12.9535 75.5604 13.3763 77.6772 14.2221C79.8061 15.0678 81.6508 16.2411 83.2112 17.742C84.7837 19.231 86.0235 21.0654 86.9308 23.2453C87.8501 25.4252 88.3097 27.7837 88.3097 30.321L87.8561 32.2507H64.3956ZM64.5227 26.533H77.3325C77.018 23.7933 76.3224 21.798 75.2459 20.5473C74.1693 19.2965 72.742 18.6712 70.9639 18.6712C70.0808 18.6712 69.2885 18.8141 68.587 19.1C67.8854 19.374 67.2564 19.8207 66.7 20.4401C66.1435 21.0476 65.6778 21.8635 65.3029 22.8879C64.94 23.9005 64.6799 25.1155 64.5227 26.533Z" fill="#6BBF59"/>
<path d="M115.381 19.9398C114.002 19.094 112.248 18.6712 110.119 18.6712C109.26 18.6712 108.462 18.7903 107.724 19.0285C106.986 19.2549 106.279 19.6479 105.601 20.2078C104.936 20.7676 104.367 21.4764 103.896 22.334C103.424 23.1917 103.049 24.2816 102.771 25.6039C102.492 26.9261 102.353 28.427 102.353 30.1065C102.353 31.7861 102.505 33.2811 102.807 34.5914C103.109 35.9017 103.509 36.9737 104.004 37.8076C104.512 38.6414 105.117 39.3263 105.819 39.8624C106.533 40.3984 107.264 40.7796 108.014 41.0059C108.764 41.2203 109.575 41.3275 110.446 41.3275C112.998 41.3275 114.988 40.8451 116.415 39.8802C117.855 38.9035 119.004 37.4026 119.862 35.3775L124.689 37.0214C124.253 38.1768 123.697 39.2668 123.02 40.2912C122.354 41.3037 121.55 42.2388 120.606 43.0965C119.663 43.9541 118.611 44.6927 117.449 45.3121C116.3 45.9196 115 46.3961 113.548 46.7415C112.097 47.087 110.567 47.2597 108.958 47.2597C106.575 47.2597 104.319 46.8487 102.19 46.0268C100.073 45.2049 98.2285 44.0613 96.656 42.5961C95.0956 41.1191 93.8558 39.3025 92.9365 37.1465C92.0293 34.9904 91.5757 32.6438 91.5757 30.1065C91.5757 28.0696 91.866 26.1518 92.4466 24.3531C93.0272 22.5544 93.8437 20.9642 94.8961 19.5824C95.9605 18.2006 97.2064 17.0095 98.6338 16.0089C100.061 15.0083 101.646 14.2519 103.388 13.7397C105.129 13.2155 106.956 12.9535 108.867 12.9535C110.379 12.9535 111.8 13.0964 113.131 13.3823C114.462 13.6563 115.647 14.0374 116.687 14.5258C117.74 15.0023 118.719 15.5979 119.627 16.3126C120.534 17.0273 121.326 17.7897 122.004 18.5997C122.693 19.3978 123.334 20.2971 123.927 21.2977C124.544 22.2387 124.852 23.2691 124.852 24.3888C124.852 25.9731 124.284 27.3251 123.147 28.4448C122.022 29.5526 120.655 30.1065 119.046 30.1065C117.437 30.1065 116.064 29.5526 114.927 28.4448C113.802 27.3251 113.24 25.9731 113.24 24.3888C113.24 23.5074 113.427 22.6795 113.802 21.9052C114.189 21.1309 114.716 20.4758 115.381 19.9398Z" fill="#6BBF59"/>
<path d="M139.132 14.2936C141.261 13.4716 143.516 13.0607 145.899 13.0607C148.282 13.0607 150.532 13.4716 152.649 14.2936C154.778 15.1155 156.629 16.265 158.201 17.742C159.774 19.2072 161.014 21.0178 161.921 23.1738C162.84 25.3299 163.3 27.6765 163.3 30.2138C163.3 32.751 162.84 35.0976 161.921 37.2537C161.014 39.4097 159.774 41.2263 158.201 42.7034C156.629 44.1685 154.778 45.3121 152.649 46.134C150.532 46.9559 148.282 47.3669 145.899 47.3669C143.516 47.3669 141.261 46.9559 139.132 46.134C137.015 45.3121 135.17 44.1685 133.598 42.7034C132.037 41.2263 130.797 39.4097 129.878 37.2537C128.971 35.0976 128.517 32.751 128.517 30.2138C128.517 27.6765 128.971 25.3299 129.878 23.1738C130.797 21.0178 132.037 19.2072 133.598 17.742C135.17 16.265 137.015 15.1155 139.132 14.2936ZM145.899 18.7784C145.053 18.7784 144.297 18.8975 143.631 19.1357C142.966 19.374 142.355 19.7671 141.799 20.315C141.242 20.8629 140.783 21.5717 140.42 22.4413C140.069 23.3108 139.791 24.3948 139.585 25.6932C139.392 26.9916 139.295 28.4984 139.295 30.2138C139.295 31.9291 139.392 33.4359 139.585 34.7343C139.791 36.0327 140.069 37.1167 140.42 37.9862C140.783 38.8558 141.242 39.5646 141.799 40.1125C142.355 40.6605 142.966 41.0535 143.631 41.2918C144.297 41.53 145.053 41.6491 145.899 41.6491C146.964 41.6491 147.889 41.4526 148.675 41.0595C149.462 40.6545 150.145 40.0113 150.726 39.1298C151.318 38.2483 151.76 37.0631 152.05 35.5741C152.353 34.0851 152.504 32.2983 152.504 30.2138C152.504 28.1292 152.353 26.3424 152.05 24.8534C151.76 23.3644 151.318 22.1792 150.726 21.2977C150.145 20.4162 149.462 19.779 148.675 19.3859C147.889 18.9809 146.964 18.7784 145.899 18.7784Z" fill="#6BBF59"/>
<path d="M195.734 8.54556C195.734 6.96128 196.212 8.84749 196.085 7.85506C198.471 7.16456 196.691 7.25813 196.085 7.85506C196.733 7.61097 195.879 9.58107 196.631 9.58107C197.235 9.58107 196.907 10.7831 197.487 10.9618C198.237 11.1881 197.357 8.6912 197.487 9.7535C194.717 16.6458 196.28 9.97682 196.631 10.4176C196.981 10.8583 197.269 9.16982 197.487 9.7535C197.705 10.3253 198.539 9.58108 201.257 7.16431C201.342 7.73608 201.384 8.37337 201.384 9.07617C201.384 9.80279 201.239 10.5651 200.949 11.3632C200.659 12.1613 200.272 12.9177 199.788 13.6324C199.316 14.3352 198.796 14.9964 198.227 15.6158C197.671 16.2233 197.096 16.7593 196.504 17.2239C198.306 18.9749 199.207 21.125 199.207 23.6741C199.207 25.58 198.784 27.2775 197.937 28.7665C197.102 30.2435 195.947 31.4407 194.471 32.3579C192.996 33.2632 191.308 33.9481 189.409 34.4127C187.522 34.8773 185.466 35.1095 183.24 35.1095C181.402 35.1095 179.642 34.907 177.96 34.502C176.859 34.6688 176.013 34.9606 175.42 35.3775C174.827 35.7945 174.531 36.1816 174.531 36.539C174.531 36.8963 174.682 37.2239 174.985 37.5217C175.287 37.8195 175.62 37.9684 175.983 37.9684H186.143C191.26 37.9684 194.955 38.689 197.229 40.1304C199.516 41.5717 200.659 43.9482 200.659 47.2597C200.659 48.8559 200.459 50.3032 200.06 51.6016C199.661 52.9119 199.116 54.0256 198.427 54.9429C197.75 55.872 196.909 56.6879 195.905 57.3907C194.901 58.1055 193.849 58.6772 192.748 59.106C191.647 59.5349 190.419 59.8803 189.064 60.1424C187.71 60.4045 186.397 60.5831 185.127 60.6784C183.857 60.7856 182.502 60.8392 181.063 60.8392C178.765 60.8392 176.684 60.5891 174.821 60.0888C172.971 59.6004 171.446 58.9274 170.249 58.0697C169.064 57.2121 168.15 56.2234 167.509 55.1037C166.868 53.9959 166.548 52.8106 166.548 51.548C166.548 48.9631 168.053 46.944 171.065 45.4908C169.892 44.9071 168.967 44.109 168.289 43.0965C167.612 42.072 167.273 40.8391 167.273 39.3978C167.273 37.7897 167.745 36.3305 168.689 35.0202C169.632 33.7099 170.902 32.7569 172.499 32.1613C171.084 31.1727 169.977 29.9696 169.178 28.5521C168.392 27.1345 167.999 25.5086 167.999 23.6741C167.999 22.1494 168.271 20.7796 168.816 19.5646C169.372 18.3495 170.116 17.343 171.047 16.5449C171.991 15.7349 173.116 15.0678 174.422 14.5437C175.741 14.0077 177.126 13.6265 178.577 13.4002C180.029 13.1738 181.583 13.0607 183.24 13.0607C187.063 13.0607 190.322 13.6801 193.02 14.9189C193.637 14.2161 194.115 13.555 194.453 12.9356C194.872 12.1697 195.559 11.1342 194.775 10.3686C195.827 8.81545 195.734 10.0584 195.734 8.54556ZM183.603 18.6712C181.898 18.6712 180.561 19.1536 179.593 20.1185C178.638 21.0833 178.16 22.477 178.16 24.2995C178.16 26.1339 178.644 27.5634 179.611 28.5878C180.579 29.6003 181.91 30.1065 183.603 30.1065C185.284 30.1065 186.609 29.5943 187.577 28.5699C188.556 27.5336 189.046 26.1101 189.046 24.2995C189.046 22.5008 188.563 21.1131 187.595 20.1363C186.627 19.1596 185.297 18.6712 183.603 18.6712ZM178.069 46.545C176.678 47.5218 175.983 48.7129 175.983 50.1185C175.983 51.5361 176.43 52.4831 177.325 52.9595C178.22 53.4479 179.95 53.6921 182.514 53.6921C188.321 53.6921 191.224 52.2627 191.224 49.4038C191.224 48.6891 190.921 48.034 190.316 47.4384C189.712 46.8428 189.046 46.545 188.321 46.545H178.069Z" fill="#6BBF59"/>
<path d="M202.473 13.6682H216.263V33.6801C216.263 35.5622 216.432 37.0273 216.771 38.0756C217.121 39.1238 217.617 39.8445 218.259 40.2376C218.912 40.6307 219.795 40.8272 220.908 40.8272C221.924 40.8272 222.964 40.4043 224.028 39.5586C225.105 38.7129 226.121 37.5336 227.077 36.0208L227.149 19.3859H223.52V13.6682H237.31V40.8272H240.939V46.545H229.671L227.131 41.6849C225.087 45.4014 221.706 47.2597 216.988 47.2597C215.295 47.2597 213.813 47.0334 212.543 46.5807C211.273 46.1281 210.233 45.5087 209.422 44.7225C208.612 43.9244 207.953 42.9177 207.445 41.7027C206.949 40.4758 206.598 39.1655 206.392 37.7718C206.199 36.3662 206.102 34.7641 206.102 32.9654V19.3859H202.473V13.6682Z" fill="#6BBF59"/>
<path d="M248.432 9.86234C247.307 8.74262 246.745 7.39064 246.745 5.80636C246.745 4.22209 247.307 2.87604 248.432 1.76824C249.034 1.17579 249.702 0.740083 250.435 0.461103C251.088 0.21281 251.794 0.0886644 252.551 0.0886644C254.16 0.0886644 255.527 0.648521 256.652 1.76824C257.789 2.87604 258.357 4.22209 258.357 5.80636C258.357 7.39064 257.789 8.74262 256.652 9.86234C255.527 10.9701 254.16 11.524 252.551 11.524C250.942 11.524 249.569 10.9701 248.432 9.86234ZM243.842 13.6682H257.631V40.8272H261.26V46.545H243.842V40.8272H247.471V19.3859H243.842V13.6682Z" fill="#6BBF59"/>
<path d="M295.371 25.0142V40.8272H299V46.545H287.696L286.082 42.8284C284.848 44.5676 283.414 45.7588 281.781 46.402C280.161 47.0453 277.892 47.3669 274.977 47.3669C273.465 47.3669 272.056 47.1048 270.75 46.5807C269.455 46.0685 268.349 45.3657 267.429 44.4723C266.522 43.5789 265.808 42.5068 265.288 41.256C264.78 40.0053 264.526 38.6652 264.526 37.2358C264.526 34.77 265.506 32.7272 267.466 31.1071C269.425 29.4752 271.929 28.6593 274.977 28.6593C277.433 28.6593 279.465 28.8915 281.074 29.3561C282.683 29.8088 284.062 30.5354 285.211 31.536V23.96C285.211 22.8879 285.059 21.9946 284.757 21.2798C284.467 20.5532 284.025 19.9993 283.433 19.6182C282.84 19.2251 282.175 18.9511 281.437 18.7962C280.699 18.6414 279.816 18.564 278.788 18.564C277.965 18.564 277.221 18.7367 276.556 19.0821C276.931 19.8564 277.118 20.6723 277.118 21.53C277.118 23.1143 276.55 24.4663 275.413 25.586C274.288 26.6938 272.921 27.2477 271.312 27.2477C269.703 27.2477 268.33 26.6938 267.193 25.586C266.069 24.4663 265.506 23.1143 265.506 21.53C265.506 20.72 265.663 19.9576 265.978 19.2429C266.304 18.5282 266.752 17.9029 267.32 17.3668C267.804 16.8665 268.306 16.4198 268.826 16.0267C269.347 15.6217 270 15.2227 270.786 14.8296C271.584 14.4246 272.449 14.0911 273.381 13.829C274.312 13.5669 275.425 13.3585 276.719 13.2036C278.026 13.0369 279.453 12.9535 281.001 12.9535C283.009 12.9535 284.896 13.2453 286.662 13.829C288.428 14.4127 289.952 15.2227 291.235 16.259C292.517 17.2953 293.527 18.5699 294.265 20.0827C295.002 21.5955 295.371 23.2394 295.371 25.0142ZM285.211 38.6116V36.1459C284.461 35.4431 283.614 34.8534 282.67 34.377C281.739 33.8886 280.874 33.6444 280.076 33.6444C278.358 33.6444 277.149 33.9303 276.447 34.502C275.745 35.0619 274.977 35.9731 274.977 37.2358C274.977 38.7486 275.697 39.8624 276.302 40.5771C276.907 41.2918 278.032 41.6491 279.677 41.6491C280.608 41.6491 281.576 41.3573 282.58 40.7736C283.596 40.178 284.473 39.4574 285.211 38.6116Z" fill="#6BBF59"/>
<path d="M200.949 11.3632C202.806 6.25796 198.683 -1.07586 185.619 0.132236C187.318 3.54039 191.351 11.9971 200.949 11.3632Z" fill="#6BBF59"/>
<path d="M40.3901 43.8885C43.4552 23.1443 34.0894 7.02902 13.144 0C7.92915 14.9874 15.528 46.6315 40.3901 43.8885Z" fill="#6BBF59"/>
<path d="M41.3255 45.1116C31.1024 26.0118 19.602 31.9505 0.192873 31.9505C5.08129 47.6042 21.2752 53.3672 41.3255 45.1116Z" fill="#A6D89B"/>
</svg>
