<svg width="300" height="61" viewBox="0 0 300 61" fill="none" xmlns="http://www.w3.org/2000/svg">
<path d="M65.3956 32.2507C65.5045 33.6325 65.7343 34.8653 66.0851 35.9493C66.4359 37.0333 66.8593 37.9207 67.3552 38.6116C67.8633 39.3025 68.4499 39.8743 69.1152 40.3269C69.7805 40.7677 70.4639 41.0833 71.1655 41.2739C71.8671 41.4526 72.617 41.5419 73.4154 41.5419C75.9677 41.5419 77.9575 41.0595 79.3848 40.0946C80.8243 39.1179 81.9734 37.617 82.8322 35.592L87.6586 37.2358C87.2231 38.3913 86.6667 39.4812 85.9893 40.5056C85.324 41.5181 84.5196 42.4533 83.5761 43.3109C82.6326 44.1686 81.5803 44.9071 80.4191 45.5265C79.2699 46.134 77.9696 46.6105 76.518 46.9559C75.0665 47.3014 73.5363 47.4741 71.9276 47.4741C69.5446 47.4741 67.2887 47.0632 65.1598 46.2412C63.0429 45.4193 61.1983 44.2757 59.6258 42.8106C58.0654 41.3335 56.8255 39.5169 55.9062 37.3609C54.999 35.2048 54.5454 32.8582 54.5454 30.321C54.5454 27.7837 54.999 25.4252 55.9062 23.2453C56.8255 21.0654 58.0654 19.231 59.6258 17.742C61.1983 16.2411 63.0429 15.0678 65.1598 14.2221C67.2887 13.3763 69.5446 12.9535 71.9276 12.9535C74.3105 12.9535 76.5604 13.3763 78.6772 14.2221C80.8061 15.0678 82.6508 16.2411 84.2112 17.742C85.7837 19.231 87.0235 21.0654 87.9308 23.2453C88.8501 25.4252 89.3097 27.7837 89.3097 30.321L88.8561 32.2507H65.3956ZM65.5227 26.533H78.3325C78.018 23.7933 77.3224 21.798 76.2459 20.5473C75.1693 19.2965 73.742 18.6712 71.9639 18.6712C71.0808 18.6712 70.2885 18.8141 69.587 19.1C68.8854 19.374 68.2564 19.8207 67.7 20.4401C67.1435 21.0476 66.6778 21.8635 66.3029 22.8879C65.94 23.9005 65.6799 25.1155 65.5227 26.533Z" fill="#6BBF59"/>
<path d="M116.381 19.9398C115.002 19.094 113.248 18.6712 111.119 18.6712C110.26 18.6712 109.462 18.7903 108.724 19.0285C107.986 19.2549 107.279 19.6479 106.601 20.2078C105.936 20.7676 105.367 21.4764 104.896 22.334C104.424 23.1917 104.049 24.2816 103.771 25.6039C103.492 26.9261 103.353 28.427 103.353 30.1065C103.353 31.7861 103.505 33.2811 103.807 34.5914C104.109 35.9017 104.509 36.9737 105.004 37.8076C105.512 38.6414 106.117 39.3263 106.819 39.8624C107.533 40.3984 108.264 40.7796 109.014 41.0059C109.764 41.2203 110.575 41.3275 111.446 41.3275C113.998 41.3275 115.988 40.8451 117.415 39.8802C118.855 38.9035 120.004 37.4026 120.862 35.3775L125.689 37.0214C125.253 38.1768 124.697 39.2668 124.02 40.2912C123.354 41.3037 122.55 42.2388 121.606 43.0965C120.663 43.9541 119.611 44.6927 118.449 45.3121C117.3 45.9196 116 46.3961 114.548 46.7415C113.097 47.087 111.567 47.2597 109.958 47.2597C107.575 47.2597 105.319 46.8487 103.19 46.0268C101.073 45.2049 99.2285 44.0613 97.656 42.5961C96.0956 41.1191 94.8558 39.3025 93.9365 37.1465C93.0293 34.9904 92.5757 32.6438 92.5757 30.1065C92.5757 28.0696 92.866 26.1518 93.4466 24.3531C94.0272 22.5544 94.8437 20.9642 95.8961 19.5824C96.9605 18.2006 98.2064 17.0095 99.6338 16.0089C101.061 15.0083 102.646 14.2519 104.388 13.7397C106.129 13.2155 107.956 12.9535 109.867 12.9535C111.379 12.9535 112.8 13.0964 114.131 13.3823C115.462 13.6563 116.647 14.0374 117.687 14.5258C118.74 15.0023 119.719 15.5979 120.627 16.3126C121.534 17.0273 122.326 17.7897 123.004 18.5997C123.693 19.3978 124.334 20.2971 124.927 21.2977C125.544 22.2387 125.852 23.2691 125.852 24.3888C125.852 25.9731 125.284 27.3251 124.147 28.4448C123.022 29.5526 121.655 30.1065 120.046 30.1065C118.437 30.1065 117.064 29.5526 115.927 28.4448C114.802 27.3251 114.24 25.9731 114.24 24.3888C114.24 23.5074 114.427 22.6795 114.802 21.9052C115.189 21.1309 115.716 20.4758 116.381 19.9398Z" fill="#6BBF59"/>
<path d="M140.132 14.2936C142.261 13.4716 144.516 13.0607 146.899 13.0607C149.282 13.0607 151.532 13.4716 153.649 14.2936C155.778 15.1155 157.629 16.265 159.201 17.742C160.774 19.2072 162.014 21.0178 162.921 23.1738C163.84 25.3299 164.3 27.6765 164.3 30.2138C164.3 32.751 163.84 35.0976 162.921 37.2537C162.014 39.4097 160.774 41.2263 159.201 42.7034C157.629 44.1685 155.778 45.3121 153.649 46.134C151.532 46.9559 149.282 47.3669 146.899 47.3669C144.516 47.3669 142.261 46.9559 140.132 46.134C138.015 45.3121 136.17 44.1685 134.598 42.7034C133.037 41.2263 131.797 39.4097 130.878 37.2537C129.971 35.0976 129.517 32.751 129.517 30.2138C129.517 27.6765 129.971 25.3299 130.878 23.1738C131.797 21.0178 133.037 19.2072 134.598 17.742C136.17 16.265 138.015 15.1155 140.132 14.2936ZM146.899 18.7784C146.053 18.7784 145.297 18.8975 144.631 19.1357C143.966 19.374 143.355 19.767 142.799 20.315C142.242 20.8629 141.783 21.5717 141.42 22.4413C141.069 23.3108 140.791 24.3948 140.585 25.6932C140.392 26.9916 140.295 28.4984 140.295 30.2138C140.295 31.9291 140.392 33.4359 140.585 34.7343C140.791 36.0327 141.069 37.1167 141.42 37.9862C141.783 38.8558 142.242 39.5646 142.799 40.1125C143.355 40.6605 143.966 41.0535 144.631 41.2918C145.297 41.53 146.053 41.6491 146.899 41.6491C147.964 41.6491 148.889 41.4526 149.675 41.0595C150.462 40.6545 151.145 40.0113 151.726 39.1298C152.318 38.2483 152.76 37.0631 153.05 35.5741C153.353 34.0851 153.504 32.2983 153.504 30.2138C153.504 28.1292 153.353 26.3424 153.05 24.8534C152.76 23.3644 152.318 22.1792 151.726 21.2977C151.145 20.4162 150.462 19.779 149.675 19.3859C148.889 18.9809 147.964 18.7784 146.899 18.7784Z" fill="#6BBF59"/>
<path d="M196.734 8.54556C196.734 6.96128 197.212 8.84749 197.085 7.85506C197.691 7.25813 199.471 7.16456 197.085 7.85506C197.733 7.61097 196.879 9.58107 197.631 9.58107C198.235 9.58107 197.907 10.7831 198.487 10.9618C199.237 11.1881 198.357 8.6912 198.487 9.7535C195.717 16.6458 197.28 9.97682 197.631 10.4176C197.981 10.8583 198.269 9.16982 198.487 9.7535C198.705 10.3253 199.539 9.58108 202.257 7.16431C202.342 7.73608 202.384 8.37337 202.384 9.07617C202.384 9.80279 202.239 10.5651 201.949 11.3632C201.659 12.1613 201.272 12.9177 200.788 13.6324C200.316 14.3352 199.796 14.9964 199.227 15.6158C198.671 16.2233 198.096 16.7593 197.504 17.2239C199.306 18.9749 200.207 21.125 200.207 23.6741C200.207 25.58 199.784 27.2775 198.937 28.7665C198.102 30.2435 196.947 31.4407 195.471 32.3579C193.996 33.2632 192.308 33.9481 190.409 34.4127C188.522 34.8773 186.466 35.1095 184.24 35.1095C182.402 35.1095 180.642 34.907 178.96 34.502C177.859 34.6688 177.013 34.9606 176.42 35.3775C175.827 35.7945 175.531 36.1816 175.531 36.539C175.531 36.8963 175.682 37.2239 175.985 37.5217C176.287 37.8195 176.62 37.9684 176.983 37.9684H187.143C192.26 37.9684 195.955 38.689 198.229 40.1304C200.516 41.5717 201.659 43.9482 201.659 47.2597C201.659 48.8559 201.459 50.3032 201.06 51.6016C200.661 52.9119 200.116 54.0256 199.427 54.9429C198.75 55.872 197.909 56.6879 196.905 57.3907C195.901 58.1055 194.849 58.6772 193.748 59.106C192.647 59.5349 191.419 59.8803 190.064 60.1424C188.71 60.4045 187.397 60.5831 186.127 60.6784C184.857 60.7856 183.502 60.8392 182.063 60.8392C179.765 60.8392 177.684 60.5891 175.821 60.0888C173.971 59.6004 172.446 58.9274 171.249 58.0697C170.064 57.2121 169.15 56.2234 168.509 55.1037C167.868 53.9959 167.548 52.8106 167.548 51.548C167.548 48.9631 169.053 46.944 172.065 45.4908C170.892 44.9071 169.967 44.109 169.289 43.0965C168.612 42.072 168.273 40.8391 168.273 39.3978C168.273 37.7897 168.745 36.3305 169.689 35.0202C170.632 33.7099 171.902 32.7569 173.499 32.1613C172.084 31.1727 170.977 29.9696 170.178 28.552C169.392 27.1345 168.999 25.5086 168.999 23.6741C168.999 22.1494 169.271 20.7796 169.816 19.5646C170.372 18.3495 171.116 17.343 172.047 16.5449C172.991 15.7349 174.116 15.0678 175.422 14.5437C176.741 14.0077 178.126 13.6265 179.577 13.4002C181.029 13.1738 182.583 13.0607 184.24 13.0607C188.063 13.0607 191.322 13.6801 194.02 14.9189C194.637 14.2161 195.115 13.555 195.453 12.9356C195.872 12.1697 196.559 11.1342 195.775 10.3686C196.827 8.81545 196.734 10.0584 196.734 8.54556ZM184.603 18.6712C182.898 18.6712 181.561 19.1536 180.593 20.1185C179.638 21.0833 179.16 22.477 179.16 24.2995C179.16 26.1339 179.644 27.5634 180.611 28.5878C181.579 29.6003 182.91 30.1065 184.603 30.1065C186.284 30.1065 187.609 29.5943 188.577 28.5699C189.556 27.5336 190.046 26.1101 190.046 24.2995C190.046 22.5008 189.562 21.1131 188.595 20.1363C187.627 19.1596 186.297 18.6712 184.603 18.6712ZM179.069 46.545C177.678 47.5218 176.983 48.7129 176.983 50.1185C176.983 51.5361 177.43 52.4831 178.325 52.9595C179.22 53.4479 180.95 53.6921 183.514 53.6921C189.321 53.6921 192.224 52.2627 192.224 49.4038C192.224 48.6891 191.921 48.034 191.316 47.4384C190.712 46.8428 190.046 46.545 189.321 46.545H179.069Z" fill="#6BBF59"/>
<path d="M203.473 13.6682H217.263V33.6801C217.263 35.5622 217.432 37.0273 217.771 38.0756C218.121 39.1238 218.617 39.8445 219.259 40.2376C219.912 40.6307 220.795 40.8272 221.908 40.8272C222.924 40.8272 223.964 40.4043 225.028 39.5586C226.105 38.7129 227.121 37.5336 228.077 36.0208L228.149 19.3859H224.52V13.6682H238.31V40.8272H241.939V46.545H230.671L228.131 41.6849C226.087 45.4014 222.706 47.2597 217.988 47.2597C216.295 47.2597 214.813 47.0334 213.543 46.5807C212.273 46.1281 211.233 45.5087 210.422 44.7225C209.612 43.9244 208.953 42.9178 208.445 41.7027C207.949 40.4758 207.598 39.1655 207.392 37.7718C207.199 36.3662 207.102 34.7641 207.102 32.9654V19.3859H203.473V13.6682Z" fill="#6BBF59"/>
<path d="M249.432 9.86234C248.307 8.74262 247.745 7.39064 247.745 5.80636C247.745 4.22209 248.307 2.87604 249.432 1.76824C250.034 1.17579 250.702 0.740083 251.435 0.461103C252.088 0.21281 252.794 0.0886644 253.551 0.0886644C255.16 0.0886644 256.527 0.648521 257.652 1.76824C258.789 2.87604 259.357 4.22209 259.357 5.80636C259.357 7.39064 258.789 8.74262 257.652 9.86234C256.527 10.9701 255.16 11.524 253.551 11.524C251.942 11.524 250.569 10.9701 249.432 9.86234ZM244.842 13.6682H258.631V40.8272H262.26V46.545H244.842V40.8272H248.471V19.3859H244.842V13.6682Z" fill="#6BBF59"/>
<path d="M296.371 25.0142V40.8272H300V46.545H288.696L287.082 42.8284C285.848 44.5676 284.414 45.7588 282.781 46.402C281.161 47.0453 278.892 47.3669 275.977 47.3669C274.465 47.3669 273.056 47.1048 271.75 46.5807C270.455 46.0685 269.349 45.3657 268.429 44.4723C267.522 43.5789 266.808 42.5068 266.288 41.256C265.78 40.0053 265.526 38.6652 265.526 37.2358C265.526 34.77 266.506 32.7272 268.466 31.1071C270.425 29.4752 272.929 28.6593 275.977 28.6593C278.433 28.6593 280.465 28.8915 282.074 29.3561C283.683 29.8088 285.062 30.5354 286.211 31.536V23.96C286.211 22.8879 286.059 21.9946 285.757 21.2798C285.467 20.5532 285.025 19.9993 284.433 19.6182C283.84 19.2251 283.175 18.9511 282.437 18.7962C281.699 18.6414 280.816 18.564 279.788 18.564C278.965 18.564 278.221 18.7367 277.556 19.0821C277.931 19.8564 278.118 20.6723 278.118 21.53C278.118 23.1143 277.55 24.4663 276.413 25.586C275.288 26.6938 273.921 27.2477 272.312 27.2477C270.703 27.2477 269.33 26.6938 268.193 25.586C267.069 24.4663 266.506 23.1143 266.506 21.53C266.506 20.72 266.663 19.9576 266.978 19.2429C267.304 18.5282 267.752 17.9029 268.32 17.3668C268.804 16.8665 269.306 16.4198 269.826 16.0267C270.347 15.6217 271 15.2227 271.786 14.8296C272.584 14.4246 273.449 14.0911 274.381 13.829C275.312 13.5669 276.425 13.3585 277.719 13.2036C279.026 13.0369 280.453 12.9535 282.001 12.9535C284.009 12.9535 285.896 13.2453 287.662 13.829C289.428 14.4127 290.952 15.2227 292.235 16.259C293.517 17.2953 294.527 18.5699 295.265 20.0827C296.002 21.5955 296.371 23.2394 296.371 25.0142ZM286.211 38.6116V36.1459C285.461 35.4431 284.614 34.8534 283.67 34.377C282.739 33.8886 281.874 33.6444 281.076 33.6444C279.358 33.6444 278.149 33.9303 277.447 34.502C276.745 35.0619 275.977 35.9731 275.977 37.2358C275.977 38.7486 276.697 39.8624 277.302 40.5771C277.907 41.2918 279.032 41.6491 280.677 41.6491C281.608 41.6491 282.576 41.3573 283.58 40.7736C284.596 40.178 285.473 39.4574 286.211 38.6116Z" fill="#6BBF59"/>
<path d="M201.949 11.3632C203.806 6.25796 199.683 -1.07586 186.619 0.132236C188.318 3.54039 192.351 11.9971 201.949 11.3632Z" fill="#6BBF59"/>
<path d="M41.3901 43.8885C44.4552 23.1443 35.0894 7.02902 14.144 0C8.92915 14.9874 16.528 46.6315 41.3901 43.8885Z" fill="#6BBF59"/>
<path d="M42.3255 45.1116C32.1024 26.0118 20.602 31.9505 1.19287 31.9505C6.08129 47.6042 22.2752 53.3672 42.3255 45.1116Z" fill="#A6D89B"/>
</svg>
