<svg width="278" height="74" viewBox="0 0 278 74" fill="none" xmlns="http://www.w3.org/2000/svg">
<rect y="58" width="278" height="16" fill="#E2F2DF"/>
<path d="M46.12 17.8C46.12 15.6027 46.6107 13.64 47.592 11.912C48.5947 10.1627 49.9493 8.808 51.656 7.848C53.384 6.86667 55.3147 6.376 57.448 6.376C59.944 6.376 62.1307 7.016 64.008 8.296C65.8853 9.576 67.1973 11.3467 67.944 13.608H62.792C62.28 12.5413 61.5547 11.7413 60.616 11.208C59.6987 10.6747 58.632 10.408 57.416 10.408C56.1147 10.408 54.952 10.7173 53.928 11.336C52.9253 11.9333 52.136 12.7867 51.56 13.896C51.0053 15.0053 50.728 16.3067 50.728 17.8C50.728 19.272 51.0053 20.5733 51.56 21.704C52.136 22.8133 52.9253 23.6773 53.928 24.296C54.952 24.8933 56.1147 25.192 57.416 25.192C58.632 25.192 59.6987 24.9253 60.616 24.392C61.5547 23.8373 62.28 23.0267 62.792 21.96H67.944C67.1973 24.2427 65.8853 26.024 64.008 27.304C62.152 28.5627 59.9653 29.192 57.448 29.192C55.3147 29.192 53.384 28.712 51.656 27.752C49.9493 26.7707 48.5947 25.416 47.592 23.688C46.6107 21.96 46.12 19.9973 46.12 17.8ZM70.6185 20.072C70.6185 18.28 70.9705 16.6907 71.6745 15.304C72.3998 13.9173 73.3705 12.8507 74.5865 12.104C75.8238 11.3573 77.1998 10.984 78.7145 10.984C80.0372 10.984 81.1892 11.2507 82.1705 11.784C83.1732 12.3173 83.9732 12.9893 84.5705 13.8V11.272H89.0825V29H84.5705V26.408C83.9945 27.24 83.1945 27.9333 82.1705 28.488C81.1678 29.0213 80.0052 29.288 78.6825 29.288C77.1892 29.288 75.8238 28.904 74.5865 28.136C73.3705 27.368 72.3998 26.2907 71.6745 24.904C70.9705 23.496 70.6185 21.8853 70.6185 20.072ZM84.5705 20.136C84.5705 19.048 84.3572 18.12 83.9305 17.352C83.5038 16.5627 82.9278 15.9653 82.2025 15.56C81.4772 15.1333 80.6985 14.92 79.8665 14.92C79.0345 14.92 78.2665 15.1227 77.5625 15.528C76.8585 15.9333 76.2825 16.5307 75.8345 17.32C75.4078 18.088 75.1945 19.0053 75.1945 20.072C75.1945 21.1387 75.4078 22.0773 75.8345 22.888C76.2825 23.6773 76.8585 24.2853 77.5625 24.712C78.2878 25.1387 79.0558 25.352 79.8665 25.352C80.6985 25.352 81.4772 25.1493 82.2025 24.744C82.9278 24.3173 83.5038 23.72 83.9305 22.952C84.3572 22.1627 84.5705 21.224 84.5705 20.136ZM98.674 14.952V23.528C98.674 24.1253 98.8127 24.5627 99.09 24.84C99.3887 25.096 99.8793 25.224 100.562 25.224H102.642V29H99.826C96.05 29 94.162 27.1653 94.162 23.496V14.952H92.05V11.272H94.162V6.888H98.674V11.272H102.642V14.952H98.674ZM104.712 20.072C104.712 18.28 105.064 16.6907 105.768 15.304C106.494 13.9173 107.464 12.8507 108.68 12.104C109.918 11.3573 111.294 10.984 112.808 10.984C114.131 10.984 115.283 11.2507 116.264 11.784C117.267 12.3173 118.067 12.9893 118.664 13.8V11.272H123.176V29H118.664V26.408C118.088 27.24 117.288 27.9333 116.264 28.488C115.262 29.0213 114.099 29.288 112.776 29.288C111.283 29.288 109.918 28.904 108.68 28.136C107.464 27.368 106.494 26.2907 105.768 24.904C105.064 23.496 104.712 21.8853 104.712 20.072ZM118.664 20.136C118.664 19.048 118.451 18.12 118.024 17.352C117.598 16.5627 117.022 15.9653 116.296 15.56C115.571 15.1333 114.792 14.92 113.96 14.92C113.128 14.92 112.36 15.1227 111.656 15.528C110.952 15.9333 110.376 16.5307 109.928 17.32C109.502 18.088 109.288 19.0053 109.288 20.072C109.288 21.1387 109.502 22.0773 109.928 22.888C110.376 23.6773 110.952 24.2853 111.656 24.712C112.382 25.1387 113.15 25.352 113.96 25.352C114.792 25.352 115.571 25.1493 116.296 24.744C117.022 24.3173 117.598 23.72 118.024 22.952C118.451 22.1627 118.664 21.224 118.664 20.136ZM118.056 6.664L110.696 10.024V6.824L118.056 3.016V6.664ZM132.032 5.32V29H127.552V5.32H132.032ZM144.33 29.288C142.623 29.288 141.087 28.9147 139.722 28.168C138.357 27.4 137.279 26.3227 136.49 24.936C135.722 23.5493 135.338 21.9493 135.338 20.136C135.338 18.3227 135.733 16.7227 136.522 15.336C137.333 13.9493 138.431 12.8827 139.818 12.136C141.205 11.368 142.751 10.984 144.458 10.984C146.165 10.984 147.711 11.368 149.098 12.136C150.485 12.8827 151.573 13.9493 152.362 15.336C153.173 16.7227 153.578 18.3227 153.578 20.136C153.578 21.9493 153.162 23.5493 152.33 24.936C151.519 26.3227 150.41 27.4 149.002 28.168C147.615 28.9147 146.058 29.288 144.33 29.288ZM144.33 25.384C145.141 25.384 145.898 25.192 146.602 24.808C147.327 24.4027 147.903 23.8053 148.33 23.016C148.757 22.2267 148.97 21.2667 148.97 20.136C148.97 18.4507 148.522 17.16 147.626 16.264C146.751 15.3467 145.674 14.888 144.394 14.888C143.114 14.888 142.037 15.3467 141.162 16.264C140.309 17.16 139.882 18.4507 139.882 20.136C139.882 21.8213 140.298 23.1227 141.13 24.04C141.983 24.936 143.05 25.384 144.33 25.384ZM163.808 10.984C165.131 10.984 166.294 11.2507 167.296 11.784C168.299 12.296 169.088 12.968 169.664 13.8V11.272H174.176V29.128C174.176 30.7707 173.846 32.232 173.184 33.512C172.523 34.8133 171.531 35.8373 170.208 36.584C168.886 37.352 167.286 37.736 165.408 37.736C162.891 37.736 160.822 37.1493 159.2 35.976C157.6 34.8027 156.694 33.2027 156.48 31.176H160.928C161.163 31.9867 161.664 32.6267 162.432 33.096C163.222 33.5867 164.171 33.832 165.28 33.832C166.582 33.832 167.638 33.4373 168.448 32.648C169.259 31.88 169.664 30.7067 169.664 29.128V26.376C169.088 27.208 168.288 27.9013 167.264 28.456C166.262 29.0107 165.11 29.288 163.808 29.288C162.315 29.288 160.95 28.904 159.712 28.136C158.475 27.368 157.494 26.2907 156.768 24.904C156.064 23.496 155.712 21.8853 155.712 20.072C155.712 18.28 156.064 16.6907 156.768 15.304C157.494 13.9173 158.464 12.8507 159.68 12.104C160.918 11.3573 162.294 10.984 163.808 10.984ZM169.664 20.136C169.664 19.048 169.451 18.12 169.024 17.352C168.598 16.5627 168.022 15.9653 167.296 15.56C166.571 15.1333 165.792 14.92 164.96 14.92C164.128 14.92 163.36 15.1227 162.656 15.528C161.952 15.9333 161.376 16.5307 160.928 17.32C160.502 18.088 160.288 19.0053 160.288 20.072C160.288 21.1387 160.502 22.0773 160.928 22.888C161.376 23.6773 161.952 24.2853 162.656 24.712C163.382 25.1387 164.15 25.352 164.96 25.352C165.792 25.352 166.571 25.1493 167.296 24.744C168.022 24.3173 168.598 23.72 169.024 22.952C169.451 22.1627 169.664 21.224 169.664 20.136ZM186.424 29.288C184.717 29.288 183.181 28.9147 181.816 28.168C180.45 27.4 179.373 26.3227 178.584 24.936C177.816 23.5493 177.432 21.9493 177.432 20.136C177.432 18.3227 177.826 16.7227 178.616 15.336C179.426 13.9493 180.525 12.8827 181.912 12.136C183.298 11.368 184.845 10.984 186.552 10.984C188.258 10.984 189.805 11.368 191.192 12.136C192.578 12.8827 193.666 13.9493 194.456 15.336C195.266 16.7227 195.672 18.3227 195.672 20.136C195.672 21.9493 195.256 23.5493 194.424 24.936C193.613 26.3227 192.504 27.4 191.096 28.168C189.709 28.9147 188.152 29.288 186.424 29.288ZM186.424 25.384C187.234 25.384 187.992 25.192 188.696 24.808C189.421 24.4027 189.997 23.8053 190.424 23.016C190.85 22.2267 191.064 21.2667 191.064 20.136C191.064 18.4507 190.616 17.16 189.72 16.264C188.845 15.3467 187.768 14.888 186.488 14.888C185.208 14.888 184.13 15.3467 183.256 16.264C182.402 17.16 181.976 18.4507 181.976 20.136C181.976 21.8213 182.392 23.1227 183.224 24.04C184.077 24.936 185.144 25.384 186.424 25.384Z" fill="#6BBF59"/>
<path d="M54.92 65.224C53.3627 65.224 51.9547 64.9573 50.696 64.424C49.4587 63.8907 48.4773 63.1227 47.752 62.12C47.0267 61.1173 46.6533 59.9333 46.632 58.568H51.432C51.496 59.4853 51.816 60.2107 52.392 60.744C52.9893 61.2773 53.8 61.544 54.824 61.544C55.8693 61.544 56.6907 61.2987 57.288 60.808C57.8853 60.296 58.184 59.6347 58.184 58.824C58.184 58.1627 57.9813 57.6187 57.576 57.192C57.1707 56.7653 56.6587 56.4347 56.04 56.2C55.4427 55.944 54.6107 55.6667 53.544 55.368C52.0933 54.9413 50.9093 54.5253 49.992 54.12C49.096 53.6933 48.3173 53.064 47.656 52.232C47.016 51.3787 46.696 50.248 46.696 48.84C46.696 47.5173 47.0267 46.3653 47.688 45.384C48.3493 44.4027 49.2773 43.656 50.472 43.144C51.6667 42.6107 53.032 42.344 54.568 42.344C56.872 42.344 58.7387 42.9093 60.168 44.04C61.6187 45.1493 62.4187 46.7067 62.568 48.712H57.64C57.5973 47.944 57.2667 47.3147 56.648 46.824C56.0507 46.312 55.2507 46.056 54.248 46.056C53.3733 46.056 52.6693 46.28 52.136 46.728C51.624 47.176 51.368 47.8267 51.368 48.68C51.368 49.2773 51.56 49.7787 51.944 50.184C52.3493 50.568 52.84 50.888 53.416 51.144C54.0133 51.3787 54.8453 51.656 55.912 51.976C57.3627 52.4027 58.5467 52.8293 59.464 53.256C60.3813 53.6827 61.1707 54.3227 61.832 55.176C62.4933 56.0293 62.824 57.1493 62.824 58.536C62.824 59.7307 62.5147 60.84 61.896 61.864C61.2773 62.888 60.3707 63.7093 59.176 64.328C57.9813 64.9253 56.5627 65.224 54.92 65.224ZM83.444 47.272V65H78.932V62.76C78.356 63.528 77.5987 64.136 76.66 64.584C75.7427 65.0107 74.74 65.224 73.652 65.224C72.2653 65.224 71.0387 64.936 69.972 64.36C68.9053 63.7627 68.0627 62.8987 67.444 61.768C66.8467 60.616 66.548 59.2507 66.548 57.672V47.272H71.028V57.032C71.028 58.44 71.38 59.528 72.084 60.296C72.788 61.0427 73.748 61.416 74.964 61.416C76.2013 61.416 77.172 61.0427 77.876 60.296C78.58 59.528 78.932 58.44 78.932 57.032V47.272H83.444ZM94.6483 65.288C93.1976 65.288 91.8963 65.032 90.7443 64.52C89.5923 63.9867 88.6749 63.272 87.9923 62.376C87.3309 61.48 86.9683 60.488 86.9043 59.4H91.4163C91.5016 60.0827 91.8323 60.648 92.4083 61.096C93.0056 61.544 93.7416 61.768 94.6163 61.768C95.4696 61.768 96.1309 61.5973 96.6003 61.256C97.0909 60.9147 97.3363 60.4773 97.3363 59.944C97.3363 59.368 97.0376 58.9413 96.4403 58.664C95.8643 58.3653 94.9363 58.0453 93.6562 57.704C92.3336 57.384 91.2456 57.0533 90.3923 56.712C89.5603 56.3707 88.8349 55.848 88.2163 55.144C87.6189 54.44 87.3203 53.4907 87.3203 52.296C87.3203 51.3147 87.5976 50.4187 88.1523 49.608C88.7283 48.7973 89.5389 48.1573 90.5843 47.688C91.6509 47.2187 92.8989 46.984 94.3283 46.984C96.4403 46.984 98.1256 47.5173 99.3843 48.584C100.643 49.6293 101.336 51.048 101.464 52.84H97.1763C97.1123 52.136 96.8136 51.5813 96.2803 51.176C95.7683 50.7493 95.0749 50.536 94.2003 50.536C93.3896 50.536 92.7603 50.6853 92.3123 50.984C91.8856 51.2827 91.6723 51.6987 91.6723 52.232C91.6723 52.8293 91.9709 53.288 92.5683 53.608C93.1656 53.9067 94.0936 54.216 95.3523 54.536C96.6323 54.856 97.6883 55.1867 98.5203 55.528C99.3523 55.8693 100.067 56.4027 100.664 57.128C101.283 57.832 101.603 58.7707 101.624 59.944C101.624 60.968 101.336 61.8853 100.76 62.696C100.206 63.5067 99.3949 64.1467 98.3283 64.616C97.2829 65.064 96.0563 65.288 94.6483 65.288ZM110.518 50.952V59.528C110.518 60.1253 110.656 60.5627 110.934 60.84C111.232 61.096 111.723 61.224 112.406 61.224H114.486V65H111.67C107.894 65 106.006 63.1653 106.006 59.496V50.952H103.894V47.272H106.006V42.888H110.518V47.272H114.486V50.952H110.518ZM134.188 55.752C134.188 56.392 134.145 56.968 134.06 57.48H121.1C121.207 58.76 121.655 59.7627 122.444 60.488C123.233 61.2133 124.204 61.576 125.356 61.576C127.02 61.576 128.204 60.8613 128.908 59.432H133.74C133.228 61.1387 132.247 62.5467 130.796 63.656C129.345 64.744 127.564 65.288 125.452 65.288C123.745 65.288 122.209 64.9147 120.844 64.168C119.5 63.4 118.444 62.3227 117.676 60.936C116.929 59.5493 116.556 57.9493 116.556 56.136C116.556 54.3013 116.929 52.6907 117.676 51.304C118.423 49.9173 119.468 48.8507 120.812 48.104C122.156 47.3573 123.703 46.984 125.452 46.984C127.137 46.984 128.641 47.3467 129.964 48.072C131.308 48.7973 132.343 49.832 133.068 51.176C133.815 52.4987 134.188 54.024 134.188 55.752ZM129.548 54.472C129.527 53.32 129.111 52.4027 128.3 51.72C127.489 51.016 126.497 50.664 125.324 50.664C124.215 50.664 123.276 51.0053 122.508 51.688C121.761 52.3493 121.303 53.2773 121.132 54.472H129.548ZM147.282 47.016C149.394 47.016 151.101 47.688 152.402 49.032C153.703 50.3547 154.354 52.2107 154.354 54.6V65H149.874V55.208C149.874 53.8 149.522 52.7227 148.818 51.976C148.114 51.208 147.154 50.824 145.938 50.824C144.701 50.824 143.719 51.208 142.994 51.976C142.29 52.7227 141.938 53.8 141.938 55.208V65H137.458V47.272H141.938V49.48C142.535 48.712 143.293 48.1147 144.21 47.688C145.149 47.24 146.173 47.016 147.282 47.016ZM163.83 50.952V59.528C163.83 60.1253 163.969 60.5627 164.246 60.84C164.545 61.096 165.036 61.224 165.718 61.224H167.798V65H164.982C161.206 65 159.318 63.1653 159.318 59.496V50.952H157.206V47.272H159.318V42.888H163.83V47.272H167.798V50.952H163.83ZM169.868 56.072C169.868 54.28 170.22 52.6907 170.924 51.304C171.65 49.9173 172.621 48.8507 173.837 48.104C175.074 47.3573 176.45 46.984 177.965 46.984C179.287 46.984 180.439 47.2507 181.421 47.784C182.423 48.3173 183.223 48.9893 183.821 49.8V47.272H188.333V65H183.821V62.408C183.245 63.24 182.445 63.9333 181.421 64.488C180.418 65.0213 179.255 65.288 177.933 65.288C176.439 65.288 175.074 64.904 173.837 64.136C172.621 63.368 171.65 62.2907 170.924 60.904C170.22 59.496 169.868 57.8853 169.868 56.072ZM183.821 56.136C183.821 55.048 183.607 54.12 183.181 53.352C182.754 52.5627 182.178 51.9653 181.453 51.56C180.727 51.1333 179.949 50.92 179.117 50.92C178.285 50.92 177.517 51.1227 176.812 51.528C176.109 51.9333 175.533 52.5307 175.085 53.32C174.658 54.088 174.445 55.0053 174.445 56.072C174.445 57.1387 174.658 58.0773 175.085 58.888C175.533 59.6773 176.109 60.2853 176.812 60.712C177.538 61.1387 178.306 61.352 179.117 61.352C179.949 61.352 180.727 61.1493 181.453 60.744C182.178 60.3173 182.754 59.72 183.181 58.952C183.607 58.1627 183.821 57.224 183.821 56.136ZM183.213 42.664L175.853 46.024V42.824L183.213 39.016V42.664ZM200.1 60.872L204.58 47.272H209.348L202.788 65H197.348L190.82 47.272H195.62L200.1 60.872ZM228.344 55.752C228.344 56.392 228.302 56.968 228.216 57.48H215.256C215.363 58.76 215.811 59.7627 216.6 60.488C217.39 61.2133 218.36 61.576 219.512 61.576C221.176 61.576 222.36 60.8613 223.064 59.432H227.896C227.384 61.1387 226.403 62.5467 224.952 63.656C223.502 64.744 221.72 65.288 219.608 65.288C217.902 65.288 216.366 64.9147 215 64.168C213.656 63.4 212.6 62.3227 211.832 60.936C211.086 59.5493 210.712 57.9493 210.712 56.136C210.712 54.3013 211.086 52.6907 211.832 51.304C212.579 49.9173 213.624 48.8507 214.968 48.104C216.312 47.3573 217.859 46.984 219.608 46.984C221.294 46.984 222.798 47.3467 224.12 48.072C225.464 48.7973 226.499 49.832 227.224 51.176C227.971 52.4987 228.344 54.024 228.344 55.752ZM223.704 54.472C223.683 53.32 223.267 52.4027 222.456 51.72C221.646 51.016 220.654 50.664 219.48 50.664C218.371 50.664 217.432 51.0053 216.664 51.688C215.918 52.3493 215.459 53.2773 215.288 54.472H223.704ZM236.094 41.32V65H231.614V41.32H236.094Z" fill="#3F463E"/>
<path d="M227.533 22.1996H230.733M224.332 26.4664H230.733M224.332 30.7332H230.733M215.804 30.6934C213.251 30.4968 210.802 29.5975 208.729 28.0949C206.656 26.5923 205.039 24.5452 204.058 22.1803C203.077 19.8155 202.77 17.2252 203.171 14.6966C203.572 12.1679 204.665 9.79951 206.329 7.85384C207.993 5.90818 210.164 4.46118 212.6 3.67318C215.036 2.88517 217.643 2.78692 220.131 3.3893C222.62 3.99169 224.893 5.2712 226.699 7.08606C228.505 8.90093 229.773 11.1803 230.363 13.6716M211.531 29.6651V23.2648C211.531 23.2648 212.966 22.6106 213.337 21.7743C213.451 21.5177 213.506 21.2384 213.496 20.9578C213.486 20.6771 213.412 20.4023 213.28 20.1543L211.49 16.7907C211.295 16.4273 210.985 16.1393 210.608 15.9723C210.232 15.8053 209.81 15.769 209.41 15.869L203.009 17.4648M209.397 5.17925V10.8001C209.396 11.2132 209.534 11.6146 209.788 11.9405C210.042 12.2663 210.398 12.4977 210.798 12.5978L213.501 13.5223C213.774 13.5904 214.059 13.5954 214.334 13.5369C214.609 13.4784 214.867 13.3578 215.089 13.1845C215.31 13.0111 215.489 12.7895 215.612 12.5365C215.735 12.2835 215.799 12.0058 215.798 11.7245V9.77888L221.721 8.8032C222.152 8.73117 222.544 8.50843 222.827 8.17458C223.11 7.84072 223.265 7.41739 223.265 6.97985V4.56199M220.065 17.9328H235V35H220.065V17.9328Z" stroke="#6BBF59" stroke-width="3" stroke-linecap="round" stroke-linejoin="round"/>
</svg>
